<?xml version="1.0" standalone="no"?>
<!DOCTYPE svg PUBLIC "-//W3C//DTD SVG 1.1//EN" "http://www.w3.org/Graphics/SVG/1.1/DTD/svg11.dtd" >
<svg xmlns="http://www.w3.org/2000/svg">
<metadata></metadata>
<defs>
<font id="liberation_sansbold" horiz-adv-x="0" >
<font-face units-per-em="2048" ascent="1638" descent="-410" />
<missing-glyph horiz-adv-x="569" />
<glyph unicode="&#xd;" horiz-adv-x="569" />
<glyph unicode=" "  horiz-adv-x="569" />
<glyph unicode="&#x09;" horiz-adv-x="569" />
<glyph unicode="&#xa0;" horiz-adv-x="569" />
<glyph unicode="!" horiz-adv-x="682" d="M455 426h-230l-32 983h294zM193 0v270h288v-270h-288z" />
<glyph unicode="&#x22;" horiz-adv-x="971" d="M807 898h-219l-27 511h275zM381 898h-219l-27 511h273z" />
<glyph unicode="#" horiz-adv-x="1139" d="M909 862l-69 -332h215v-149h-246l-82 -381h-156l80 381h-307l-80 -381h-153l79 381h-155v149h188l70 332h-207v148h238l84 385h153l-82 -385h307l84 385h156l-84 -385h164v-148h-197zM449 862l-72 -332h309l70 332h-307z" />
<glyph unicode="$" horiz-adv-x="1139" d="M1110 412q0 -181 -121.5 -280.5t-359.5 -108.5v-175h-109v172q-215 8 -335 101.5t-158 286.5l256 47q19 -113 75.5 -165.5t161.5 -62.5v391q-3 2 -15 4.5t-16 2.5q-162 37 -244.5 87.5t-127.5 128t-45 189.5q0 166 114.5 257t333.5 99v134h109v-134q131 -5 218.5 -41.5 t141 -107t86.5 -201.5l-264 -39q-15 87 -58.5 134.5t-123.5 58.5v-352l11 -2q29 0 176.5 -48t220.5 -141.5t73 -234.5zM520 1194q-186 -14 -186 -160q0 -44 15.5 -73t45 -48t125.5 -51v332zM850 408q0 50 -18 81.5t-52.5 51.5t-150.5 53v-367q221 15 221 181z" />
<glyph unicode="%" horiz-adv-x="1821" d="M1767 432q0 -218 -90 -333t-264 -115q-176 0 -265 114t-89 334q0 224 86 336.5t272 112.5q180 0 265 -113.5t85 -335.5zM552 0h-206l920 1409h209zM408 1425q179 0 265.5 -113t86.5 -335q0 -218 -90.5 -333.5t-266.5 -115.5q-174 0 -263 114.5t-89 334.5q0 227 86 337.5 t271 110.5zM1552 432q0 159 -30.5 227t-104.5 68q-80 0 -110.5 -69t-30.5 -226q0 -160 32 -225.5t107 -65.5q73 0 105 68t32 223zM543 977q0 157 -30.5 225t-104.5 68q-80 0 -111 -67.5t-31 -225.5t32.5 -225.5t107.5 -67.5q74 0 105.5 68t31.5 225z" />
<glyph unicode="&#x26;" horiz-adv-x="1479" d="M90 385q0 135 81 240.5t257 187.5q-74 150 -74 279q0 156 98 240.5t279 84.5q168 0 265.5 -80t97.5 -217q0 -77 -39 -139t-110.5 -115t-242.5 -133q99 -175 244 -336q104 158 158 363l209 -70q-68 -233 -193 -420q86 -73 178 -73q65 0 117 16v-203q-55 -22 -131 -22 q-86 0 -172.5 31t-157.5 90q-170 -129 -379 -129q-231 0 -358 106.5t-127 298.5zM870 1118q0 57 -38 93t-103 36q-77 0 -117.5 -43t-40.5 -114q0 -87 54 -193q105 45 150.5 76t70 66t24.5 79zM788 246q-166 185 -272 377q-172 -81 -172 -234q0 -99 65 -159t177 -60 q65 0 117.5 24t84.5 52z" />
<glyph unicode="'" horiz-adv-x="487" d="M354 898h-219l-26 511h272z" />
<glyph unicode="(" horiz-adv-x="682" d="M399 -425q-157 226 -227 451t-70 505q0 279 70 503.5t227 449.5h281q-158 -228 -229.5 -454t-71.5 -500q0 -273 71 -497.5t230 -457.5h-281z" />
<glyph unicode=")" horiz-adv-x="682" d="M2 -425q160 234 230.5 457.5t70.5 497.5q0 275 -72 501.5t-229 452.5h281q158 -227 227.5 -452t69.5 -501q0 -278 -69.5 -503t-227.5 -453h-281z" />
<glyph unicode="*" horiz-adv-x="797" d="M492 1135l235 104l68 -197l-250 -61l186 -213l-184 -121l-146 252l-149 -252l-186 123l190 211l-250 61l68 197l239 -104l-18 274h215z" />
<glyph unicode="+" horiz-adv-x="1196" d="M711 569v-408h-226v408h-399v224h399v408h226v-408h402v-224h-402z" />
<glyph unicode="," horiz-adv-x="569" d="M432 66q0 -120 -25.5 -212t-82.5 -171h-185q59 71 96 156t37 161h-129v305h289v-239z" />
<glyph unicode="-" horiz-adv-x="682" d="M80 409v244h520v-244h-520z" />
<glyph unicode="." horiz-adv-x="569" d="M139 0v305h289v-305h-289z" />
<glyph unicode="/" horiz-adv-x="569" d="M20 -41l291 1525h238l-286 -1525h-243z" />
<glyph unicode="0" horiz-adv-x="1139" d="M1055 705q0 -357 -122.5 -541t-367.5 -184q-484 0 -484 725q0 253 53 413t159 236t280 76q250 0 366 -181t116 -544zM773 705q0 195 -19 303t-61 155t-122 47q-85 0 -128.5 -47.5t-62 -155t-18.5 -302.5q0 -193 19.5 -301.5t62 -155.5t123.5 -47q80 0 123.5 49.5 t63 158.5t19.5 296z" />
<glyph unicode="1" horiz-adv-x="1139" d="M129 0v209h349v961l-338 -211v221l353 229h266v-1200h323v-209h-953z" />
<glyph unicode="2" horiz-adv-x="1139" d="M71 0v195q55 121 156.5 236t255.5 240q148 120 207.5 198t59.5 153q0 184 -185 184q-90 0 -137.5 -48.5t-61.5 -145.5l-283 16q24 196 146.5 299t333.5 103q228 0 350 -104t122 -292q0 -99 -39 -179t-100 -147.5t-135.5 -126.5t-144.5 -115t-127.5 -113t-85.5 -122h654 v-231h-986z" />
<glyph unicode="3" horiz-adv-x="1139" d="M1065 391q0 -198 -130 -306t-370 -108q-227 0 -361 104.5t-157 301.5l286 25q27 -203 231 -203q101 0 157 50t56 153q0 94 -68 144t-202 50h-98v227h92q121 0 182 49.5t61 141.5q0 87 -48.5 136.5t-141.5 49.5q-87 0 -140.5 -48t-61.5 -136l-281 20q22 182 151 285 t337 103q221 0 345.5 -99.5t124.5 -275.5q0 -132 -77.5 -217t-223.5 -113v-4q162 -19 249.5 -106.5t87.5 -223.5z" />
<glyph unicode="4" horiz-adv-x="1139" d="M940 287v-287h-268v287h-641v211l595 911h314v-913h188v-209h-188zM672 957q0 54 3.5 117t5.5 81q-26 -56 -94 -162l-327 -497h412v461z" />
<glyph unicode="5" horiz-adv-x="1139" d="M1082 469q0 -224 -139.5 -356.5t-382.5 -132.5q-212 0 -339.5 95.5t-157.5 276.5l281 23q22 -90 78 -131t141 -41q105 0 167.5 67t62.5 193q0 111 -59 177.5t-165 66.5q-117 0 -191 -91h-274l49 793h847v-209h-592l-23 -356q102 90 255 90q201 0 321.5 -125t120.5 -340z " />
<glyph unicode="6" horiz-adv-x="1139" d="M1065 461q0 -225 -126 -353t-348 -128q-249 0 -382.5 174.5t-133.5 517.5q0 377 135.5 567.5t387.5 190.5q179 0 282.5 -79t146.5 -245l-265 -37q-38 139 -170 139q-113 0 -177.5 -113t-64.5 -343q45 75 125 115t181 40q189 0 299 -120t110 -326zM783 453 q0 120 -55.5 183.5t-152.5 63.5q-93 0 -149 -59.5t-56 -157.5q0 -123 58.5 -203.5t153.5 -80.5t148 67.5t53 186.5z" />
<glyph unicode="7" horiz-adv-x="1139" d="M1049 1186q-95 -150 -179.5 -291t-147.5 -283.5t-99.5 -293t-36.5 -318.5h-293q0 176 46 340.5t133 335t316 502.5h-700v231h961v-223z" />
<glyph unicode="8" horiz-adv-x="1139" d="M1076 397q0 -198 -131 -307.5t-374 -109.5q-241 0 -373.5 109t-132.5 306q0 135 78 227.5t209 114.5v4q-114 25 -184 113t-70 203q0 173 122.5 273t346.5 100q229 0 351.5 -97.5t122.5 -277.5q0 -115 -69.5 -202t-186.5 -110v-4q136 -22 213.5 -111.5t77.5 -230.5z M752 1040q0 100 -46 146.5t-139 46.5q-182 0 -182 -193q0 -202 184 -202q92 0 137.5 47t45.5 155zM785 420q0 221 -220 221q-102 0 -156.5 -58t-54.5 -167q0 -124 54 -181t165 -57q109 0 160.5 57t51.5 185z" />
<glyph unicode="9" horiz-adv-x="1139" d="M1063 727q0 -375 -137 -561t-389 -186q-186 0 -291.5 79.5t-149.5 251.5l264 37q39 -147 180 -147q118 0 181.5 113t65.5 335q-38 -75 -124.5 -117.5t-186.5 -42.5q-186 0 -295.5 126.5t-109.5 342.5q0 222 128.5 347t363.5 125q253 0 376.5 -175.5t123.5 -527.5z M766 924q0 131 -57.5 208.5t-152.5 77.5q-93 0 -146.5 -67.5t-53.5 -186.5q0 -117 53 -187.5t148 -70.5q90 0 149.5 61.5t59.5 164.5z" />
<glyph unicode=":" horiz-adv-x="682" d="M197 752v282h288v-282h-288zM197 0v281h288v-281h-288z" />
<glyph unicode=";" horiz-adv-x="682" d="M199 752v282h288v-282h-288zM487 66q0 -120 -25.5 -212t-82.5 -171h-184q64 81 98.5 163.5t34.5 153.5h-129v281h288v-215z" />
<glyph unicode="&#x3c;" horiz-adv-x="1196" d="M86 516v322l1027 391v-228l-833 -325l833 -324v-227z" />
<glyph unicode="=" horiz-adv-x="1196" d="M85 842v223h1027v-223h-1027zM85 291v221h1027v-221h-1027z" />
<glyph unicode="&#x3e;" horiz-adv-x="1196" d="M86 125v227l832 324l-832 325v228l1027 -391v-322z" />
<glyph unicode="?" horiz-adv-x="1251" d="M1133 1026q0 -97 -43.5 -174t-162.5 -162l-76 -55q-68 -49 -101.5 -99t-36.5 -110h-267q6 102 57.5 182t151.5 150q107 74 151 130.5t44 125.5q0 88 -57.5 139t-163.5 51q-101 0 -169.5 -59t-80.5 -156l-285 12q27 203 167 316t364 113q237 0 372.5 -107.5t135.5 -296.5z M438 0v270h289v-270h-289z" />
<glyph unicode="@" horiz-adv-x="1997" d="M1878 725q0 -182 -63.5 -332t-175.5 -234.5t-242 -84.5q-92 0 -141.5 45.5t-49.5 126.5q0 37 6 67h-6q-50 -105 -148.5 -172t-201.5 -67q-157 0 -243.5 101.5t-86.5 283.5q0 163 64.5 306t179 224.5t256.5 81.5q195 0 264 -174h6l39 152h156l-117 -506q-37 -172 -37 -240 q0 -50 23.5 -71t54.5 -21q80 0 153 69.5t115.5 186t42.5 256.5q0 175 -76.5 309.5t-220.5 207.5t-335 73q-240 0 -423 -105t-287.5 -303t-104.5 -444q0 -195 79.5 -342.5t223.5 -223t338 -75.5q294 0 589 155l62 -122q-168 -95 -328.5 -136t-329.5 -41q-236 0 -415.5 95.5 t-280 276t-100.5 413.5q0 283 126.5 512t349.5 355t499 126q243 0 421 -90.5t271.5 -255.5t93.5 -383zM1231 721q0 95 -59.5 155t-153.5 60t-168.5 -62.5t-116 -177t-41.5 -235.5q0 -114 48.5 -180t148.5 -66q66 0 128.5 42t111.5 121.5t75.5 181t26.5 161.5z" />
<glyph unicode="A" horiz-adv-x="1479" d="M1133 0l-125 360h-537l-125 -360h-295l514 1409h348l512 -1409h-292zM739 1192l-6 -22q-10 -36 -24 -82t-172 -506h405l-139 405l-43 136z" />
<glyph unicode="B" horiz-adv-x="1479" d="M1386 402q0 -192 -144 -297t-400 -105h-705v1409h645q258 0 390.5 -89.5t132.5 -264.5q0 -120 -66.5 -202.5t-202.5 -111.5q171 -20 260.5 -107.5t89.5 -231.5zM1008 1015q0 95 -60.5 135t-179.5 40h-336v-349h338q125 0 181.5 43.5t56.5 130.5zM1090 425q0 198 -284 198 h-374v-404h385q142 0 207.5 51.5t65.5 154.5z" />
<glyph unicode="C" horiz-adv-x="1479" d="M795 212q267 0 371 268l257 -97q-83 -204 -243.5 -303.5t-384.5 -99.5q-340 0 -525.5 192.5t-185.5 538.5q0 347 179 533t519 186q248 0 404 -99.5t219 -292.5l-260 -71q-33 106 -129.5 168.5t-227.5 62.5q-200 0 -303.5 -124t-103.5 -363q0 -243 106.5 -371t307.5 -128z " />
<glyph unicode="D" horiz-adv-x="1479" d="M1393 715q0 -218 -85.5 -380.5t-242 -248.5t-358.5 -86h-570v1409h510q356 0 551 -179.5t195 -514.5zM1096 715q0 227 -118 346.5t-337 119.5h-209v-953h250q190 0 302 131t112 356z" />
<glyph unicode="E" horiz-adv-x="1366" d="M137 0v1409h1108v-228h-813v-354h752v-228h-752v-371h854v-228h-1149z" />
<glyph unicode="F" horiz-adv-x="1251" d="M432 1181v-436h721v-228h-721v-517h-295v1409h1039v-228h-744z" />
<glyph unicode="G" horiz-adv-x="1593" d="M806 211q115 0 223 33.5t167 85.5v195h-344v218h614v-518q-112 -115 -291.5 -180t-376.5 -65q-344 0 -529 190.5t-185 540.5q0 348 186 533.5t535 185.5q496 0 631 -367l-272 -82q-44 107 -138 162t-221 55q-208 0 -316 -126t-108 -361q0 -239 111.5 -369.5t313.5 -130.5 z" />
<glyph unicode="H" horiz-adv-x="1479" d="M1046 0v604h-614v-604h-295v1409h295v-561h614v561h295v-1409h-295z" />
<glyph unicode="I" horiz-adv-x="569" d="M137 0v1409h295v-1409h-295z" />
<glyph unicode="J" horiz-adv-x="1139" d="M524 -20q-219 0 -336.5 95t-156.5 307l293 43q18 -109 67 -161.5t135 -52.5q88 0 133.5 59t45.5 169v739h-281v231h575v-963q0 -220 -125 -343t-350 -123z" />
<glyph unicode="K" horiz-adv-x="1479" d="M1112 0l-506 647l-174 -133v-514h-295v1409h295v-639l635 639h344l-602 -596l651 -813h-348z" />
<glyph unicode="L" horiz-adv-x="1251" d="M137 0v1409h295v-1181h756v-228h-1051z" />
<glyph unicode="M" horiz-adv-x="1706" d="M1307 0v854q0 29 0.5 58t9.5 249q-71 -269 -105 -375l-254 -786h-210l-254 786l-107 375q12 -232 12 -307v-854h-262v1409h395l252 -788l22 -76l48 -189l63 226l259 827h393v-1409h-262z" />
<glyph unicode="N" horiz-adv-x="1479" d="M995 0l-614 1085q18 -158 18 -254v-831h-262v1409h337l623 -1094q-18 151 -18 275v819h262v-1409h-346z" />
<glyph unicode="O" horiz-adv-x="1593" d="M1507 711q0 -220 -87 -387t-249 -255.5t-378 -88.5q-332 0 -520.5 195.5t-188.5 535.5q0 339 188 529t523 190t523.5 -192t188.5 -527zM1206 711q0 228 -108 357.5t-303 129.5q-198 0 -306 -128.5t-108 -358.5q0 -232 110.5 -365.5t301.5 -133.5q198 0 305.5 130 t107.5 369z" />
<glyph unicode="P" horiz-adv-x="1366" d="M1296 963q0 -136 -62 -243t-177.5 -165.5t-274.5 -58.5h-350v-496h-295v1409h633q253 0 389.5 -116.5t136.5 -329.5zM999 958q0 222 -262 222h-305v-457h313q122 0 188 60.5t66 174.5z" />
<glyph unicode="Q" horiz-adv-x="1593" d="M1507 711q0 -282 -138.5 -469.5t-385.5 -237.5q34 -99 95.5 -143t172.5 -44q59 0 119 10l-2 -202q-126 -28 -242 -28q-163 0 -270 91t-172 302q-285 27 -442.5 217.5t-157.5 503.5q0 339 188 529t523 190t523.5 -192t188.5 -527zM1206 711q0 228 -108 357.5t-303 129.5 q-198 0 -306 -128.5t-108 -358.5q0 -232 110 -366t302 -134q198 0 305.5 130t107.5 370z" />
<glyph unicode="R" horiz-adv-x="1479" d="M1105 0l-327 535h-346v-535h-295v1409h704q252 0 389 -108.5t137 -311.5q0 -148 -84 -255.5t-227 -141.5l381 -592h-332zM1070 977q0 203 -260 203h-378v-416h386q124 0 188 56t64 157z" />
<glyph unicode="S" horiz-adv-x="1366" d="M1286 406q0 -207 -153.5 -316.5t-450.5 -109.5q-271 0 -425 96t-198 291l285 47q29 -112 113 -162.5t233 -50.5q309 0 309 188q0 60 -35.5 99t-100 65t-247.5 63q-158 37 -220 59.5t-112 53t-85 73.5t-54.5 101t-19.5 133q0 191 143.5 292.5t417.5 101.5q262 0 393.5 -82 t169.5 -271l-286 -39q-22 91 -89.5 137t-193.5 46q-268 0 -268 -168q0 -55 28.5 -90t84.5 -59.5t227 -61.5q203 -43 290.5 -79.5t138.5 -85t78 -116t27 -155.5z" />
<glyph unicode="T" horiz-adv-x="1251" d="M773 1181v-1181h-295v1181h-455v228h1206v-228h-456z" />
<glyph unicode="U" horiz-adv-x="1479" d="M723 -20q-291 0 -445.5 142t-154.5 406v881h295v-858q0 -167 79.5 -253.5t233.5 -86.5q158 0 243 90.5t85 259.5v848h295v-866q0 -268 -165.5 -415.5t-465.5 -147.5z" />
<glyph unicode="V" horiz-adv-x="1366" d="M834 0h-299l-521 1409h308l290 -905q27 -88 74 -266l21 86l51 180l289 905h305z" />
<glyph unicode="W" horiz-adv-x="1933" d="M1567 0h-350l-191 815q-35 144 -59 301q-24 -131 -39 -199.5t-213 -916.5h-350l-363 1409h299l204 -910l46 -220q28 139 54.5 265.5t199.5 864.5h330l178 -750q21 -84 71 -380l25 116l53 230l170 784h299z" />
<glyph unicode="X" horiz-adv-x="1366" d="M1038 0l-354 561l-354 -561h-312l488 741l-447 668h312l313 -498l313 498h310l-428 -668l469 -741h-310z" />
<glyph unicode="Y" horiz-adv-x="1366" d="M831 578v-578h-294v578l-502 831h309l338 -596l342 596h309z" />
<glyph unicode="Z" horiz-adv-x="1251" d="M1192 0h-1131v209l762 969h-686v231h1014v-205l-762 -973h803v-231z" />
<glyph unicode="[" horiz-adv-x="682" d="M115 -425v1909h542v-190h-276v-1528h276v-191h-542z" />
<glyph unicode="\" horiz-adv-x="569" d="M307 -41l-286 1526h238l291 -1526h-243z" />
<glyph unicode="]" horiz-adv-x="682" d="M25 -425v191h278v1528h-278v190h542v-1909h-542z" />
<glyph unicode="^" horiz-adv-x="1196" d="M922 514l-326 752l-324 -752h-227l391 895h322l393 -895h-229z" />
<glyph unicode="_" horiz-adv-x="1139" d="M-20 -250v78h1177v-78h-1177z" />
<glyph unicode="`" horiz-adv-x="682" d="M406 1183l-340 276v43h258l251 -288v-31h-169z" />
<glyph unicode="a" horiz-adv-x="1139" d="M393 -20q-157 0 -245 85.5t-88 240.5q0 168 109.5 256t317.5 90l233 4v55q0 106 -37 157.5t-121 51.5q-78 0 -114.5 -35.5t-45.5 -117.5l-293 14q27 158 144.5 239.5t320.5 81.5q205 0 316 -101t111 -287v-394q0 -91 20.5 -125.5t68.5 -34.5q32 0 62 6v-152 q-25 -6 -45 -11t-40 -8t-42.5 -5t-52.5 -2q-106 0 -156.5 52t-60.5 153h-6q-118 -213 -356 -213zM720 501l-144 -2q-98 -4 -139 -21.5t-62.5 -53.5t-21.5 -96q0 -77 35.5 -114.5t94.5 -37.5q66 0 120.5 36t85.5 99.5t31 134.5v55z" />
<glyph unicode="b" horiz-adv-x="1251" d="M1167 545q0 -268 -107.5 -416.5t-307.5 -148.5q-115 0 -199 50t-129 144h-2q0 -35 -4.5 -96t-9.5 -78h-273q8 93 8 247v1237h281v-414l-4 -176h4q95 208 346 208q192 0 294.5 -145.5t102.5 -411.5zM874 545q0 184 -54 273t-167 89q-114 0 -173.5 -95.5t-59.5 -275.5 q0 -172 58.5 -268t172.5 -96q223 0 223 373z" />
<glyph unicode="c" horiz-adv-x="1139" d="M594 -20q-246 0 -380 146.5t-134 408.5q0 268 135 417.5t383 149.5q191 0 316 -96t157 -265l-283 -14q-12 83 -60 132.5t-136 49.5q-217 0 -217 -363q0 -374 221 -374q80 0 134 50.5t67 150.5l282 -13q-15 -111 -79.5 -198t-169.5 -134.5t-236 -47.5z" />
<glyph unicode="d" horiz-adv-x="1251" d="M844 0q-4 15 -9.5 75.5t-5.5 100.5h-4q-91 -196 -346 -196q-189 0 -292 147.5t-103 412.5q0 269 108.5 415.5t307.5 146.5q115 0 198.5 -48t128.5 -143h2l-2 178v395h281v-1248q0 -100 8 -236h-272zM831 547q0 175 -58.5 269.5t-172.5 94.5q-113 0 -168 -91.5t-55 -279.5 q0 -368 221 -368q111 0 172 97.5t61 277.5z" />
<glyph unicode="e" horiz-adv-x="1139" d="M586 -20q-244 0 -375 144.5t-131 421.5q0 268 133 412t377 144q233 0 356 -154.5t123 -452.5v-8h-694q0 -158 58.5 -238.5t166.5 -80.5q149 0 188 129l265 -23q-115 -294 -467 -294zM586 925q-99 0 -152.5 -69t-56.5 -193h420q-8 131 -63 196.5t-148 65.5z" />
<glyph unicode="f" horiz-adv-x="682" d="M473 892v-892h-280v892h-158v190h158v113q0 147 78 218t237 71q79 0 178 -16v-181q-41 9 -82 9q-72 0 -101.5 -28.5t-29.5 -100.5v-85h213v-190h-213z" />
<glyph unicode="g" horiz-adv-x="1251" d="M596 -434q-198 0 -318.5 75.5t-148.5 215.5l281 33q15 -65 64.5 -102t129.5 -37q117 0 171 72t54 214v57l2 107h-2q-93 -199 -348 -199q-189 0 -293 142t-104 406q0 265 107 409t311 144q236 0 327 -195h5q0 35 4.5 95t9.5 79h266q-6 -108 -6 -250v-799q0 -231 -131 -349 t-381 -118zM831 556q0 167 -59.5 260.5t-169.5 93.5q-225 0 -225 -360q0 -353 223 -353q112 0 171.5 93.5t59.5 265.5z" />
<glyph unicode="h" horiz-adv-x="1251" d="M420 866q57 124 143 180t205 56q172 0 264 -106t92 -310v-686h-280v606q0 285 -193 285q-102 0 -164.5 -87.5t-62.5 -224.5v-579h-281v1484h281v-405q0 -109 -8 -213h4z" />
<glyph unicode="i" horiz-adv-x="569" d="M143 1277v207h281v-207h-281zM143 0v1082h281v-1082h-281z" />
<glyph unicode="j" horiz-adv-x="569" d="M144 1277v207h281v-207h-281zM138 -425q-100 0 -170 9v198l51 -4q72 0 98.5 31.5t26.5 130.5v1142h281v-1210q0 -143 -72.5 -220t-214.5 -77z" />
<glyph unicode="k" horiz-adv-x="1139" d="M834 0l-289 490l-121 -84v-406h-281v1484h281v-850l386 448h302l-380 -422l409 -660h-307z" />
<glyph unicode="l" horiz-adv-x="569" d="M143 0v1484h281v-1484h-281z" />
<glyph unicode="m" horiz-adv-x="1821" d="M780 0v607q0 285 -164 285q-85 0 -138.5 -87t-53.5 -225v-580h-281v840q0 87 -2.5 142.5t-5.5 99.5h268q3 -19 8 -101.5t5 -113.5h4q52 124 129.5 180t185.5 56q248 0 301 -236h6q55 126 132 181t196 55q158 0 241 -107.5t83 -308.5v-687h-279v607q0 285 -164 285 q-82 0 -134.5 -79.5t-57.5 -219.5v-593h-279z" />
<glyph unicode="n" horiz-adv-x="1251" d="M844 0v607q0 285 -193 285q-102 0 -164.5 -87.5t-62.5 -224.5v-580h-281v840q0 87 -2.5 142.5t-5.5 99.5h268q3 -19 8 -101.5t5 -113.5h4q57 124 143 180t205 56q172 0 264 -106t92 -310v-687h-280z" />
<glyph unicode="o" horiz-adv-x="1251" d="M1171 542q0 -263 -146 -412.5t-404 -149.5q-253 0 -397 150t-144 412q0 261 144 410.5t403 149.5q265 0 404.5 -144.5t139.5 -415.5zM877 542q0 193 -63 280t-183 87q-256 0 -256 -367q0 -181 62.5 -275.5t180.5 -94.5q259 0 259 370z" />
<glyph unicode="p" horiz-adv-x="1251" d="M1167 546q0 -271 -108.5 -418.5t-306.5 -147.5q-114 0 -198.5 49.5t-129.5 142.5h-6q6 -30 6 -182v-415h-281v1258q0 153 -8 249h273q5 -18 8.5 -71t3.5 -105h4q95 199 346 199q189 0 293 -145.5t104 -413.5zM874 546q0 364 -223 364q-112 0 -171.5 -98t-59.5 -274 q0 -175 59.5 -270.5t169.5 -95.5q225 0 225 374z" />
<glyph unicode="q" horiz-adv-x="1251" d="M84 540q0 268 109.5 415.5t308.5 147.5q236 0 327 -195q0 46 5.5 102.5t9.5 71.5h270q-6 -108 -6 -249v-1258h-279v450l5 155h-2q-93 -200 -353 -200q-189 0 -292 147.5t-103 412.5zM831 546q0 173 -58 268.5t-171 95.5q-225 0 -225 -370q0 -368 223 -368 q110 0 170.5 97.5t60.5 276.5z" />
<glyph unicode="r" horiz-adv-x="797" d="M143 0v828q0 89 -2.5 148.5t-5.5 105.5h268q3 -18 8 -109.5t5 -121.5h4q41 114 73 160.5t76 69t110 22.5q54 0 87 -15v-235q-68 15 -120 15q-105 0 -163.5 -85t-58.5 -252v-531h-281z" />
<glyph unicode="s" horiz-adv-x="1139" d="M1055 316q0 -157 -128.5 -246.5t-355.5 -89.5q-223 0 -341.5 70.5t-157.5 219.5l247 37q21 -77 72.5 -109t179.5 -32q118 0 172 30t54 94q0 52 -43.5 82.5t-147.5 51.5q-238 47 -321 87.5t-126.5 105t-43.5 158.5q0 155 119.5 241.5t338.5 86.5q193 0 310.5 -75 t146.5 -217l-249 -26q-12 66 -59 98.5t-149 32.5q-100 0 -150 -25.5t-50 -85.5q0 -47 38.5 -74.5t129.5 -45.5q127 -26 225.5 -53.5t158 -65.5t95 -97.5t35.5 -152.5z" />
<glyph unicode="t" horiz-adv-x="682" d="M420 -18q-124 0 -191 67.5t-67 204.5v638h-137v190h151l88 254h176v-254h205v-190h-205v-562q0 -79 30 -116.5t93 -37.5q33 0 94 14v-174q-104 -34 -237 -34z" />
<glyph unicode="u" horiz-adv-x="1251" d="M408 1082v-607q0 -285 192 -285q102 0 164.5 87.5t62.5 224.5v580h281v-840q0 -138 8 -242h-268q-12 144 -12 215h-5q-56 -123 -142.5 -179t-205.5 -56q-172 0 -264 105.5t-92 309.5v687h281z" />
<glyph unicode="v" horiz-adv-x="1139" d="M731 0h-336l-387 1082h297l189 -605q15 -50 71 -250q10 41 41 144t230 711h294z" />
<glyph unicode="w" horiz-adv-x="1593" d="M1313 0h-297l-172 660q-12 45 -47 222l-52 -224l-174 -658h-297l-280 1082h264l178 -827l14 74l25 117l170 636h301l166 -636q14 -52 41 -191l28 132l156 695h260z" />
<glyph unicode="x" horiz-adv-x="1139" d="M819 0l-252 392l-254 -392h-299l396 559l-377 523h303l231 -354l230 354h305l-377 -520l399 -562h-305z" />
<glyph unicode="y" horiz-adv-x="1139" d="M283 -425q-101 0 -177 13v200q53 -8 97 -8q60 0 99.5 19t71 63t70.5 149l-428 1071h297l170 -507q40 -109 101 -334l25 95l65 235l160 511h294l-428 -1139q-86 -208 -178.5 -288t-238.5 -80z" />
<glyph unicode="z" horiz-adv-x="1024" d="M82 0v199l509 680h-468v203h778v-201l-506 -676h555v-205h-868z" />
<glyph unicode="{" horiz-adv-x="797" d="M557 -425q-134 0 -214.5 78.5t-80.5 220.5v328q0 114 -55 170.5t-174 58.5v195q121 5 175 61.5t54 169.5v328q0 146 78.5 222.5t216.5 76.5h197v-190h-58q-91 0 -131.5 -52t-40.5 -157v-301q0 -95 -57.5 -164t-149.5 -88v-4q95 -22 151 -90.5t56 -161.5v-301 q0 -106 40.5 -157.5t131.5 -51.5h58v-191h-197z" />
<glyph unicode="|" horiz-adv-x="573" d="M156 -455v1939h262v-1939h-262z" />
<glyph unicode="}" horiz-adv-x="797" d="M43 -234h57q93 0 132.5 51.5t39.5 157.5v301q0 92 56.5 161t150.5 91v4q-91 19 -149 87.5t-58 164.5v301q0 105 -39.5 157t-132.5 52h-57v190h197q138 0 216.5 -76.5t78.5 -222.5v-328q0 -112 55 -169t176 -62v-195q-121 -2 -176 -60t-55 -169v-328q0 -141 -80 -220 t-215 -79h-197v191z" />
<glyph unicode="~" horiz-adv-x="1196" d="M852 516q-75 0 -147.5 21t-147.5 47q-135 47 -221 47q-71 0 -130.5 -21.5t-124.5 -66.5v213q113 84 271 84q105 0 242 -47q132 -46 182 -58t95 -12q134 0 248 92v-219q-64 -44 -122.5 -62t-144.5 -18z" />
<glyph unicode="&#xa1;" horiz-adv-x="682" d="M200 812v270h288v-270h-288zM194 -327l32 981h230l32 -981h-294z" />
<glyph unicode="&#xa2;" horiz-adv-x="1139" d="M588 340q88 0 147.5 54.5t73.5 154.5l283 -12q-22 -153 -134 -254.5t-290 -122.5v-191h-162v189q-215 21 -335 157t-120 371q0 232 117.5 373t337.5 166v184h162v-184q169 -19 278 -112.5t137 -244.5l-282 -14q-15 91 -71 140.5t-144 49.5q-124 0 -188 -92t-64 -256 q0 -174 66.5 -265t187.5 -91z" />
<glyph unicode="&#xa3;" horiz-adv-x="1139" d="M1118 363q-31 -172 -136 -267.5t-256 -95.5h-694v205q102 58 139.5 130t37.5 177v92h-188v170h178v248q0 201 107 304.5t319 103.5q169 0 266 -69t141 -222l-233 -47q-21 77 -62 112t-107 35q-91 0 -131 -57.5t-40 -182.5v-225h286v-170h-286v-90q0 -103 -41 -176 t-141 -129h380q104 0 157.5 49.5t70.5 143.5z" />
<glyph unicode="&#xa4;" horiz-adv-x="1139" d="M134 684q0 120 60 221l-133 133l157 156l131 -133q101 59 220 59q121 0 219 -59l135 135l158 -158l-136 -135q60 -99 60 -219q0 -118 -58 -217l134 -133l-158 -160l-133 135q-100 -59 -221 -59q-122 0 -220 57l-135 -137l-157 158l135 137q-58 99 -58 219zM360 686 q0 -86 61 -147.5t148 -61.5q85 0 146.5 62t61.5 147q0 86 -61 147.5t-147 61.5t-147.5 -61t-61.5 -148z" />
<glyph unicode="&#xa5;" horiz-adv-x="1139" d="M766 691h276v-146h-338v-162h338v-147h-338v-236h-272v236h-336v147h336l2 162h-338v146h276l-364 718h289l270 -596l274 596h289z" />
<glyph unicode="&#xa6;" horiz-adv-x="573" d="M156 676v778h262v-778h-262zM156 -455v779h262v-779h-262z" />
<glyph unicode="&#xa7;" horiz-adv-x="1139" d="M575 1427q194 0 311.5 -70.5t144.5 -203.5l-239 -25q-13 62 -70 95.5t-147 33.5q-112 0 -164.5 -29.5t-52.5 -94.5q0 -41 27 -69.5t76.5 -50t180.5 -50.5q168 -38 248.5 -79t123 -102t42.5 -148q0 -93 -55 -164.5t-142 -98.5q181 -79 181 -256q0 -167 -125.5 -255.5 t-358.5 -88.5q-223 0 -343.5 69.5t-159.5 218.5l237 37q20 -80 81.5 -117.5t184.5 -37.5q122 0 185 32.5t63 112.5q0 48 -24 78t-75.5 52.5t-236.5 66.5q-206 49 -291.5 127t-85.5 190q0 93 55 157t158 99q-90 38 -139 106t-49 152q0 149 117.5 231t341.5 82zM818 600 q0 71 -59.5 109t-232.5 71q-193 -23 -193 -153q0 -41 27 -68.5t77 -48.5t186 -52q195 10 195 142z" />
<glyph unicode="&#xa8;" horiz-adv-x="682" d="M450 1199v219h217v-219h-217zM16 1199v219h214v-219h-214z" />
<glyph unicode="&#xa9;" horiz-adv-x="1509" d="M1478 707q0 -193 -96.5 -361.5t-265 -265t-361.5 -96.5q-197 0 -366.5 100.5t-263 267t-93.5 355.5q0 193 97 361t265 265t361 97q194 0 362.5 -97.5t264.5 -264.5t96 -361zM1366 707q0 163 -82 303.5t-224 222.5t-305 82q-157 0 -297 -78t-225.5 -219.5t-85.5 -310.5 q0 -163 81.5 -305t222 -224t304.5 -82t306 82t223.5 224t81.5 305zM544 709q0 -135 59 -209t165 -74q66 0 117 37t79 106l160 -47q-58 -125 -145 -181t-211 -56q-193 0 -298.5 111t-105.5 313q0 203 102 309t293 106q130 0 217.5 -56t135.5 -173l-156 -41q-26 61 -74.5 95 t-117.5 34q-109 0 -164.5 -70t-55.5 -204z" />
<glyph unicode="&#xaa;" horiz-adv-x="758" d="M257 725q-97 0 -154.5 52.5t-57.5 149.5q0 206 284 211l147 2v42q0 119 -104 119q-102 0 -112 -94l-190 9q18 98 96.5 150.5t204.5 52.5q138 0 212.5 -61t74.5 -174v-237q0 -48 9 -72.5t42 -24.5l49 5v-109q-65 -18 -119 -18q-71 0 -111.5 36.5t-45.5 97.5h-3 q-72 -137 -222 -137zM328 856q61 0 104.5 48t43.5 113v27l-92 -2q-88 -3 -119 -27t-31 -74q0 -85 94 -85z" />
<glyph unicode="&#xab;" horiz-adv-x="1139" d="M807 141l-256 361v71l256 367h238v-37l-254 -366l256 -361v-35h-240zM350 141l-258 361v71l258 367h236v-37l-254 -366l256 -361v-35h-238z" />
<glyph unicode="&#xac;" horiz-adv-x="1196" d="M887 141v428h-803v224h1027v-652h-224z" />
<glyph unicode="&#xad;" horiz-adv-x="682" d="M80 409v244h520v-244h-520z" />
<glyph unicode="&#xae;" horiz-adv-x="1509" d="M1478 707q0 -193 -96.5 -361.5t-265 -265t-361.5 -96.5q-197 0 -366.5 100.5t-263 267t-93.5 355.5q0 193 97 361t265 265t361 97q194 0 362.5 -97.5t264.5 -264.5t96 -361zM1366 707q0 163 -82 303.5t-224 222.5t-305 82q-157 0 -297 -78t-225.5 -219.5t-85.5 -310.5 q0 -163 81.5 -305t222 -224t304.5 -82t306 82t223.5 224t81.5 305zM923 297l-178 313h-117v-313h-178v815h330q153 0 229 -64.5t76 -177.5q0 -94 -48 -153t-126 -84l213 -336h-201zM905 868q0 57 -37.5 87t-106.5 30h-133v-246h144q66 0 99.5 35.5t33.5 93.5z" />
<glyph unicode="&#xaf;" horiz-adv-x="1131" d="M1148 1452h-1165v94h1165v-94z" />
<glyph unicode="&#xb0;" horiz-adv-x="819" d="M731 1110q0 -130 -93.5 -222.5t-227.5 -92.5q-132 0 -226 91t-94 224q0 86 42.5 159t116 114.5t161.5 41.5q135 0 228 -92.5t93 -222.5zM573 1110q0 70 -46.5 118t-116.5 48q-71 0 -118.5 -48.5t-47.5 -117.5t49 -118.5t117 -49.5q67 0 115 49t48 119z" />
<glyph unicode="&#xb1;" horiz-adv-x="1124" d="M674 707v-341h-224v341h-401v223h401v340h224v-340h402v-223h-402zM49 0v223h1027v-223h-1027z" />
<glyph unicode="&#xb2;" horiz-adv-x="682" d="M53 694l-2 121q29 61 82 113.5t144 111.5q87 56 119 92.5t32 75.5q0 91 -81 91q-85 0 -95 -98l-194 5q13 99 89 159.5t200 60.5q131 0 205 -55.5t74 -154.5q0 -125 -153 -223q-103 -66 -141.5 -97t-54.5 -64h362v-138h-586z" />
<glyph unicode="&#xb3;" horiz-adv-x="682" d="M638 895q0 -99 -75 -155t-213 -56q-135 0 -214 52t-92 156l189 12q10 -93 114 -93q102 0 102 96q0 93 -139 93h-56v126h51q63 0 95 23.5t32 66.5q0 39 -23 61t-66 22q-88 0 -98 -89l-186 12q11 94 87.5 149t201.5 55q128 0 199.5 -51.5t71.5 -136.5q0 -64 -36.5 -109.5 t-115.5 -61.5v-2q83 -9 127 -55t44 -115z" />
<glyph unicode="&#xb4;" horiz-adv-x="682" d="M87 1183v31l252 288h258v-43l-340 -276h-170z" />
<glyph unicode="&#xb5;" horiz-adv-x="1180" d="M789 0q-13 100 -13 144h-3q-33 -86 -78 -125t-124 -39q-52 0 -92.5 24t-63.5 66h-4q4 -43 4 -115v-381h-281v1508h281v-605q0 -150 42.5 -217t132.5 -67q89 0 133.5 76t44.5 235v578h281v-840q0 -130 8 -242h-268z" />
<glyph unicode="&#xb6;" horiz-adv-x="1139" d="M940 1266v-1530h-156v1530h-195v-1530h-155v958q-169 0 -266 92.5t-97 262.5q0 169 98.5 264.5t272.5 95.5h629v-143h-131z" />
<glyph unicode="&#xb7;" horiz-adv-x="682" d="M141 531v305h288v-305h-288z" />
<glyph unicode="&#xb8;" horiz-adv-x="682" d="M500 -235q0 -94 -78 -142t-225 -48q-45 0 -101 6v118q35 -7 84 -7q137 0 137 69q0 35 -28 52t-94 17q-38 0 -52 -2l62 172h143l-33 -82q94 -5 139.5 -46t45.5 -107z" />
<glyph unicode="&#xb9;" horiz-adv-x="682" d="M82 694v121h184v468l-173 -108v122l180 117h175v-599h170v-121h-536z" />
<glyph unicode="&#xba;" horiz-adv-x="748" d="M713 1073q0 -162 -89.5 -255t-248.5 -93q-152 0 -241 92t-89 256q0 162 88 254t246 92q160 0 247 -89t87 -257zM513 1073q0 106 -29.5 154.5t-102.5 48.5t-105.5 -49.5t-32.5 -153.5q0 -106 32 -157t99 -51q75 0 107 50.5t32 157.5z" />
<glyph unicode="&#xbb;" horiz-adv-x="1139" d="M93 141v35l256 361l-254 366v37h238l256 -367v-71l-256 -361h-240zM552 141v35l256 361l-254 366v37h236l258 -367v-71l-258 -361h-238z" />
<glyph unicode="&#xbc;" horiz-adv-x="1708" d="M94 694v121h184v468l-173 -108v122l180 117h175v-599h170v-121h-536zM544 0h-201l895 1409h201zM1508 141v-140h-183v140h-344v148l316 432h211v-440h103v-140h-103zM1329 583l-11 -19q-26 -47 -54 -89l-141 -194h202v194z" />
<glyph unicode="&#xbd;" horiz-adv-x="1708" d="M94 694v121h184v468l-173 -108v122l180 117h175v-599h170v-121h-536zM524 0h-201l895 1409h201zM1026 -1l-2 121q29 61 82 113.5t144 111.5q87 56 119 92.5t32 75.5q0 91 -81 91q-85 0 -95 -98l-194 5q13 99 89 159.5t200 60.5q131 0 205 -55.5t74 -154.5 q0 -125 -153 -223q-103 -66 -141.5 -97t-54.5 -64h362v-138h-586z" />
<glyph unicode="&#xbe;" horiz-adv-x="1708" d="M544 0h-201l895 1409h201zM1508 141v-140h-183v140h-344v148l316 432h211v-440h103v-140h-103zM1329 583l-11 -19q-26 -47 -54 -89l-141 -194h202v194zM697 895q0 -99 -75 -155t-213 -56q-135 0 -214 52t-92 156l189 12q10 -93 114 -93q102 0 102 96q0 93 -139 93h-56 v126h51q63 0 95 23.5t32 66.5q0 39 -23 61t-66 22q-88 0 -98 -89l-186 12q11 94 87.5 149t201.5 55q128 0 199.5 -51.5t71.5 -136.5q0 -64 -36.5 -109.5t-115.5 -61.5v-2q83 -9 127 -55t44 -115z" />
<glyph unicode="&#xbf;" horiz-adv-x="1251" d="M114 56q0 97 43.5 174t162.5 162l77 55q67 49 100.5 99t36.5 110h267q-6 -102 -58 -182.5t-151 -148.5q-107 -75 -151 -131t-44 -126q0 -88 57.5 -139t163.5 -51q101 0 169.5 59t80.5 156l285 -12q-27 -203 -167 -316t-364 -113q-237 0 -372.5 107.5t-135.5 296.5z M809 1082v-270h-289v270h289z" />
<glyph unicode="&#xc0;" horiz-adv-x="1479" d="M1133 0l-125 360h-537l-125 -360h-295l514 1409h348l512 -1409h-292zM739 1192l-6 -22q-10 -36 -24 -82t-172 -506h405l-139 405l-43 136zM769 1530l-340 242v43h258l251 -254v-31h-169z" />
<glyph unicode="&#xc1;" horiz-adv-x="1479" d="M1133 0l-125 360h-537l-125 -360h-295l514 1409h348l512 -1409h-292zM739 1192l-6 -22q-10 -36 -24 -82t-172 -506h405l-139 405l-43 136zM573 1530v31l252 254h258v-43l-340 -242h-170z" />
<glyph unicode="&#xc2;" horiz-adv-x="1479" d="M1133 0l-125 360h-537l-125 -360h-295l514 1409h348l512 -1409h-292zM739 1192l-6 -22q-10 -36 -24 -82t-172 -506h405l-139 405l-43 136zM1107 1559v-29h-159l-203 151h-4l-211 -151h-160v29l258 276h229z" />
<glyph unicode="&#xc3;" horiz-adv-x="1479" d="M1133 0l-125 360h-537l-125 -360h-295l514 1409h348l512 -1409h-292zM739 1192l-6 -22q-10 -36 -24 -82t-172 -506h405l-139 405l-43 136zM905 1530q-44 0 -88.5 19t-86.5 42.5t-79.5 42.5t-67.5 19q-41 0 -62.5 -23t-35.5 -100h-137q8 113 32.5 169.5t70.5 90t122 33.5 q45 0 90 -19t87 -42.5t78.5 -42.5t65.5 -19q40 0 62.5 24.5t36.5 98.5h135q-7 -157 -63.5 -225t-159.5 -68z" />
<glyph unicode="&#xc4;" horiz-adv-x="1479" d="M1133 0l-125 360h-537l-125 -360h-295l514 1409h348l512 -1409h-292zM739 1192l-6 -22q-10 -36 -24 -82t-172 -506h405l-139 405l-43 136zM868 1530v219h197v-219h-197zM414 1530v219h194v-219h-194z" />
<glyph unicode="&#xc5;" horiz-adv-x="1479" d="M1133 0l-125 360h-537l-125 -360h-295l514 1409h348l512 -1409h-292zM739 1192l-6 -22q-10 -36 -24 -82t-172 -506h405l-139 405l-43 136zM993 1552q0 -105 -73.5 -179.5t-180.5 -74.5t-180.5 74.5t-73.5 179.5t74.5 179.5t179.5 74.5t179.5 -74.5t74.5 -179.5zM866 1552 q0 51 -36.5 88t-90.5 37q-51 0 -88 -36t-37 -89q0 -56 37 -92t88 -36q53 0 90 37t37 91z" />
<glyph unicode="&#xc6;" horiz-adv-x="2048" d="M931 0v360h-450l-172 -360h-305l700 1409h1223v-227h-701v-355h639v-221h-639v-379h742v-227h-1037zM931 1192h-61q-49 -111 -287 -610h348v610z" />
<glyph unicode="&#xc7;" horiz-adv-x="1479" d="M795 212q267 0 371 268l257 -97q-83 -204 -243.5 -303.5t-384.5 -99.5q-340 0 -525.5 192.5t-185.5 538.5q0 347 179 533t519 186q248 0 404 -99.5t219 -292.5l-260 -71q-33 106 -129.5 168.5t-227.5 62.5q-200 0 -303.5 -124t-103.5 -363q0 -243 106.5 -371t307.5 -128z M989 -235q0 -94 -78 -142t-225 -48q-45 0 -101 6v118q35 -7 84 -7q137 0 137 69q0 35 -28 52t-94 17q-38 0 -52 -2l62 172h143l-33 -82q94 -5 139.5 -46t45.5 -107z" />
<glyph unicode="&#xc8;" horiz-adv-x="1366" d="M137 0v1409h1108v-228h-813v-354h752v-228h-752v-371h854v-228h-1149zM736 1530l-340 242v43h258l251 -254v-31h-169z" />
<glyph unicode="&#xc9;" horiz-adv-x="1366" d="M137 0v1409h1108v-228h-813v-354h752v-228h-752v-371h854v-228h-1149zM517 1530v31l252 254h258v-43l-340 -242h-170z" />
<glyph unicode="&#xca;" horiz-adv-x="1366" d="M137 0v1409h1108v-228h-813v-354h752v-228h-752v-371h854v-228h-1149zM1081 1559v-29h-159l-203 151h-4l-211 -151h-160v29l258 276h229z" />
<glyph unicode="&#xcb;" horiz-adv-x="1366" d="M137 0v1409h1108v-228h-813v-354h752v-228h-752v-371h854v-228h-1149zM840 1530v219h197v-219h-197zM386 1530v219h194v-219h-194z" />
<glyph unicode="&#xcc;" horiz-adv-x="569" d="M137 0v1409h295v-1409h-295zM300 1530l-340 242v43h258l251 -254v-31h-169z" />
<glyph unicode="&#xcd;" horiz-adv-x="569" d="M137 0v1409h295v-1409h-295zM104 1530v31l252 254h258v-43l-340 -242h-170z" />
<glyph unicode="&#xce;" horiz-adv-x="569" d="M137 0v1409h295v-1409h-295zM652 1559v-29h-159l-203 151h-4l-211 -151h-160v29l258 276h229z" />
<glyph unicode="&#xcf;" horiz-adv-x="569" d="M137 0v1409h295v-1409h-295zM413 1530v219h197v-219h-197zM-41 1530v219h194v-219h-194z" />
<glyph unicode="&#xd0;" horiz-adv-x="1479" d="M1393 715q0 -218 -85.5 -380.5t-242 -248.5t-358.5 -86h-570v594h-129v219h129v596h510q356 0 551 -179.5t195 -514.5zM1096 715q0 225 -117 344t-338 119h-209v-365h356v-219h-356v-363h250q191 0 302.5 129.5t111.5 354.5z" />
<glyph unicode="&#xd1;" horiz-adv-x="1479" d="M995 0l-614 1085q18 -158 18 -254v-831h-262v1409h337l623 -1094q-18 151 -18 275v819h262v-1409h-346zM906 1530q-44 0 -88.5 19t-86.5 42.5t-79.5 42.5t-67.5 19q-41 0 -62.5 -23t-35.5 -100h-137q8 113 32.5 169.5t70.5 90t122 33.5q45 0 90 -19t87 -42.5t78.5 -42.5 t65.5 -19q40 0 62.5 24.5t36.5 98.5h135q-7 -157 -63.5 -225t-159.5 -68z" />
<glyph unicode="&#xd2;" horiz-adv-x="1593" d="M1507 711q0 -220 -87 -387t-249 -255.5t-378 -88.5q-332 0 -520.5 195.5t-188.5 535.5q0 339 188 529t523 190t523.5 -192t188.5 -527zM1206 711q0 228 -108 357.5t-303 129.5q-198 0 -306 -128.5t-108 -358.5q0 -232 110.5 -365.5t301.5 -133.5q198 0 305.5 130 t107.5 369zM887 1530l-340 242v43h258l251 -254v-31h-169z" />
<glyph unicode="&#xd3;" horiz-adv-x="1593" d="M1507 711q0 -220 -87 -387t-249 -255.5t-378 -88.5q-332 0 -520.5 195.5t-188.5 535.5q0 339 188 529t523 190t523.5 -192t188.5 -527zM1206 711q0 228 -108 357.5t-303 129.5q-198 0 -306 -128.5t-108 -358.5q0 -232 110.5 -365.5t301.5 -133.5q198 0 305.5 130 t107.5 369zM625 1530v31l252 254h258v-43l-340 -242h-170z" />
<glyph unicode="&#xd4;" horiz-adv-x="1593" d="M1507 711q0 -220 -87 -387t-249 -255.5t-378 -88.5q-332 0 -520.5 195.5t-188.5 535.5q0 339 188 529t523 190t523.5 -192t188.5 -527zM1206 711q0 228 -108 357.5t-303 129.5q-198 0 -306 -128.5t-108 -358.5q0 -232 110.5 -365.5t301.5 -133.5q198 0 305.5 130 t107.5 369zM1163 1559v-29h-159l-203 151h-4l-211 -151h-160v29l258 276h229z" />
<glyph unicode="&#xd5;" horiz-adv-x="1593" d="M1507 711q0 -220 -87 -387t-249 -255.5t-378 -88.5q-332 0 -520.5 195.5t-188.5 535.5q0 339 188 529t523 190t523.5 -192t188.5 -527zM1206 711q0 228 -108 357.5t-303 129.5q-198 0 -306 -128.5t-108 -358.5q0 -232 110.5 -365.5t301.5 -133.5q198 0 305.5 130 t107.5 369zM954 1530q-44 0 -88.5 19t-86.5 42.5t-79.5 42.5t-67.5 19q-41 0 -62.5 -23t-35.5 -100h-137q8 113 32.5 169.5t70.5 90t122 33.5q45 0 90 -19t87 -42.5t78.5 -42.5t65.5 -19q40 0 62.5 24.5t36.5 98.5h135q-7 -157 -63.5 -225t-159.5 -68z" />
<glyph unicode="&#xd6;" horiz-adv-x="1593" d="M1507 711q0 -220 -87 -387t-249 -255.5t-378 -88.5q-332 0 -520.5 195.5t-188.5 535.5q0 339 188 529t523 190t523.5 -192t188.5 -527zM1206 711q0 228 -108 357.5t-303 129.5q-198 0 -306 -128.5t-108 -358.5q0 -232 110.5 -365.5t301.5 -133.5q198 0 305.5 130 t107.5 369zM923 1530v219h197v-219h-197zM469 1530v219h194v-219h-194z" />
<glyph unicode="&#xd7;" horiz-adv-x="1196" d="M86 326l356 358l-352 352l158 156l352 -350l352 352l158 -158l-352 -354l352 -350l-158 -160l-352 354l-356 -358z" />
<glyph unicode="&#xd8;" horiz-adv-x="1593" d="M147 -73l154 218q-217 197 -217 566q0 339 188 529t523 190q198 0 354 -74l82 117h193l-142 -203q112 -94 169 -236.5t57 -322.5q0 -220 -87 -387t-248.5 -255.5t-379.5 -88.5q-212 0 -360 77l-91 -129zM1207 711q0 203 -86 327l-541 -772q91 -55 213 -55 q199 0 306.5 130.5t107.5 369.5zM381 711q0 -205 84 -332l539 768q-92 51 -209 51q-198 0 -306 -128.5t-108 -358.5z" />
<glyph unicode="&#xd9;" horiz-adv-x="1479" d="M723 -20q-291 0 -445.5 142t-154.5 406v881h295v-858q0 -167 79.5 -253.5t233.5 -86.5q158 0 243 90.5t85 259.5v848h295v-866q0 -268 -165.5 -415.5t-465.5 -147.5zM756 1530l-340 242v43h258l251 -254v-31h-169z" />
<glyph unicode="&#xda;" horiz-adv-x="1479" d="M723 -20q-291 0 -445.5 142t-154.5 406v881h295v-858q0 -167 79.5 -253.5t233.5 -86.5q158 0 243 90.5t85 259.5v848h295v-866q0 -268 -165.5 -415.5t-465.5 -147.5zM592 1530v31l252 254h258v-43l-340 -242h-170z" />
<glyph unicode="&#xdb;" horiz-adv-x="1479" d="M723 -20q-291 0 -445.5 142t-154.5 406v881h295v-858q0 -167 79.5 -253.5t233.5 -86.5q158 0 243 90.5t85 259.5v848h295v-866q0 -268 -165.5 -415.5t-465.5 -147.5zM1105 1559v-29h-159l-203 151h-4l-211 -151h-160v29l258 276h229z" />
<glyph unicode="&#xdc;" horiz-adv-x="1479" d="M723 -20q-291 0 -445.5 142t-154.5 406v881h295v-858q0 -167 79.5 -253.5t233.5 -86.5q158 0 243 90.5t85 259.5v848h295v-866q0 -268 -165.5 -415.5t-465.5 -147.5zM867 1530v219h197v-219h-197zM413 1530v219h194v-219h-194z" />
<glyph unicode="&#xdd;" horiz-adv-x="1366" d="M831 578v-578h-294v578l-502 831h309l338 -596l342 596h309zM524 1530v31l252 254h258v-43l-340 -242h-170z" />
<glyph unicode="&#xde;" horiz-adv-x="1366" d="M1296 737q0 -134 -60.5 -237t-177 -160t-276.5 -57h-350v-283h-295v1409h295v-233h338q254 0 390 -113.5t136 -325.5zM999 733q0 110 -65.5 172t-196.5 62h-305v-475h313q121 0 187.5 63.5t66.5 177.5z" />
<glyph unicode="&#xdf;" horiz-adv-x="1251" d="M1193 312q0 -162 -100.5 -247t-286.5 -85q-146 0 -262 43v206q50 -23 117.5 -41t114.5 -18q81 0 118 34.5t37 91.5q0 52 -38 96.5t-131 105.5q-169 109 -169 262q0 54 27.5 101t84.5 97q61 54 86 94.5t25 85.5q0 65 -46.5 104t-134.5 39q-103 0 -157 -63.5t-54 -204.5 v-1013h-281v1007q0 234 127.5 355.5t367.5 121.5q206 0 325 -90t119 -245q0 -54 -16.5 -96.5t-41.5 -76.5t-54.5 -61t-54.5 -49.5t-41.5 -43t-16.5 -40.5q0 -25 20.5 -47.5t147.5 -116.5q168 -125 168 -306z" />
<glyph unicode="&#xe0;" horiz-adv-x="1139" d="M385 -20q-157 0 -245 85.5t-88 240.5q0 168 109.5 256t317.5 90l233 4v55q0 106 -37 157.5t-121 51.5q-78 0 -114.5 -35.5t-45.5 -117.5l-293 14q27 158 144.5 239.5t320.5 81.5q205 0 316 -101t111 -287v-394q0 -91 20.5 -125.5t68.5 -34.5q32 0 62 6v-152 q-25 -6 -45 -11t-40 -8t-42.5 -5t-52.5 -2q-106 0 -156.5 52t-60.5 153h-6q-118 -213 -356 -213zM712 501l-144 -2q-98 -4 -139 -21.5t-62.5 -53.5t-21.5 -96q0 -77 35.5 -114.5t94.5 -37.5q66 0 120.5 36t85.5 99.5t31 134.5v55zM580 1183l-340 276v43h258l251 -288v-31 h-169z" />
<glyph unicode="&#xe1;" horiz-adv-x="1139" d="M385 -20q-157 0 -245 85.5t-88 240.5q0 168 109.5 256t317.5 90l233 4v55q0 106 -37 157.5t-121 51.5q-78 0 -114.5 -35.5t-45.5 -117.5l-293 14q27 158 144.5 239.5t320.5 81.5q205 0 316 -101t111 -287v-394q0 -91 20.5 -125.5t68.5 -34.5q32 0 62 6v-152 q-25 -6 -45 -11t-40 -8t-42.5 -5t-52.5 -2q-106 0 -156.5 52t-60.5 153h-6q-118 -213 -356 -213zM712 501l-144 -2q-98 -4 -139 -21.5t-62.5 -53.5t-21.5 -96q0 -77 35.5 -114.5t94.5 -37.5q66 0 120.5 36t85.5 99.5t31 134.5v55zM375 1183v31l252 288h258v-43l-340 -276 h-170z" />
<glyph unicode="&#xe2;" horiz-adv-x="1139" d="M385 -20q-157 0 -245 85.5t-88 240.5q0 168 109.5 256t317.5 90l233 4v55q0 106 -37 157.5t-121 51.5q-78 0 -114.5 -35.5t-45.5 -117.5l-293 14q27 158 144.5 239.5t320.5 81.5q205 0 316 -101t111 -287v-394q0 -91 20.5 -125.5t68.5 -34.5q32 0 62 6v-152 q-25 -6 -45 -11t-40 -8t-42.5 -5t-52.5 -2q-106 0 -156.5 52t-60.5 153h-6q-118 -213 -356 -213zM712 501l-144 -2q-98 -4 -139 -21.5t-62.5 -53.5t-21.5 -96q0 -77 35.5 -114.5t94.5 -37.5q66 0 120.5 36t85.5 99.5t31 134.5v55zM936 1211v-28h-159l-203 192h-4l-211 -192 h-160v28l258 318h229z" />
<glyph unicode="&#xe3;" horiz-adv-x="1139" d="M385 -20q-157 0 -245 85.5t-88 240.5q0 168 109.5 256t317.5 90l233 4v55q0 106 -37 157.5t-121 51.5q-78 0 -114.5 -35.5t-45.5 -117.5l-293 14q27 158 144.5 239.5t320.5 81.5q205 0 316 -101t111 -287v-394q0 -91 20.5 -125.5t68.5 -34.5q32 0 62 6v-152 q-25 -6 -45 -11t-40 -8t-42.5 -5t-52.5 -2q-106 0 -156.5 52t-60.5 153h-6q-118 -213 -356 -213zM712 501l-144 -2q-98 -4 -139 -21.5t-62.5 -53.5t-21.5 -96q0 -77 35.5 -114.5t94.5 -37.5q66 0 120.5 36t85.5 99.5t31 134.5v55zM719 1183q-44 0 -88.5 19t-86.5 42.5 t-79.5 42.5t-67.5 19q-41 0 -62.5 -23t-35.5 -100h-137q8 113 32.5 169.5t70.5 90t122 33.5q45 0 90 -19t87 -42.5t78.5 -42.5t65.5 -19q40 0 62.5 24.5t36.5 98.5h135q-7 -157 -63.5 -225t-159.5 -68z" />
<glyph unicode="&#xe4;" horiz-adv-x="1139" d="M385 -20q-157 0 -245 85.5t-88 240.5q0 168 109.5 256t317.5 90l233 4v55q0 106 -37 157.5t-121 51.5q-78 0 -114.5 -35.5t-45.5 -117.5l-293 14q27 158 144.5 239.5t320.5 81.5q205 0 316 -101t111 -287v-394q0 -91 20.5 -125.5t68.5 -34.5q32 0 62 6v-152 q-25 -6 -45 -11t-40 -8t-42.5 -5t-52.5 -2q-106 0 -156.5 52t-60.5 153h-6q-118 -213 -356 -213zM712 501l-144 -2q-98 -4 -139 -21.5t-62.5 -53.5t-21.5 -96q0 -77 35.5 -114.5t94.5 -37.5q66 0 120.5 36t85.5 99.5t31 134.5v55zM665 1199v219h217v-219h-217zM231 1199v219 h214v-219h-214z" />
<glyph unicode="&#xe5;" horiz-adv-x="1139" d="M385 -20q-157 0 -245 85.5t-88 240.5q0 168 109.5 256t317.5 90l233 4v55q0 106 -37 157.5t-121 51.5q-78 0 -114.5 -35.5t-45.5 -117.5l-293 14q27 158 144.5 239.5t320.5 81.5q205 0 316 -101t111 -287v-394q0 -91 20.5 -125.5t68.5 -34.5q32 0 62 6v-152 q-25 -6 -45 -11t-40 -8t-42.5 -5t-52.5 -2q-106 0 -156.5 52t-60.5 153h-6q-118 -213 -356 -213zM712 501l-144 -2q-98 -4 -139 -21.5t-62.5 -53.5t-21.5 -96q0 -77 35.5 -114.5t94.5 -37.5q66 0 120.5 36t85.5 99.5t31 134.5v55zM813 1431q0 -105 -73.5 -179.5 t-180.5 -74.5t-180.5 74.5t-73.5 179.5t74.5 179.5t179.5 74.5t179.5 -74.5t74.5 -179.5zM686 1431q0 51 -36.5 88t-90.5 37q-51 0 -88 -36t-37 -89q0 -56 37 -92t88 -36q53 0 90 37t37 91z" />
<glyph unicode="&#xe6;" horiz-adv-x="1821" d="M1253 -20q-310 0 -434 229q-133 -229 -413 -229q-161 0 -250.5 86t-89.5 240q0 166 111 253.5t329 92.5l240 4v55q0 108 -40 158.5t-128 50.5q-85 0 -123 -37t-47 -116l-293 14q26 157 144.5 239t326.5 82q217 0 333 -107q130 107 338 107q233 0 356 -154.5t123 -452.5 v-19h-694q0 -146 59 -227t166 -81q149 0 188 129l265 -23q-115 -294 -467 -294zM496 176q69 0 127 39t90.5 104t32.5 137v45l-152 -2q-104 -4 -147 -21.5t-65.5 -53.5t-22.5 -96q0 -77 37.5 -114.5t99.5 -37.5zM1253 925q-99 0 -152.5 -69t-56.5 -193h420q-8 131 -63 196.5 t-148 65.5z" />
<glyph unicode="&#xe7;" horiz-adv-x="1139" d="M594 -20q-246 0 -380 146.5t-134 408.5q0 268 135 417.5t383 149.5q191 0 316 -96t157 -265l-283 -14q-12 83 -60 132.5t-136 49.5q-217 0 -217 -363q0 -374 221 -374q80 0 134 50.5t67 150.5l282 -13q-15 -111 -79.5 -198t-169.5 -134.5t-236 -47.5zM791 -235 q0 -94 -78 -142t-225 -48q-45 0 -101 6v118q35 -7 84 -7q137 0 137 69q0 35 -28 52t-94 17q-38 0 -52 -2l62 172h143l-33 -82q94 -5 139.5 -46t45.5 -107z" />
<glyph unicode="&#xe8;" horiz-adv-x="1139" d="M586 -20q-244 0 -375 144.5t-131 421.5q0 268 133 412t377 144q233 0 356 -154.5t123 -452.5v-8h-694q0 -158 58.5 -238.5t166.5 -80.5q149 0 188 129l265 -23q-115 -294 -467 -294zM586 925q-99 0 -152.5 -69t-56.5 -193h420q-8 131 -63 196.5t-148 65.5zM627 1183 l-340 276v43h258l251 -288v-31h-169z" />
<glyph unicode="&#xe9;" horiz-adv-x="1139" d="M586 -20q-244 0 -375 144.5t-131 421.5q0 268 133 412t377 144q233 0 356 -154.5t123 -452.5v-8h-694q0 -158 58.5 -238.5t166.5 -80.5q149 0 188 129l265 -23q-115 -294 -467 -294zM586 925q-99 0 -152.5 -69t-56.5 -193h420q-8 131 -63 196.5t-148 65.5zM418 1183v31 l252 288h258v-43l-340 -276h-170z" />
<glyph unicode="&#xea;" horiz-adv-x="1139" d="M586 -20q-244 0 -375 144.5t-131 421.5q0 268 133 412t377 144q233 0 356 -154.5t123 -452.5v-8h-694q0 -158 58.5 -238.5t166.5 -80.5q149 0 188 129l265 -23q-115 -294 -467 -294zM586 925q-99 0 -152.5 -69t-56.5 -193h420q-8 131 -63 196.5t-148 65.5zM960 1211v-28 h-159l-203 192h-4l-211 -192h-160v28l258 318h229z" />
<glyph unicode="&#xeb;" horiz-adv-x="1139" d="M586 -20q-244 0 -375 144.5t-131 421.5q0 268 133 412t377 144q233 0 356 -154.5t123 -452.5v-8h-694q0 -158 58.5 -238.5t166.5 -80.5q149 0 188 129l265 -23q-115 -294 -467 -294zM586 925q-99 0 -152.5 -69t-56.5 -193h420q-8 131 -63 196.5t-148 65.5zM694 1199v219 h217v-219h-217zM260 1199v219h214v-219h-214z" />
<glyph unicode="&#xec;" horiz-adv-x="569" d="M145 0v1082h281v-1082h-281zM276 1183l-340 276v43h258l251 -288v-31h-169z" />
<glyph unicode="&#xed;" horiz-adv-x="569" d="M145 0v1082h281v-1082h-281zM114 1183v31l252 288h258v-43l-340 -276h-170z" />
<glyph unicode="&#xee;" horiz-adv-x="569" d="M145 0v1082h281v-1082h-281zM654 1211v-28h-159l-203 192h-4l-211 -192h-160v28l258 318h229z" />
<glyph unicode="&#xef;" horiz-adv-x="569" d="M145 0v1082h281v-1082h-281zM394 1199v219h217v-219h-217zM-40 1199v219h214v-219h-214z" />
<glyph unicode="&#xf0;" horiz-adv-x="1251" d="M856 1266q315 -320 315 -725v-4q0 -261 -144.5 -408t-403.5 -147q-251 0 -397 133t-146 364q0 232 144.5 363t402.5 131q105 0 163 -32q-64 136 -150 235l-292 -122v184l166 70q-88 71 -258 176h293q96 -48 160 -94l268 113v-188zM877 477q0 160 -63 231.5t-183 71.5 q-256 0 -256 -303q0 -148 62 -226.5t181 -78.5q125 0 192 72t67 233z" />
<glyph unicode="&#xf1;" horiz-adv-x="1251" d="M844 0v607q0 285 -193 285q-102 0 -164.5 -87.5t-62.5 -224.5v-580h-281v840q0 87 -2.5 142.5t-5.5 99.5h268q3 -19 8 -101.5t5 -113.5h4q57 124 143 180t205 56q172 0 264 -106t92 -310v-687h-280zM809 1183q-44 0 -88.5 19t-86.5 42.5t-79.5 42.5t-67.5 19 q-41 0 -62.5 -23t-35.5 -100h-137q8 113 32.5 169.5t70.5 90t122 33.5q45 0 90 -19t87 -42.5t78.5 -42.5t65.5 -19q40 0 62.5 24.5t36.5 98.5h135q-7 -157 -63.5 -225t-159.5 -68z" />
<glyph unicode="&#xf2;" horiz-adv-x="1251" d="M1171 542q0 -263 -146 -412.5t-404 -149.5q-253 0 -397 150t-144 412q0 261 144 410.5t403 149.5q265 0 404.5 -144.5t139.5 -415.5zM877 542q0 193 -63 280t-183 87q-256 0 -256 -367q0 -181 62.5 -275.5t180.5 -94.5q259 0 259 370zM668 1183l-340 276v43h258l251 -288 v-31h-169z" />
<glyph unicode="&#xf3;" horiz-adv-x="1251" d="M1171 542q0 -263 -146 -412.5t-404 -149.5q-253 0 -397 150t-144 412q0 261 144 410.5t403 149.5q265 0 404.5 -144.5t139.5 -415.5zM877 542q0 193 -63 280t-183 87q-256 0 -256 -367q0 -181 62.5 -275.5t180.5 -94.5q259 0 259 370zM465 1183v31l252 288h258v-43 l-340 -276h-170z" />
<glyph unicode="&#xf4;" horiz-adv-x="1251" d="M1171 542q0 -263 -146 -412.5t-404 -149.5q-253 0 -397 150t-144 412q0 261 144 410.5t403 149.5q265 0 404.5 -144.5t139.5 -415.5zM877 542q0 193 -63 280t-183 87q-256 0 -256 -367q0 -181 62.5 -275.5t180.5 -94.5q259 0 259 370zM993 1211v-28h-159l-203 192h-4 l-211 -192h-160v28l258 318h229z" />
<glyph unicode="&#xf5;" horiz-adv-x="1251" d="M1171 542q0 -263 -146 -412.5t-404 -149.5q-253 0 -397 150t-144 412q0 261 144 410.5t403 149.5q265 0 404.5 -144.5t139.5 -415.5zM877 542q0 193 -63 280t-183 87q-256 0 -256 -367q0 -181 62.5 -275.5t180.5 -94.5q259 0 259 370zM791 1183q-44 0 -88.5 19 t-86.5 42.5t-79.5 42.5t-67.5 19q-41 0 -62.5 -23t-35.5 -100h-137q8 113 32.5 169.5t70.5 90t122 33.5q45 0 90 -19t87 -42.5t78.5 -42.5t65.5 -19q40 0 62.5 24.5t36.5 98.5h135q-7 -157 -63.5 -225t-159.5 -68z" />
<glyph unicode="&#xf6;" horiz-adv-x="1251" d="M1171 542q0 -263 -146 -412.5t-404 -149.5q-253 0 -397 150t-144 412q0 261 144 410.5t403 149.5q265 0 404.5 -144.5t139.5 -415.5zM877 542q0 193 -63 280t-183 87q-256 0 -256 -367q0 -181 62.5 -275.5t180.5 -94.5q259 0 259 370zM734 1199v219h217v-219h-217z M300 1199v219h214v-219h-214z" />
<glyph unicode="&#xf7;" horiz-adv-x="1124" d="M442 961v233h238v-233h-238zM49 569v224h1027v-224h-1027zM442 170v233h238v-233h-238z" />
<glyph unicode="&#xf8;" horiz-adv-x="1251" d="M1171 542q0 -263 -146 -412.5t-404 -149.5q-192 0 -324 89l-113 -124h-183l197 215q-118 146 -118 382q0 261 144 410.5t403 149.5q199 0 330 -83l101 114h184l-184 -206q113 -142 113 -385zM375 542q0 -92 17 -163l407 461q-60 69 -168 69q-256 0 -256 -367zM877 542 q0 94 -16 162l-407 -460q62 -72 164 -72q259 0 259 370z" />
<glyph unicode="&#xf9;" horiz-adv-x="1251" d="M408 1082v-607q0 -285 192 -285q102 0 164.5 87.5t62.5 224.5v580h281v-840q0 -138 8 -242h-268q-12 144 -12 215h-5q-56 -123 -142.5 -179t-205.5 -56q-172 0 -264 105.5t-92 309.5v687h281zM623 1183l-340 276v43h258l251 -288v-31h-169z" />
<glyph unicode="&#xfa;" horiz-adv-x="1251" d="M408 1082v-607q0 -285 192 -285q102 0 164.5 87.5t62.5 224.5v580h281v-840q0 -138 8 -242h-268q-12 144 -12 215h-5q-56 -123 -142.5 -179t-205.5 -56q-172 0 -264 105.5t-92 309.5v687h281zM463 1183v31l252 288h258v-43l-340 -276h-170z" />
<glyph unicode="&#xfb;" horiz-adv-x="1251" d="M408 1082v-607q0 -285 192 -285q102 0 164.5 87.5t62.5 224.5v580h281v-840q0 -138 8 -242h-268q-12 144 -12 215h-5q-56 -123 -142.5 -179t-205.5 -56q-172 0 -264 105.5t-92 309.5v687h281zM989 1211v-28h-159l-203 192h-4l-211 -192h-160v28l258 318h229z" />
<glyph unicode="&#xfc;" horiz-adv-x="1251" d="M408 1082v-607q0 -285 192 -285q102 0 164.5 87.5t62.5 224.5v580h281v-840q0 -138 8 -242h-268q-12 144 -12 215h-5q-56 -123 -142.5 -179t-205.5 -56q-172 0 -264 105.5t-92 309.5v687h281zM732 1199v219h217v-219h-217zM298 1199v219h214v-219h-214z" />
<glyph unicode="&#xfd;" horiz-adv-x="1139" d="M283 -425q-101 0 -177 13v200q53 -8 97 -8q60 0 99.5 19t71 63t70.5 149l-428 1071h297l170 -507q40 -109 101 -334l25 95l65 235l160 511h294l-428 -1139q-86 -208 -178.5 -288t-238.5 -80zM413 1183v31l252 288h258v-43l-340 -276h-170z" />
<glyph unicode="&#xfe;" horiz-adv-x="1251" d="M143 1484h281v-462l-4 -168h4q95 199 346 199q191 0 294 -140.5t103 -392.5q0 -257 -108.5 -398.5t-306.5 -141.5q-114 0 -198.5 49.5t-129.5 142.5h-6q6 -30 6 -182v-415h-281v1909zM874 520q0 172 -55.5 255t-167.5 83q-113 0 -172 -91.5t-59 -254.5t59.5 -251.5 t169.5 -88.5q225 0 225 348z" />
<glyph unicode="&#xff;" horiz-adv-x="1139" d="M283 -425q-101 0 -177 13v200q53 -8 97 -8q60 0 99.5 19t71 63t70.5 149l-428 1071h297l170 -507q40 -109 101 -334l25 95l65 235l160 511h294l-428 -1139q-86 -208 -178.5 -288t-238.5 -80zM691 1199v219h217v-219h-217zM257 1199v219h214v-219h-214z" />
<glyph unicode="&#x100;" horiz-adv-x="1479" d="M1133 0l-125 360h-537l-125 -360h-295l514 1409h348l512 -1409h-292zM739 1192l-6 -22q-10 -36 -24 -82t-172 -506h405l-139 405l-43 136zM432 1705h612v-168h-612v168z" />
<glyph unicode="&#x101;" horiz-adv-x="1139" d="M393 -20q-157 0 -245 85.5t-88 240.5q0 168 109.5 256t317.5 90l233 4v55q0 106 -37 157.5t-121 51.5q-78 0 -114.5 -35.5t-45.5 -117.5l-293 14q27 158 144.5 239.5t320.5 81.5q205 0 316 -101t111 -287v-394q0 -91 20.5 -125.5t68.5 -34.5q32 0 62 6v-152 q-25 -6 -45 -11t-40 -8t-42.5 -5t-52.5 -2q-106 0 -156.5 52t-60.5 153h-6q-118 -213 -356 -213zM720 501l-144 -2q-98 -4 -139 -21.5t-62.5 -53.5t-21.5 -96q0 -77 35.5 -114.5t94.5 -37.5q66 0 120.5 36t85.5 99.5t31 134.5v55zM279 1371h612v-168h-612v168z" />
<glyph unicode="&#x102;" horiz-adv-x="1479" d="M1133 0l-125 360h-537l-125 -360h-295l514 1409h348l512 -1409h-292zM739 1192l-6 -22q-10 -36 -24 -82t-172 -506h405l-139 405l-43 136zM737 1520q-145 0 -243 81t-109 207h163q15 -62 68 -99t123 -37q72 0 124 36.5t66 99.5h164q-19 -133 -114.5 -210.5t-241.5 -77.5z " />
<glyph unicode="&#x103;" horiz-adv-x="1139" d="M393 -20q-157 0 -245 85.5t-88 240.5q0 168 109.5 256t317.5 90l233 4v55q0 106 -37 157.5t-121 51.5q-78 0 -114.5 -35.5t-45.5 -117.5l-293 14q27 158 144.5 239.5t320.5 81.5q205 0 316 -101t111 -287v-394q0 -91 20.5 -125.5t68.5 -34.5q32 0 62 6v-152 q-25 -6 -45 -11t-40 -8t-42.5 -5t-52.5 -2q-106 0 -156.5 52t-60.5 153h-6q-118 -213 -356 -213zM720 501l-144 -2q-98 -4 -139 -21.5t-62.5 -53.5t-21.5 -96q0 -77 35.5 -114.5t94.5 -37.5q66 0 120.5 36t85.5 99.5t31 134.5v55zM578 1183q-151 0 -246 91t-106 232h163 q16 -77 68 -121.5t123 -44.5t123.5 43.5t66.5 122.5h164q-18 -148 -110.5 -235.5t-245.5 -87.5z" />
<glyph unicode="&#x104;" horiz-adv-x="1479" d="M1133 0l-125 360h-537l-125 -360h-295l514 1409h348l512 -1409h-292zM739 1192l-6 -22q-10 -36 -24 -82t-172 -506h405l-139 405l-43 136zM1262 -414q-111 0 -174 54t-63 146q0 75 43.5 142t114.5 104h153q-63 -42 -96 -99.5t-33 -110.5q0 -42 24.5 -67.5t69.5 -25.5 q54 0 112 27v-137q-63 -33 -151 -33z" />
<glyph unicode="&#x105;" horiz-adv-x="1139" d="M393 -20q-157 0 -245 85.5t-88 240.5q0 168 109.5 256t317.5 90l233 4v55q0 106 -37 157.5t-121 51.5q-78 0 -114.5 -35.5t-45.5 -117.5l-293 14q27 158 144.5 239.5t320.5 81.5q205 0 316 -101t111 -287v-394q0 -91 20.5 -125.5t68.5 -34.5q32 0 62 6v-152 q-25 -6 -45 -11t-40 -8t-42.5 -5t-52.5 -2q-106 0 -156.5 52t-60.5 153h-6q-118 -213 -356 -213zM720 501l-144 -2q-98 -4 -139 -21.5t-62.5 -53.5t-21.5 -96q0 -77 35.5 -114.5t94.5 -37.5q66 0 120.5 36t85.5 99.5t31 134.5v55zM922 -425q-111 0 -174 54t-63 146 q0 75 43.5 142t114.5 104h153q-63 -42 -96 -99.5t-33 -110.5q0 -42 24.5 -67.5t69.5 -25.5q54 0 112 27v-137q-63 -33 -151 -33z" />
<glyph unicode="&#x106;" horiz-adv-x="1479" d="M795 212q267 0 371 268l257 -97q-83 -204 -243.5 -303.5t-384.5 -99.5q-340 0 -525.5 192.5t-185.5 538.5q0 347 179 533t519 186q248 0 404 -99.5t219 -292.5l-260 -71q-33 106 -129.5 168.5t-227.5 62.5q-200 0 -303.5 -124t-103.5 -363q0 -243 106.5 -371t307.5 -128z M652 1530v31l252 254h258v-43l-340 -242h-170z" />
<glyph unicode="&#x107;" horiz-adv-x="1139" d="M594 -20q-246 0 -380 146.5t-134 408.5q0 268 135 417.5t383 149.5q191 0 316 -96t157 -265l-283 -14q-12 83 -60 132.5t-136 49.5q-217 0 -217 -363q0 -374 221 -374q80 0 134 50.5t67 150.5l282 -13q-15 -111 -79.5 -198t-169.5 -134.5t-236 -47.5zM446 1183v31 l252 288h258v-43l-340 -276h-170z" />
<glyph unicode="&#x108;" horiz-adv-x="1479" d="M795 212q267 0 371 268l257 -97q-83 -204 -243.5 -303.5t-384.5 -99.5q-340 0 -525.5 192.5t-185.5 538.5q0 347 179 533t519 186q248 0 404 -99.5t219 -292.5l-260 -71q-33 106 -129.5 168.5t-227.5 62.5q-200 0 -303.5 -124t-103.5 -363q0 -243 106.5 -371t307.5 -128z M1170 1559v-29h-159l-203 151h-4l-211 -151h-160v29l258 276h229z" />
<glyph unicode="&#x109;" horiz-adv-x="1139" d="M594 -20q-246 0 -380 146.5t-134 408.5q0 268 135 417.5t383 149.5q191 0 316 -96t157 -265l-283 -14q-12 83 -60 132.5t-136 49.5q-217 0 -217 -363q0 -374 221 -374q80 0 134 50.5t67 150.5l282 -13q-15 -111 -79.5 -198t-169.5 -134.5t-236 -47.5zM967 1211v-28h-159 l-203 192h-4l-211 -192h-160v28l258 318h229z" />
<glyph unicode="&#x10a;" horiz-adv-x="1479" d="M795 212q267 0 371 268l257 -97q-83 -204 -243.5 -303.5t-384.5 -99.5q-340 0 -525.5 192.5t-185.5 538.5q0 347 179 533t519 186q248 0 404 -99.5t219 -292.5l-260 -71q-33 106 -129.5 168.5t-227.5 62.5q-200 0 -303.5 -124t-103.5 -363q0 -243 106.5 -371t307.5 -128z M646 1547v207h281v-207h-281z" />
<glyph unicode="&#x10b;" horiz-adv-x="1139" d="M594 -20q-246 0 -380 146.5t-134 408.5q0 268 135 417.5t383 149.5q191 0 316 -96t157 -265l-283 -14q-12 83 -60 132.5t-136 49.5q-217 0 -217 -363q0 -374 221 -374q80 0 134 50.5t67 150.5l282 -13q-15 -111 -79.5 -198t-169.5 -134.5t-236 -47.5zM460 1277v207h281 v-207h-281z" />
<glyph unicode="&#x10c;" horiz-adv-x="1479" d="M795 212q267 0 371 268l257 -97q-83 -204 -243.5 -303.5t-384.5 -99.5q-340 0 -525.5 192.5t-185.5 538.5q0 347 179 533t519 186q248 0 404 -99.5t219 -292.5l-260 -71q-33 106 -129.5 168.5t-227.5 62.5q-200 0 -303.5 -124t-103.5 -363q0 -243 106.5 -371t307.5 -128z M900 1530h-229l-258 276v29h160l211 -152h4l203 152h159v-29z" />
<glyph unicode="&#x10d;" horiz-adv-x="1139" d="M594 -20q-246 0 -380 146.5t-134 408.5q0 268 135 417.5t383 149.5q191 0 316 -96t157 -265l-283 -14q-12 83 -60 132.5t-136 49.5q-217 0 -217 -363q0 -374 221 -374q80 0 134 50.5t67 150.5l282 -13q-15 -111 -79.5 -198t-169.5 -134.5t-236 -47.5zM701 1183h-229 l-258 317v29h160l211 -193h4l203 193h159v-29z" />
<glyph unicode="&#x10e;" horiz-adv-x="1479" d="M1393 715q0 -218 -85.5 -380.5t-242 -248.5t-358.5 -86h-570v1409h510q356 0 551 -179.5t195 -514.5zM1096 715q0 227 -118 346.5t-337 119.5h-209v-953h250q190 0 302 131t112 356zM818 1530h-229l-258 276v29h160l211 -152h4l203 152h159v-29z" />
<glyph unicode="&#x10f;" horiz-adv-x="1472" d="M844 0q-4 15 -9.5 75.5t-5.5 100.5h-4q-91 -196 -346 -196q-189 0 -292 147.5t-103 412.5q0 269 108.5 415.5t307.5 146.5q115 0 198.5 -48t128.5 -143h2l-2 178v395h281v-1248q0 -100 8 -236h-272zM831 547q0 175 -58.5 269.5t-172.5 94.5q-113 0 -168 -91.5t-55 -279.5 q0 -368 221 -368q111 0 172 97.5t61 277.5zM1473 1338q0 -73 -21.5 -132t-72.5 -119h-137q94 100 94 190h-108v207h245v-146z" />
<glyph unicode="&#x110;" horiz-adv-x="1479" d="M1393 715q0 -218 -85.5 -380.5t-242 -248.5t-358.5 -86h-570v594h-129v219h129v596h510q356 0 551 -179.5t195 -514.5zM1096 715q0 225 -117 344t-338 119h-209v-365h356v-219h-356v-363h250q191 0 302.5 129.5t111.5 354.5z" />
<glyph unicode="&#x111;" horiz-adv-x="1251" d="M827 1345v139h282v-139h132v-170h-132v-939q0 -100 8 -236h-272q-4 15 -9.5 75.5t-5.5 100.5h-4q-91 -196 -347 -196q-188 0 -291.5 141.5t-103.5 399.5q0 260 108 400.5t308 140.5q115 0 198.5 -48t128.5 -143h2l-2 178v126h-286v170h286zM831 529q0 167 -58 256 t-173 89q-113 0 -168 -85t-55 -267q0 -350 221 -350q113 0 173 93.5t60 263.5z" />
<glyph unicode="&#x112;" horiz-adv-x="1366" d="M137 0v1409h1108v-228h-813v-354h752v-228h-752v-371h854v-228h-1149zM386 1705h612v-168h-612v168z" />
<glyph unicode="&#x113;" horiz-adv-x="1139" d="M586 -20q-244 0 -375 144.5t-131 421.5q0 268 133 412t377 144q233 0 356 -154.5t123 -452.5v-8h-694q0 -158 58.5 -238.5t166.5 -80.5q149 0 188 129l265 -23q-115 -294 -467 -294zM586 925q-99 0 -152.5 -69t-56.5 -193h420q-8 131 -63 196.5t-148 65.5zM281 1371h612 v-168h-612v168z" />
<glyph unicode="&#x114;" horiz-adv-x="1366" d="M137 0v1409h1108v-228h-813v-354h752v-228h-752v-371h854v-228h-1149zM700 1520q-145 0 -243 81t-109 207h163q15 -62 68 -99t123 -37q72 0 124 36.5t66 99.5h164q-19 -133 -114.5 -210.5t-241.5 -77.5z" />
<glyph unicode="&#x115;" horiz-adv-x="1139" d="M586 -20q-244 0 -375 144.5t-131 421.5q0 268 133 412t377 144q233 0 356 -154.5t123 -452.5v-8h-694q0 -158 58.5 -238.5t166.5 -80.5q149 0 188 129l265 -23q-115 -294 -467 -294zM586 925q-99 0 -152.5 -69t-56.5 -193h420q-8 131 -63 196.5t-148 65.5zM567 1183 q-151 0 -246 91t-106 232h163q16 -77 68 -121.5t123 -44.5t123.5 43.5t66.5 122.5h164q-18 -148 -110.5 -235.5t-245.5 -87.5z" />
<glyph unicode="&#x116;" horiz-adv-x="1366" d="M137 0v1409h1108v-228h-813v-354h752v-228h-752v-371h854v-228h-1149zM565 1547v207h281v-207h-281z" />
<glyph unicode="&#x117;" horiz-adv-x="1139" d="M586 -20q-244 0 -375 144.5t-131 421.5q0 268 133 412t377 144q233 0 356 -154.5t123 -452.5v-8h-694q0 -158 58.5 -238.5t166.5 -80.5q149 0 188 129l265 -23q-115 -294 -467 -294zM586 925q-99 0 -152.5 -69t-56.5 -193h420q-8 131 -63 196.5t-148 65.5zM441 1277v207 h281v-207h-281z" />
<glyph unicode="&#x118;" horiz-adv-x="1366" d="M137 0v1409h1108v-228h-813v-354h752v-228h-752v-371h854v-228h-1149zM1062 -425q-111 0 -174 54t-63 146q0 75 43.5 142t114.5 104h153q-63 -42 -96 -99.5t-33 -110.5q0 -42 24.5 -67.5t69.5 -25.5q54 0 112 27v-137q-63 -33 -151 -33z" />
<glyph unicode="&#x119;" horiz-adv-x="1139" d="M586 -20q-244 0 -375 144.5t-131 421.5q0 268 133 412t377 144q233 0 356 -154.5t123 -452.5v-8h-694q0 -158 58.5 -238.5t166.5 -80.5q149 0 188 129l265 -23q-115 -294 -467 -294zM586 925q-99 0 -152.5 -69t-56.5 -193h420q-8 131 -63 196.5t-148 65.5zM776 -408 q-111 0 -174 54t-63 146q0 75 43.5 142t114.5 104h153q-63 -42 -96 -99.5t-33 -110.5q0 -42 24.5 -67.5t69.5 -25.5q54 0 112 27v-137q-63 -33 -151 -33z" />
<glyph unicode="&#x11a;" horiz-adv-x="1366" d="M137 0v1409h1108v-228h-813v-354h752v-228h-752v-371h854v-228h-1149zM827 1530h-229l-258 276v29h160l211 -152h4l203 152h159v-29z" />
<glyph unicode="&#x11b;" horiz-adv-x="1139" d="M586 -20q-244 0 -375 144.5t-131 421.5q0 268 133 412t377 144q233 0 356 -154.5t123 -452.5v-8h-694q0 -158 58.5 -238.5t166.5 -80.5q149 0 188 129l265 -23q-115 -294 -467 -294zM586 925q-99 0 -152.5 -69t-56.5 -193h420q-8 131 -63 196.5t-148 65.5zM703 1183h-229 l-258 317v29h160l211 -193h4l203 193h159v-29z" />
<glyph unicode="&#x11c;" horiz-adv-x="1593" d="M806 211q115 0 223 33.5t167 85.5v195h-344v218h614v-518q-112 -115 -291.5 -180t-376.5 -65q-344 0 -529 190.5t-185 540.5q0 348 186 533.5t535 185.5q496 0 631 -367l-272 -82q-44 107 -138 162t-221 55q-208 0 -316 -126t-108 -361q0 -239 111.5 -369.5t313.5 -130.5 zM1165 1559v-29h-159l-203 151h-4l-211 -151h-160v29l258 276h229z" />
<glyph unicode="&#x11d;" horiz-adv-x="1251" d="M596 -434q-198 0 -318.5 75.5t-148.5 215.5l281 33q15 -65 64.5 -102t129.5 -37q117 0 171 72t54 214v57l2 107h-2q-93 -199 -348 -199q-189 0 -293 142t-104 406q0 265 107 409t311 144q236 0 327 -195h5q0 35 4.5 95t9.5 79h266q-6 -108 -6 -250v-799q0 -231 -131 -349 t-381 -118zM831 556q0 167 -59.5 260.5t-169.5 93.5q-225 0 -225 -360q0 -353 223 -353q112 0 171.5 93.5t59.5 265.5zM970 1211v-28h-159l-203 192h-4l-211 -192h-160v28l258 318h229z" />
<glyph unicode="&#x11e;" horiz-adv-x="1593" d="M806 211q115 0 223 33.5t167 85.5v195h-344v218h614v-518q-112 -115 -291.5 -180t-376.5 -65q-344 0 -529 190.5t-185 540.5q0 348 186 533.5t535 185.5q496 0 631 -367l-272 -82q-44 107 -138 162t-221 55q-208 0 -316 -126t-108 -361q0 -239 111.5 -369.5t313.5 -130.5 zM808 1520q-145 0 -243 81t-109 207h163q15 -62 68 -99t123 -37q72 0 124 36.5t66 99.5h164q-19 -133 -114.5 -210.5t-241.5 -77.5z" />
<glyph unicode="&#x11f;" horiz-adv-x="1251" d="M596 -434q-198 0 -318.5 75.5t-148.5 215.5l281 33q15 -65 64.5 -102t129.5 -37q117 0 171 72t54 214v57l2 107h-2q-93 -199 -348 -199q-189 0 -293 142t-104 406q0 265 107 409t311 144q236 0 327 -195h5q0 35 4.5 95t9.5 79h266q-6 -108 -6 -250v-799q0 -231 -131 -349 t-381 -118zM831 556q0 167 -59.5 260.5t-169.5 93.5q-225 0 -225 -360q0 -353 223 -353q112 0 171.5 93.5t59.5 265.5zM605 1183q-151 0 -246 91t-106 232h163q16 -77 68 -121.5t123 -44.5t123.5 43.5t66.5 122.5h164q-18 -148 -110.5 -235.5t-245.5 -87.5z" />
<glyph unicode="&#x120;" horiz-adv-x="1593" d="M806 211q115 0 223 33.5t167 85.5v195h-344v218h614v-518q-112 -115 -291.5 -180t-376.5 -65q-344 0 -529 190.5t-185 540.5q0 348 186 533.5t535 185.5q496 0 631 -367l-272 -82q-44 107 -138 162t-221 55q-208 0 -316 -126t-108 -361q0 -239 111.5 -369.5t313.5 -130.5 zM667 1547v207h281v-207h-281z" />
<glyph unicode="&#x121;" horiz-adv-x="1251" d="M596 -434q-198 0 -318.5 75.5t-148.5 215.5l281 33q15 -65 64.5 -102t129.5 -37q117 0 171 72t54 214v57l2 107h-2q-93 -199 -348 -199q-189 0 -293 142t-104 406q0 265 107 409t311 144q236 0 327 -195h5q0 35 4.5 95t9.5 79h266q-6 -108 -6 -250v-799q0 -231 -131 -349 t-381 -118zM831 556q0 167 -59.5 260.5t-169.5 93.5q-225 0 -225 -360q0 -353 223 -353q112 0 171.5 93.5t59.5 265.5zM485 1277v207h281v-207h-281z" />
<glyph unicode="&#x122;" horiz-adv-x="1593" d="M806 211q115 0 223 33.5t167 85.5v195h-344v218h614v-518q-112 -115 -291.5 -180t-376.5 -65q-344 0 -529 190.5t-185 540.5q0 348 186 533.5t535 185.5q496 0 631 -367l-272 -82q-44 107 -138 162t-221 55q-208 0 -316 -126t-108 -361q0 -239 111.5 -369.5t313.5 -130.5 zM938 -204q0 -73 -21.5 -131.5t-72.5 -119.5h-137q94 100 94 170h-108v207h245v-126z" />
<glyph unicode="&#x123;" horiz-adv-x="1251" d="M596 -434q-198 0 -318.5 75.5t-148.5 215.5l281 33q15 -65 64.5 -102t129.5 -37q117 0 171 72t54 214v57l2 107h-2q-93 -199 -348 -199q-189 0 -293 142t-104 406q0 265 107 409t311 144q236 0 327 -195h5q0 35 4.5 95t9.5 79h266q-6 -108 -6 -250v-799q0 -231 -131 -349 t-381 -118zM831 556q0 167 -59.5 260.5t-169.5 93.5q-225 0 -225 -360q0 -353 223 -353q112 0 171.5 93.5t59.5 265.5zM496 1358q0 87 22 145.5t62 105.5h147q-94 -100 -94 -190h108v-207h-245v146z" />
<glyph unicode="&#x124;" horiz-adv-x="1479" d="M1046 0v604h-614v-604h-295v1409h295v-561h614v561h295v-1409h-295zM1113 1559v-29h-159l-203 151h-4l-211 -151h-160v29l258 276h229z" />
<glyph unicode="&#x125;" horiz-adv-x="1251" d="M420 866q57 124 143 180t205 56q172 0 264 -106t92 -310v-686h-280v606q0 285 -193 285q-102 0 -164.5 -87.5t-62.5 -224.5v-579h-281v1484h281v-405q0 -109 -8 -213h4zM1012 1638v-29h-159l-203 151h-4l-211 -151h-160v29l258 276h229z" />
<glyph unicode="&#x126;" horiz-adv-x="1479" d="M1057 0v604h-625v-604h-295v1045h-123v170h123v194h295v-194h625v194h284v-194h124v-170h-124v-1045h-284zM1057 848v197h-625v-197h625z" />
<glyph unicode="&#x127;" horiz-adv-x="1251" d="M420 826q57 124 143 180t205 56q172 0 264 -106t92 -310v-646h-280v566q0 285 -193 285q-102 0 -164.5 -87.5t-62.5 -224.5v-539h-281v1175h-133v170h133v139h281v-139h306v-170h-306v-136q0 -109 -8 -213h4z" />
<glyph unicode="&#x128;" horiz-adv-x="569" d="M137 0v1409h295v-1409h-295zM454 1530q-44 0 -88.5 19t-86.5 42.5t-79.5 42.5t-67.5 19q-41 0 -62.5 -23t-35.5 -100h-137q8 113 32.5 169.5t70.5 90t122 33.5q45 0 90 -19t87 -42.5t78.5 -42.5t65.5 -19q40 0 62.5 24.5t36.5 98.5h135q-7 -157 -63.5 -225t-159.5 -68z " />
<glyph unicode="&#x129;" horiz-adv-x="569" d="M145 0v1082h281v-1082h-281zM454 1183q-44 0 -88.5 19t-86.5 42.5t-79.5 42.5t-67.5 19q-41 0 -62.5 -23t-35.5 -100h-137q8 113 32.5 169.5t70.5 90t122 33.5q45 0 90 -19t87 -42.5t78.5 -42.5t65.5 -19q40 0 62.5 24.5t36.5 98.5h135q-7 -157 -63.5 -225t-159.5 -68z " />
<glyph unicode="&#x12a;" horiz-adv-x="569" d="M137 0v1409h295v-1409h-295zM-20 1705h612v-168h-612v168z" />
<glyph unicode="&#x12b;" horiz-adv-x="569" d="M145 0v1082h281v-1082h-281zM-20 1371h612v-168h-612v168z" />
<glyph unicode="&#x12c;" horiz-adv-x="569" d="M137 0v1409h295v-1409h-295zM284 1520q-145 0 -243 81t-109 207h163q15 -62 68 -99t123 -37q72 0 124 36.5t66 99.5h164q-19 -133 -114.5 -210.5t-241.5 -77.5z" />
<glyph unicode="&#x12d;" horiz-adv-x="569" d="M145 0v1082h281v-1082h-281zM285 1183q-151 0 -246 91t-106 232h163q16 -77 68 -121.5t123 -44.5t123.5 43.5t66.5 122.5h164q-18 -148 -110.5 -235.5t-245.5 -87.5z" />
<glyph unicode="&#x12e;" horiz-adv-x="569" d="M137 0v1409h295v-1409h-295zM325 -425q-111 0 -174 54t-63 146q0 75 43.5 142t114.5 104h153q-63 -42 -96 -99.5t-33 -110.5q0 -42 24.5 -67.5t69.5 -25.5q54 0 112 27v-137q-63 -33 -151 -33z" />
<glyph unicode="&#x12f;" horiz-adv-x="569" d="M143 1277v207h281v-207h-281zM143 0v1082h281v-1082h-281zM306 -425q-111 0 -174 54t-63 146q0 75 43.5 142t114.5 104h153q-63 -42 -96 -99.5t-33 -110.5q0 -42 24.5 -67.5t69.5 -25.5q54 0 112 27v-137q-63 -33 -151 -33z" />
<glyph unicode="&#x130;" horiz-adv-x="569" d="M137 0v1409h295v-1409h-295zM146 1547v207h281v-207h-281z" />
<glyph unicode="&#x131;" horiz-adv-x="569" d="M145 0v1082h281v-1082h-281z" />
<glyph unicode="&#x132;" horiz-adv-x="1607" d="M137 0v1409h295v-1409h-295zM992 -20q-219 0 -336.5 95t-156.5 307l293 43q18 -109 67 -161.5t135 -52.5q88 0 133.5 59t45.5 169v739h-281v231h575v-963q0 -220 -125 -343t-350 -123z" />
<glyph unicode="&#x133;" horiz-adv-x="1139" d="M143 1277v207h281v-207h-281zM143 0v1082h281v-1082h-281zM713 1277v207h281v-207h-281zM707 -425q-100 0 -170 9v198l51 -4q72 0 98.5 31.5t26.5 130.5v1142h281v-1210q0 -143 -72.5 -220t-214.5 -77z" />
<glyph unicode="&#x134;" horiz-adv-x="1139" d="M524 -20q-219 0 -336.5 95t-156.5 307l293 43q18 -109 67 -161.5t135 -52.5q88 0 133.5 59t45.5 169v739h-281v231h575v-963q0 -220 -125 -343t-350 -123zM1058 1559v-29h-159l-203 151h-4l-211 -151h-160v29l258 276h229z" />
<glyph unicode="&#x135;" horiz-adv-x="569" d="M647 1211v-28h-159l-203 192h-4l-211 -192h-160v28l258 318h229zM138 -425q-100 0 -170 9v198l51 -4q72 0 98.5 31.5t26.5 130.5v1142h281v-1210q0 -143 -72.5 -220t-214.5 -77z" />
<glyph unicode="&#x136;" horiz-adv-x="1479" d="M1112 0l-506 647l-174 -133v-514h-295v1409h295v-639l635 639h344l-602 -596l651 -813h-348zM875 -204q0 -73 -21.5 -131.5t-72.5 -119.5h-137q94 100 94 170h-108v207h245v-126z" />
<glyph unicode="&#x137;" horiz-adv-x="1139" d="M834 0l-289 490l-121 -84v-406h-281v1484h281v-850l386 448h302l-380 -422l409 -660h-307zM725 -204q0 -73 -21.5 -131.5t-72.5 -119.5h-137q94 100 94 170h-108v207h245v-126z" />
<glyph unicode="&#x138;" horiz-adv-x="1139" d="M834 0l-289 490l-121 -84v-406h-281v1082h281v-448l386 448h302l-380 -422l409 -660h-307z" />
<glyph unicode="&#x139;" horiz-adv-x="1251" d="M137 0v1409h295v-1181h756v-228h-1051zM260 1530v31l252 254h258v-43l-340 -242h-170z" />
<glyph unicode="&#x13a;" horiz-adv-x="569" d="M143 0v1484h281v-1484h-281zM106 1609v31l252 254h258v-43l-340 -242h-170z" />
<glyph unicode="&#x13b;" horiz-adv-x="1251" d="M137 0v1409h295v-1181h756v-228h-1051zM757 -204q0 -73 -21.5 -131.5t-72.5 -119.5h-137q94 100 94 170h-108v207h245v-126z" />
<glyph unicode="&#x13c;" horiz-adv-x="569" d="M143 0v1484h281v-1484h-281zM406 -204q0 -73 -21.5 -131.5t-72.5 -119.5h-137q94 100 94 170h-108v207h245v-126z" />
<glyph unicode="&#x13d;" horiz-adv-x="1251" d="M137 0v1409h295v-1181h756v-228h-1051zM984 1263q0 -73 -21.5 -132t-72.5 -119h-137q94 100 94 190h-108v207h245v-146z" />
<glyph unicode="&#x13e;" horiz-adv-x="789" d="M143 0v1484h281v-1484h-281zM790 1338q0 -73 -21.5 -132t-72.5 -119h-137q94 100 94 190h-108v207h245v-146z" />
<glyph unicode="&#x13f;" horiz-adv-x="1251" d="M137 0v1409h295v-1181h756v-228h-1051zM669 651v207h281v-207h-281z" />
<glyph unicode="&#x140;" horiz-adv-x="981" d="M143 0v1484h281v-1484h-281zM600 651v207h281v-207h-281z" />
<glyph unicode="&#x141;" horiz-adv-x="1251" d="M137 0v483l-137 -65v225l137 66v700h295v-559l307 147v-223l-307 -147v-396h756v-231h-1051z" />
<glyph unicode="&#x142;" horiz-adv-x="569" d="M424 717v-717h-281v561l-125 -69v215l125 69v708h281v-552l129 74v-213z" />
<glyph unicode="&#x143;" horiz-adv-x="1479" d="M995 0l-614 1085q18 -158 18 -254v-831h-262v1409h337l623 -1094q-18 151 -18 275v819h262v-1409h-346zM574 1530v31l252 254h258v-43l-340 -242h-170z" />
<glyph unicode="&#x144;" horiz-adv-x="1251" d="M844 0v607q0 285 -193 285q-102 0 -164.5 -87.5t-62.5 -224.5v-580h-281v840q0 87 -2.5 142.5t-5.5 99.5h268q3 -19 8 -101.5t5 -113.5h4q57 124 143 180t205 56q172 0 264 -106t92 -310v-687h-280zM475 1183v31l252 288h258v-43l-340 -276h-170z" />
<glyph unicode="&#x145;" horiz-adv-x="1479" d="M995 0l-614 1085q18 -158 18 -254v-831h-262v1409h337l623 -1094q-18 151 -18 275v819h262v-1409h-346zM856 -204q0 -73 -21.5 -131.5t-72.5 -119.5h-137q94 100 94 170h-108v207h245v-126z" />
<glyph unicode="&#x146;" horiz-adv-x="1251" d="M844 0v607q0 285 -193 285q-102 0 -164.5 -87.5t-62.5 -224.5v-580h-281v840q0 87 -2.5 142.5t-5.5 99.5h268q3 -19 8 -101.5t5 -113.5h4q57 124 143 180t205 56q172 0 264 -106t92 -310v-687h-280zM759 -204q0 -73 -21.5 -131.5t-72.5 -119.5h-137q94 100 94 170h-108 v207h245v-126z" />
<glyph unicode="&#x147;" horiz-adv-x="1479" d="M995 0l-614 1085q18 -158 18 -254v-831h-262v1409h337l623 -1094q-18 151 -18 275v819h262v-1409h-346zM852 1530h-229l-258 276v29h160l211 -152h4l203 152h159v-29z" />
<glyph unicode="&#x148;" horiz-adv-x="1251" d="M844 0v607q0 285 -193 285q-102 0 -164.5 -87.5t-62.5 -224.5v-580h-281v840q0 87 -2.5 142.5t-5.5 99.5h268q3 -19 8 -101.5t5 -113.5h4q57 124 143 180t205 56q172 0 264 -106t92 -310v-687h-280zM729 1183h-229l-258 317v29h160l211 -193h4l203 193h159v-29z" />
<glyph unicode="&#x149;" horiz-adv-x="1451" d="M1044 0v607q0 285 -193 285q-102 0 -164.5 -87.5t-62.5 -224.5v-580h-281v840q0 87 -2.5 142.5t-5.5 99.5h268q3 -19 8 -101.5t5 -113.5h4q57 124 143 180t205 56q172 0 264 -106t92 -310v-687h-280zM269 1214q0 -121 -24.5 -210t-84.5 -173h-182q131 168 131 318h-127 v260h287v-195z" />
<glyph unicode="&#x14a;" horiz-adv-x="1481" d="M904 -20q-132 0 -221.5 39.5t-163.5 138.5l202 171q52 -68 93 -92.5t88 -24.5q63 0 100 32.5t53 100.5t16 208v295q0 186 -64 269t-209 83q-97 0 -182 -49t-134.5 -133t-49.5 -179v-839h-295v1092l-4 317h288q11 -121 11 -251h4q66 127 194 199t284 72q233 0 337 -129 t104 -411v-347q0 -300 -108.5 -431t-342.5 -131z" />
<glyph unicode="&#x14b;" horiz-adv-x="1251" d="M837 -425q-100 0 -170 9v198l51 -4q74 0 100 32.5t26 129.5v667q0 285 -193 285q-102 0 -164.5 -87.5t-62.5 -224.5v-580h-281v840q0 87 -2.5 142.5t-5.5 99.5h268q3 -19 8 -101.5t5 -113.5h4q57 124 143 180t205 56q172 0 264 -106t92 -310v-815q0 -143 -72.5 -220 t-214.5 -77z" />
<glyph unicode="&#x14c;" horiz-adv-x="1593" d="M1507 711q0 -220 -87 -387t-249 -255.5t-378 -88.5q-332 0 -520.5 195.5t-188.5 535.5q0 339 188 529t523 190t523.5 -192t188.5 -527zM1206 711q0 228 -108 357.5t-303 129.5q-198 0 -306 -128.5t-108 -358.5q0 -232 110.5 -365.5t301.5 -133.5q198 0 305.5 130 t107.5 369zM490 1705h612v-168h-612v168z" />
<glyph unicode="&#x14d;" horiz-adv-x="1251" d="M1171 542q0 -263 -146 -412.5t-404 -149.5q-253 0 -397 150t-144 412q0 261 144 410.5t403 149.5q265 0 404.5 -144.5t139.5 -415.5zM877 542q0 193 -63 280t-183 87q-256 0 -256 -367q0 -181 62.5 -275.5t180.5 -94.5q259 0 259 370zM324 1371h612v-168h-612v168z" />
<glyph unicode="&#x14e;" horiz-adv-x="1593" d="M1507 711q0 -220 -87 -387t-249 -255.5t-378 -88.5q-332 0 -520.5 195.5t-188.5 535.5q0 339 188 529t523 190t523.5 -192t188.5 -527zM1206 711q0 228 -108 357.5t-303 129.5q-198 0 -306 -128.5t-108 -358.5q0 -232 110.5 -365.5t301.5 -133.5q198 0 305.5 130 t107.5 369zM784 1520q-145 0 -243 81t-109 207h163q15 -62 68 -99t123 -37q72 0 124 36.5t66 99.5h164q-19 -133 -114.5 -210.5t-241.5 -77.5z" />
<glyph unicode="&#x14f;" horiz-adv-x="1251" d="M1171 542q0 -263 -146 -412.5t-404 -149.5q-253 0 -397 150t-144 412q0 261 144 410.5t403 149.5q265 0 404.5 -144.5t139.5 -415.5zM877 542q0 193 -63 280t-183 87q-256 0 -256 -367q0 -181 62.5 -275.5t180.5 -94.5q259 0 259 370zM631 1183q-151 0 -246 91t-106 232 h163q16 -77 68 -121.5t123 -44.5t123.5 43.5t66.5 122.5h164q-18 -148 -110.5 -235.5t-245.5 -87.5z" />
<glyph unicode="&#x150;" horiz-adv-x="1593" d="M1507 711q0 -220 -87 -387t-249 -255.5t-378 -88.5q-332 0 -520.5 195.5t-188.5 535.5q0 339 188 529t523 190t523.5 -192t188.5 -527zM1206 711q0 228 -108 357.5t-303 129.5q-198 0 -306 -128.5t-108 -358.5q0 -232 110.5 -365.5t301.5 -133.5q198 0 305.5 130 t107.5 369zM611 1530h-132v34l215 252h235v-43zM1017 1530h-132v34l215 252h235v-43z" />
<glyph unicode="&#x151;" horiz-adv-x="1251" d="M1171 542q0 -263 -146 -412.5t-404 -149.5q-253 0 -397 150t-144 412q0 261 144 410.5t403 149.5q265 0 404.5 -144.5t139.5 -415.5zM877 542q0 193 -63 280t-183 87q-256 0 -256 -367q0 -181 62.5 -275.5t180.5 -94.5q259 0 259 370zM435 1184h-142v34l225 266h235v-43z M841 1184h-142v34l225 266h235v-43z" />
<glyph unicode="&#x152;" horiz-adv-x="2048" d="M992 0q-38 -2 -91.5 -6t-107.5 -4q-334 0 -521.5 191.5t-187.5 529.5t187.5 523.5t523.5 185.5q71 0 203 -11h929v-227h-667v-355h606v-221h-606v-379h708v-227h-976zM963 1169q-71 19 -168 19q-200 0 -307 -124.5t-107 -352.5q0 -229 109.5 -359t302.5 -130 q116 0 170 20v927z" />
<glyph unicode="&#x153;" horiz-adv-x="1933" d="M1384 -20q-238 0 -369 159q-144 -159 -394 -159q-253 0 -397 150t-144 412q0 261 144 410.5t403 149.5q256 0 394 -153q134 153 367 153t356 -154.5t123 -452.5v-19h-694q0 -146 59 -227t166 -81q149 0 188 129l265 -23q-115 -294 -467 -294zM877 542q0 193 -63 280 t-183 87q-256 0 -256 -367q0 -181 62.5 -275.5t180.5 -94.5q259 0 259 370zM1384 925q-99 0 -152.5 -69t-56.5 -193h420q-8 131 -63 196.5t-148 65.5z" />
<glyph unicode="&#x154;" horiz-adv-x="1479" d="M1105 0l-327 535h-346v-535h-295v1409h704q252 0 389 -108.5t137 -311.5q0 -148 -84 -255.5t-227 -141.5l381 -592h-332zM1070 977q0 203 -260 203h-378v-416h386q124 0 188 56t64 157zM548 1530v31l252 254h258v-43l-340 -242h-170z" />
<glyph unicode="&#x155;" horiz-adv-x="797" d="M143 0v828q0 89 -2.5 148.5t-5.5 105.5h268q3 -18 8 -109.5t5 -121.5h4q41 114 73 160.5t76 69t110 22.5q54 0 87 -15v-235q-68 15 -120 15q-105 0 -163.5 -85t-58.5 -252v-531h-281zM269 1183v31l252 288h258v-43l-340 -276h-170z" />
<glyph unicode="&#x156;" horiz-adv-x="1479" d="M1105 0l-327 535h-346v-535h-295v1409h704q252 0 389 -108.5t137 -311.5q0 -148 -84 -255.5t-227 -141.5l381 -592h-332zM1070 977q0 203 -260 203h-378v-416h386q124 0 188 56t64 157zM865 -204q0 -73 -21.5 -131.5t-72.5 -119.5h-137q94 100 94 170h-108v207h245v-126z " />
<glyph unicode="&#x157;" horiz-adv-x="797" d="M143 0v828q0 89 -2.5 148.5t-5.5 105.5h268q3 -18 8 -109.5t5 -121.5h4q41 114 73 160.5t76 69t110 22.5q54 0 87 -15v-235q-68 15 -120 15q-105 0 -163.5 -85t-58.5 -252v-531h-281zM405 -204q0 -73 -21.5 -131.5t-72.5 -119.5h-137q94 100 94 170h-108v207h245v-126z " />
<glyph unicode="&#x158;" horiz-adv-x="1479" d="M1105 0l-327 535h-346v-535h-295v1409h704q252 0 389 -108.5t137 -311.5q0 -148 -84 -255.5t-227 -141.5l381 -592h-332zM1070 977q0 203 -260 203h-378v-416h386q124 0 188 56t64 157zM818 1530h-229l-258 276v29h160l211 -152h4l203 152h159v-29z" />
<glyph unicode="&#x159;" horiz-adv-x="797" d="M143 0v828q0 89 -2.5 148.5t-5.5 105.5h268q3 -18 8 -109.5t5 -121.5h4q41 114 73 160.5t76 69t110 22.5q54 0 87 -15v-235q-68 15 -120 15q-105 0 -163.5 -85t-58.5 -252v-531h-281zM543 1183h-229l-258 317v29h160l211 -193h4l203 193h159v-29z" />
<glyph unicode="&#x15a;" horiz-adv-x="1366" d="M1286 406q0 -207 -153.5 -316.5t-450.5 -109.5q-271 0 -425 96t-198 291l285 47q29 -112 113 -162.5t233 -50.5q309 0 309 188q0 60 -35.5 99t-100 65t-247.5 63q-158 37 -220 59.5t-112 53t-85 73.5t-54.5 101t-19.5 133q0 191 143.5 292.5t417.5 101.5q262 0 393.5 -82 t169.5 -271l-286 -39q-22 91 -89.5 137t-193.5 46q-268 0 -268 -168q0 -55 28.5 -90t84.5 -59.5t227 -61.5q203 -43 290.5 -79.5t138.5 -85t78 -116t27 -155.5zM555 1530v31l252 254h258v-43l-340 -242h-170z" />
<glyph unicode="&#x15b;" horiz-adv-x="1139" d="M1055 316q0 -157 -128.5 -246.5t-355.5 -89.5q-223 0 -341.5 70.5t-157.5 219.5l247 37q21 -77 72.5 -109t179.5 -32q118 0 172 30t54 94q0 52 -43.5 82.5t-147.5 51.5q-238 47 -321 87.5t-126.5 105t-43.5 158.5q0 155 119.5 241.5t338.5 86.5q193 0 310.5 -75 t146.5 -217l-249 -26q-12 66 -59 98.5t-149 32.5q-100 0 -150 -25.5t-50 -85.5q0 -47 38.5 -74.5t129.5 -45.5q127 -26 225.5 -53.5t158 -65.5t95 -97.5t35.5 -152.5zM400 1183v31l252 288h258v-43l-340 -276h-170z" />
<glyph unicode="&#x15c;" horiz-adv-x="1366" d="M1286 406q0 -207 -153.5 -316.5t-450.5 -109.5q-271 0 -425 96t-198 291l285 47q29 -112 113 -162.5t233 -50.5q309 0 309 188q0 60 -35.5 99t-100 65t-247.5 63q-158 37 -220 59.5t-112 53t-85 73.5t-54.5 101t-19.5 133q0 191 143.5 292.5t417.5 101.5q262 0 393.5 -82 t169.5 -271l-286 -39q-22 91 -89.5 137t-193.5 46q-268 0 -268 -168q0 -55 28.5 -90t84.5 -59.5t227 -61.5q203 -43 290.5 -79.5t138.5 -85t78 -116t27 -155.5zM1079 1559v-29h-159l-203 151h-4l-211 -151h-160v29l258 276h229z" />
<glyph unicode="&#x15d;" horiz-adv-x="1139" d="M1055 316q0 -157 -128.5 -246.5t-355.5 -89.5q-223 0 -341.5 70.5t-157.5 219.5l247 37q21 -77 72.5 -109t179.5 -32q118 0 172 30t54 94q0 52 -43.5 82.5t-147.5 51.5q-238 47 -321 87.5t-126.5 105t-43.5 158.5q0 155 119.5 241.5t338.5 86.5q193 0 310.5 -75 t146.5 -217l-249 -26q-12 66 -59 98.5t-149 32.5q-100 0 -150 -25.5t-50 -85.5q0 -47 38.5 -74.5t129.5 -45.5q127 -26 225.5 -53.5t158 -65.5t95 -97.5t35.5 -152.5zM935 1211v-28h-159l-203 192h-4l-211 -192h-160v28l258 318h229z" />
<glyph unicode="&#x15e;" horiz-adv-x="1366" d="M1286 406q0 -207 -153.5 -316.5t-450.5 -109.5q-271 0 -425 96t-198 291l285 47q29 -112 113 -162.5t233 -50.5q309 0 309 188q0 60 -35.5 99t-100 65t-247.5 63q-158 37 -220 59.5t-112 53t-85 73.5t-54.5 101t-19.5 133q0 191 143.5 292.5t417.5 101.5q262 0 393.5 -82 t169.5 -271l-286 -39q-22 91 -89.5 137t-193.5 46q-268 0 -268 -168q0 -55 28.5 -90t84.5 -59.5t227 -61.5q203 -43 290.5 -79.5t138.5 -85t78 -116t27 -155.5zM922 -235q0 -94 -78 -142t-225 -48q-45 0 -101 6v118q35 -7 84 -7q137 0 137 69q0 35 -28 52t-94 17 q-38 0 -52 -2l62 172h143l-33 -82q94 -5 139.5 -46t45.5 -107z" />
<glyph unicode="&#x15f;" horiz-adv-x="1139" d="M1055 316q0 -157 -128.5 -246.5t-355.5 -89.5q-223 0 -341.5 70.5t-157.5 219.5l247 37q21 -77 72.5 -109t179.5 -32q118 0 172 30t54 94q0 52 -43.5 82.5t-147.5 51.5q-238 47 -321 87.5t-126.5 105t-43.5 158.5q0 155 119.5 241.5t338.5 86.5q193 0 310.5 -75 t146.5 -217l-249 -26q-12 66 -59 98.5t-149 32.5q-100 0 -150 -25.5t-50 -85.5q0 -47 38.5 -74.5t129.5 -45.5q127 -26 225.5 -53.5t158 -65.5t95 -97.5t35.5 -152.5zM786 -235q0 -94 -78 -142t-225 -48q-45 0 -101 6v118q35 -7 84 -7q137 0 137 69q0 35 -28 52t-94 17 q-38 0 -52 -2l62 172h143l-33 -82q94 -5 139.5 -46t45.5 -107z" />
<glyph unicode="&#x160;" horiz-adv-x="1366" d="M1286 406q0 -207 -153.5 -316.5t-450.5 -109.5q-271 0 -425 96t-198 291l285 47q29 -112 113 -162.5t233 -50.5q309 0 309 188q0 60 -35.5 99t-100 65t-247.5 63q-158 37 -220 59.5t-112 53t-85 73.5t-54.5 101t-19.5 133q0 191 143.5 292.5t417.5 101.5q262 0 393.5 -82 t169.5 -271l-286 -39q-22 91 -89.5 137t-193.5 46q-268 0 -268 -168q0 -55 28.5 -90t84.5 -59.5t227 -61.5q203 -43 290.5 -79.5t138.5 -85t78 -116t27 -155.5zM806 1530h-229l-258 276v29h160l211 -152h4l203 152h159v-29z" />
<glyph unicode="&#x161;" horiz-adv-x="1139" d="M1055 316q0 -157 -128.5 -246.5t-355.5 -89.5q-223 0 -341.5 70.5t-157.5 219.5l247 37q21 -77 72.5 -109t179.5 -32q118 0 172 30t54 94q0 52 -43.5 82.5t-147.5 51.5q-238 47 -321 87.5t-126.5 105t-43.5 158.5q0 155 119.5 241.5t338.5 86.5q193 0 310.5 -75 t146.5 -217l-249 -26q-12 66 -59 98.5t-149 32.5q-100 0 -150 -25.5t-50 -85.5q0 -47 38.5 -74.5t129.5 -45.5q127 -26 225.5 -53.5t158 -65.5t95 -97.5t35.5 -152.5zM692 1183h-229l-258 317v29h160l211 -193h4l203 193h159v-29z" />
<glyph unicode="&#x162;" horiz-adv-x="1251" d="M773 1181v-1181h-295v1181h-455v228h1206v-228h-456zM850 -235q0 -94 -78 -142t-225 -48q-45 0 -101 6v118q35 -7 84 -7q137 0 137 69q0 35 -28 52t-94 17q-38 0 -52 -2l62 172h143l-33 -82q94 -5 139.5 -46t45.5 -107z" />
<glyph unicode="&#x163;" horiz-adv-x="682" d="M420 -18q-124 0 -191 67.5t-67 204.5v638h-137v190h151l88 254h176v-254h205v-190h-205v-562q0 -79 30 -116.5t93 -37.5q33 0 94 14v-174q-104 -34 -237 -34zM638 -235q0 -94 -78 -142t-225 -48q-45 0 -101 6v118q35 -7 84 -7q137 0 137 69q0 35 -28 52t-94 17 q-38 0 -52 -2l62 172h143l-33 -82q94 -5 139.5 -46t45.5 -107z" />
<glyph unicode="&#x164;" horiz-adv-x="1251" d="M773 1181v-1181h-295v1181h-455v228h1206v-228h-456zM749 1530h-229l-258 276v29h160l211 -152h4l203 152h159v-29z" />
<glyph unicode="&#x165;" horiz-adv-x="981" d="M420 -18q-124 0 -191 67.5t-67 204.5v638h-137v190h151l88 254h176v-254h205v-190h-205v-562q0 -79 30 -116.5t93 -37.5q33 0 94 14v-174q-104 -34 -237 -34zM981 1338q0 -73 -21.5 -132t-72.5 -119h-137q94 100 94 190h-108v207h245v-146z" />
<glyph unicode="&#x166;" horiz-adv-x="1251" d="M773 1181v-365h228v-190h-228v-626h-295v626h-227v190h227v365h-455v228h1206v-228h-456z" />
<glyph unicode="&#x167;" horiz-adv-x="682" d="M420 -18q-124 0 -191 67.5t-67 204.5v219h-127v190h127v229h-137v190h151l88 254h176v-254h205v-190h-205v-229h185v-190h-185v-143q0 -79 30 -116.5t93 -37.5q33 0 94 14v-174q-104 -34 -237 -34z" />
<glyph unicode="&#x168;" horiz-adv-x="1479" d="M723 -20q-291 0 -445.5 142t-154.5 406v881h295v-858q0 -167 79.5 -253.5t233.5 -86.5q158 0 243 90.5t85 259.5v848h295v-866q0 -268 -165.5 -415.5t-465.5 -147.5zM905 1530q-44 0 -88.5 19t-86.5 42.5t-79.5 42.5t-67.5 19q-41 0 -62.5 -23t-35.5 -100h-137 q8 113 32.5 169.5t70.5 90t122 33.5q45 0 90 -19t87 -42.5t78.5 -42.5t65.5 -19q40 0 62.5 24.5t36.5 98.5h135q-7 -157 -63.5 -225t-159.5 -68z" />
<glyph unicode="&#x169;" horiz-adv-x="1251" d="M408 1082v-607q0 -285 192 -285q102 0 164.5 87.5t62.5 224.5v580h281v-840q0 -138 8 -242h-268q-12 144 -12 215h-5q-56 -123 -142.5 -179t-205.5 -56q-172 0 -264 105.5t-92 309.5v687h281zM786 1183q-44 0 -88.5 19t-86.5 42.5t-79.5 42.5t-67.5 19q-41 0 -62.5 -23 t-35.5 -100h-137q8 113 32.5 169.5t70.5 90t122 33.5q45 0 90 -19t87 -42.5t78.5 -42.5t65.5 -19q40 0 62.5 24.5t36.5 98.5h135q-7 -157 -63.5 -225t-159.5 -68z" />
<glyph unicode="&#x16a;" horiz-adv-x="1479" d="M723 -20q-291 0 -445.5 142t-154.5 406v881h295v-858q0 -167 79.5 -253.5t233.5 -86.5q158 0 243 90.5t85 259.5v848h295v-866q0 -268 -165.5 -415.5t-465.5 -147.5zM433 1700h612v-168h-612v168z" />
<glyph unicode="&#x16b;" horiz-adv-x="1251" d="M408 1082v-607q0 -285 192 -285q102 0 164.5 87.5t62.5 224.5v580h281v-840q0 -138 8 -242h-268q-12 144 -12 215h-5q-56 -123 -142.5 -179t-205.5 -56q-172 0 -264 105.5t-92 309.5v687h281zM312 1371h612v-168h-612v168z" />
<glyph unicode="&#x16c;" horiz-adv-x="1479" d="M723 -20q-291 0 -445.5 142t-154.5 406v881h295v-858q0 -167 79.5 -253.5t233.5 -86.5q158 0 243 90.5t85 259.5v848h295v-866q0 -268 -165.5 -415.5t-465.5 -147.5zM737 1520q-145 0 -243 81t-109 207h163q15 -62 68 -99t123 -37q72 0 124 36.5t66 99.5h164 q-19 -133 -114.5 -210.5t-241.5 -77.5z" />
<glyph unicode="&#x16d;" horiz-adv-x="1251" d="M408 1082v-607q0 -285 192 -285q102 0 164.5 87.5t62.5 224.5v580h281v-840q0 -138 8 -242h-268q-12 144 -12 215h-5q-56 -123 -142.5 -179t-205.5 -56q-172 0 -264 105.5t-92 309.5v687h281zM622 1183q-151 0 -246 91t-106 232h163q16 -77 68 -121.5t123 -44.5 t123.5 43.5t66.5 122.5h164q-18 -148 -110.5 -235.5t-245.5 -87.5z" />
<glyph unicode="&#x16e;" horiz-adv-x="1479" d="M723 -20q-291 0 -445.5 142t-154.5 406v881h295v-858q0 -167 79.5 -253.5t233.5 -86.5q158 0 243 90.5t85 259.5v848h295v-866q0 -268 -165.5 -415.5t-465.5 -147.5zM994 1724q0 -105 -73.5 -179.5t-180.5 -74.5t-180.5 74.5t-73.5 179.5t74.5 179.5t179.5 74.5 t179.5 -74.5t74.5 -179.5zM867 1724q0 51 -36.5 88t-90.5 37q-51 0 -88 -36t-37 -89q0 -56 37 -92t88 -36q53 0 90 37t37 91z" />
<glyph unicode="&#x16f;" horiz-adv-x="1251" d="M408 1082v-607q0 -285 192 -285q102 0 164.5 87.5t62.5 224.5v580h281v-840q0 -138 8 -242h-268q-12 144 -12 215h-5q-56 -123 -142.5 -179t-205.5 -56q-172 0 -264 105.5t-92 309.5v687h281zM875 1390q0 -105 -73.5 -179.5t-180.5 -74.5t-180.5 74.5t-73.5 179.5 t74.5 179.5t179.5 74.5t179.5 -74.5t74.5 -179.5zM748 1390q0 51 -36.5 88t-90.5 37q-51 0 -88 -36t-37 -89q0 -56 37 -92t88 -36q53 0 90 37t37 91z" />
<glyph unicode="&#x170;" horiz-adv-x="1479" d="M723 -20q-291 0 -445.5 142t-154.5 406v881h295v-858q0 -167 79.5 -253.5t233.5 -86.5q158 0 243 90.5t85 259.5v848h295v-866q0 -268 -165.5 -415.5t-465.5 -147.5zM525 1530h-132v34l215 252h235v-43zM931 1530h-132v34l215 252h235v-43z" />
<glyph unicode="&#x171;" horiz-adv-x="1251" d="M408 1082v-607q0 -285 192 -285q102 0 164.5 87.5t62.5 224.5v580h281v-840q0 -138 8 -242h-268q-12 144 -12 215h-5q-56 -123 -142.5 -179t-205.5 -56q-172 0 -264 105.5t-92 309.5v687h281zM399 1184h-142v34l225 266h235v-43zM805 1184h-142v34l225 266h235v-43z" />
<glyph unicode="&#x172;" horiz-adv-x="1479" d="M723 -20q-291 0 -445.5 142t-154.5 406v881h295v-858q0 -167 79.5 -253.5t233.5 -86.5q158 0 243 90.5t85 259.5v848h295v-866q0 -268 -165.5 -415.5t-465.5 -147.5zM857 -425q-111 0 -174 54t-63 146q0 75 43.5 142t114.5 104h153q-63 -42 -96 -99.5t-33 -110.5 q0 -42 24.5 -67.5t69.5 -25.5q54 0 112 27v-137q-63 -33 -151 -33z" />
<glyph unicode="&#x173;" horiz-adv-x="1251" d="M408 1082v-607q0 -285 192 -285q102 0 164.5 87.5t62.5 224.5v580h281v-840q0 -138 8 -242h-268q-12 144 -12 215h-5q-56 -123 -142.5 -179t-205.5 -56q-172 0 -264 105.5t-92 309.5v687h281zM958 -425q-111 0 -174 54t-63 146q0 75 43.5 142t114.5 104h153 q-63 -42 -96 -99.5t-33 -110.5q0 -42 24.5 -67.5t69.5 -25.5q54 0 112 27v-137q-63 -33 -151 -33z" />
<glyph unicode="&#x174;" horiz-adv-x="1933" d="M1567 0h-350l-191 815q-35 144 -59 301q-24 -131 -39 -199.5t-213 -916.5h-350l-363 1409h299l204 -910l46 -220q28 139 54.5 265.5t199.5 864.5h330l178 -750q21 -84 71 -380l25 116l53 230l170 784h299zM1337 1559v-29h-159l-203 151h-4l-211 -151h-160v29l258 276h229 z" />
<glyph unicode="&#x175;" horiz-adv-x="1593" d="M1313 0h-297l-172 660q-12 45 -47 222l-52 -224l-174 -658h-297l-280 1082h264l178 -827l14 74l25 117l170 636h301l166 -636q14 -52 41 -191l28 132l156 695h260zM1166 1211v-28h-159l-203 192h-4l-211 -192h-160v28l258 318h229z" />
<glyph unicode="&#x176;" horiz-adv-x="1366" d="M831 578v-578h-294v578l-502 831h309l338 -596l342 596h309zM1053 1559v-29h-159l-203 151h-4l-211 -151h-160v29l258 276h229z" />
<glyph unicode="&#x177;" horiz-adv-x="1139" d="M283 -425q-101 0 -177 13v200q53 -8 97 -8q60 0 99.5 19t71 63t70.5 149l-428 1071h297l170 -507q40 -109 101 -334l25 95l65 235l160 511h294l-428 -1139q-86 -208 -178.5 -288t-238.5 -80zM949 1211v-28h-159l-203 192h-4l-211 -192h-160v28l258 318h229z" />
<glyph unicode="&#x178;" horiz-adv-x="1366" d="M831 578v-578h-294v578l-502 831h309l338 -596l342 596h309zM807 1530v219h197v-219h-197zM353 1530v219h194v-219h-194z" />
<glyph unicode="&#x179;" horiz-adv-x="1251" d="M1192 0h-1131v209l762 969h-686v231h1014v-205l-762 -973h803v-231zM473 1530v31l252 254h258v-43l-340 -242h-170z" />
<glyph unicode="&#x17a;" horiz-adv-x="1024" d="M82 0v199l509 680h-468v203h778v-201l-506 -676h555v-205h-868zM336 1183v31l252 288h258v-43l-340 -276h-170z" />
<glyph unicode="&#x17b;" horiz-adv-x="1251" d="M1192 0h-1131v209l762 969h-686v231h1014v-205l-762 -973h803v-231zM496 1547v207h281v-207h-281z" />
<glyph unicode="&#x17c;" horiz-adv-x="1024" d="M82 0v199l509 680h-468v203h778v-201l-506 -676h555v-205h-868zM389 1277v207h281v-207h-281z" />
<glyph unicode="&#x17d;" horiz-adv-x="1251" d="M1192 0h-1131v209l762 969h-686v231h1014v-205l-762 -973h803v-231zM761 1530h-229l-258 276v29h160l211 -152h4l203 152h159v-29z" />
<glyph unicode="&#x17e;" horiz-adv-x="1024" d="M82 0v199l509 680h-468v203h778v-201l-506 -676h555v-205h-868zM630 1183h-229l-258 317v29h160l211 -193h4l203 193h159v-29z" />
<glyph unicode="&#x17f;" horiz-adv-x="569" d="M142 1195q0 147 78 218t237 71q79 0 178 -16v-181q-41 9 -82 9q-72 0 -101.5 -28.5t-29.5 -100.5v-1167h-280v1195z" />
<glyph unicode="&#x180;" horiz-adv-x="1251" d="M10 1345h133v139h281v-139h310v-170h-310v-145l-4 -176h4q95 208 346 208q194 0 295.5 -137.5t101.5 -399.5q0 -264 -106.5 -404.5t-308.5 -140.5q-116 0 -200.5 50.5t-127.5 143.5h-2q0 -35 -4.5 -96t-9.5 -78h-273q8 93 8 247v928h-133v170zM874 525q0 178 -53 260 t-168 82q-120 0 -176.5 -89.5t-56.5 -261.5q0 -167 55.5 -255.5t175.5 -88.5q116 0 169.5 86t53.5 267z" />
<glyph unicode="&#x181;" horiz-adv-x="1713" d="M1019 1409q259 0 391 -90t132 -264q0 -120 -66.5 -202.5t-202.5 -111.5q171 -20 260.5 -107.5t89.5 -231.5q0 -192 -144 -297t-400 -105h-705v1195h-28q-133 0 -133 -110q0 -51 31 -134l-214 -17q-30 105 -30 201q0 127 91.5 200.5t242.5 73.5h685zM1327 425 q0 198 -284 198h-374v-404h385q141 0 207 51.5t66 154.5zM1245 1015q0 95 -61 135t-179 40h-336v-349h338q125 0 181.5 43.5t56.5 130.5z" />
<glyph unicode="&#x182;" horiz-adv-x="1472" d="M1390 431q0 -128 -61.5 -225.5t-180 -151.5t-279.5 -54h-732v1409h1061v-227h-766v-341h469q237 0 363 -107.5t126 -302.5zM1091 425q0 93 -69 145.5t-207 52.5h-383v-404h389q270 0 270 206z" />
<glyph unicode="&#x183;" horiz-adv-x="1251" d="M1167 525q0 -258 -109.5 -401.5t-305.5 -143.5q-116 0 -200.5 50.5t-127.5 143.5h-2q0 -35 -4.5 -96t-9.5 -78h-273q8 93 8 247v1237h742v-213h-461v-241l-4 -176h4q95 208 346 208q188 0 292.5 -140.5t104.5 -396.5zM874 525q0 342 -221 342q-111 0 -172 -90.5 t-61 -260.5q0 -163 59.5 -253.5t171.5 -90.5q223 0 223 353z" />
<glyph unicode="&#x184;" horiz-adv-x="1472" d="M1390 431q0 -128 -61.5 -225.5t-180 -151.5t-279.5 -54h-732v1003l-137 143v36l357 227h75v-568h469q237 0 363 -107.5t126 -302.5zM1091 425q0 93 -69 145.5t-207 52.5h-383v-404h389q270 0 270 206z" />
<glyph unicode="&#x185;" horiz-adv-x="1251" d="M424 1070l-4 -176h4q95 208 346 208q192 0 294.5 -145.5t102.5 -411.5q0 -268 -107.5 -416.5t-307.5 -148.5q-116 0 -200.5 50.5t-127.5 143.5h-2q0 -35 -4.5 -96t-9.5 -78h-273q8 93 8 247v850l-143 143v36l349 208h75v-414zM874 545q0 184 -54 273t-167 89 q-114 0 -173.5 -95.5t-59.5 -275.5q0 -172 58.5 -268t172.5 -96q223 0 223 373z" />
<glyph unicode="&#x186;" horiz-adv-x="1479" d="M684 1198q-267 0 -371 -268l-257 97q83 204 243.5 303.5t384.5 99.5q340 0 525.5 -192.5t185.5 -538.5q0 -347 -179 -533t-519 -186q-248 0 -404 99.5t-219 292.5l260 71q33 -106 129.5 -168.5t227.5 -62.5q200 0 303.5 124t103.5 363q0 243 -106.5 371t-307.5 128z" />
<glyph unicode="&#x187;" horiz-adv-x="1479" d="M1145 967q-33 106 -129.5 168.5t-227.5 62.5q-200 0 -303.5 -124t-103.5 -363q0 -243 106.5 -371t307.5 -128q127 0 220 63t151 205l257 -97q-81 -202 -242 -302.5t-386 -100.5q-340 0 -525.5 192.5t-185.5 538.5q0 347 179 533t519 186q211 0 357 -73v60q0 142 83 216 t231 74q75 0 152 -17v-204q-58 12 -88 12q-59 0 -85.5 -34.5t-26.5 -106.5v-319z" />
<glyph unicode="&#x188;" horiz-adv-x="1139" d="M788 727q-12 83 -60 132.5t-136 49.5q-217 0 -217 -363q0 -374 221 -374q80 0 134 50.5t67 150.5l282 -13q-15 -111 -79 -198t-168 -134.5t-238 -47.5q-246 0 -380 146.5t-134 408.5q0 268 135 417.5t383 149.5q117 0 214 -38q8 131 86.5 197.5t220.5 66.5q75 0 152 -17 v-201q-58 12 -88 12q-59 0 -85.5 -34.5t-26.5 -106.5v-240z" />
<glyph unicode="&#x189;" horiz-adv-x="1479" d="M1393 715q0 -218 -85.5 -380.5t-242 -248.5t-358.5 -86h-570v594h-129v219h129v596h510q356 0 551 -179.5t195 -514.5zM1096 715q0 225 -117 344t-338 119h-209v-365h356v-219h-356v-363h250q191 0 302.5 129.5t111.5 354.5z" />
<glyph unicode="&#x18a;" horiz-adv-x="1715" d="M1630 715q0 -218 -85.5 -380.5t-242 -248.5t-358.5 -86h-570v1195h-28q-133 0 -133 -110q0 -51 31 -134l-214 -17q-30 105 -30 201q0 127 91.5 200.5t242.5 73.5h550q356 0 551 -180.5t195 -513.5zM1333 715q0 227 -118 346.5t-337 119.5h-209v-953h250q190 0 302 131 t112 356z" />
<glyph unicode="&#x18b;" horiz-adv-x="1472" d="M88 431q0 195 126.5 302.5t362.5 107.5h469v341h-766v227h1061v-1409h-732q-239 0 -380 116t-141 315zM387 425q0 -206 270 -206h389v404h-383q-138 0 -207 -52.5t-69 -145.5z" />
<glyph unicode="&#x18c;" horiz-adv-x="1251" d="M84 525q0 255 104.5 396t292.5 141q251 0 346 -208h4l-4 176v241h-461v213h742v-1237q0 -154 8 -247h-273q-5 16 -9.5 77t-4.5 97h-2q-46 -95 -129.5 -144.5t-198.5 -49.5q-195 0 -305 143.5t-110 401.5zM377 525q0 -353 223 -353q112 0 171.5 91t59.5 253 q0 169 -60.5 260t-172.5 91q-221 0 -221 -342z" />
<glyph unicode="&#x18d;" horiz-adv-x="1242" d="M1171 552q0 -222 -111.5 -365t-317.5 -178l347 -253v-180h-923v203h537l-415 299q-96 69 -152 187t-56 287q0 167 64.5 291.5t188.5 191.5t294 67q264 0 404 -141.5t140 -408.5zM877 552q0 357 -246 357q-256 0 -256 -357q0 -176 63.5 -268t179.5 -92q259 0 259 360z" />
<glyph unicode="&#x18e;" horiz-adv-x="1366" d="M80 0v228h854v371h-752v228h752v354h-813v228h1108v-1409h-1149z" />
<glyph unicode="&#x18f;" horiz-adv-x="1487" d="M741 206q161 0 252 104.5t103 302.5h-710q12 -195 106 -301t249 -106zM161 1070q131 360 582 360q310 0 485 -190.5t175 -528.5q0 -221 -80 -387.5t-230 -255t-352 -88.5q-205 0 -352.5 87.5t-226 253t-78.5 390.5q0 76 9 137h998q-19 168 -107 262.5t-242 94.5 q-122 0 -197.5 -51t-119.5 -157z" />
<glyph unicode="&#x190;" horiz-adv-x="1283" d="M635 -20q-254 0 -397.5 113t-143.5 307q0 132 84 218t232 108q-280 71 -280 324q0 168 140 273.5t371 105.5q218 0 355 -96t205 -297l-268 -61q-73 237 -287 237q-108 0 -169.5 -48t-61.5 -139q0 -100 72 -148t223 -48h59v-227h-59q-169 0 -248.5 -44.5t-79.5 -145.5 q0 -97 67 -150.5t196 -53.5q236 0 328 253l264 -93q-68 -197 -216.5 -292.5t-385.5 -95.5z" />
<glyph unicode="&#x191;" horiz-adv-x="1251" d="M432 1181v-436h721v-228h-721v-549q0 -393 -343 -393q-74 0 -165 20v220q68 -13 95 -13q65 0 91.5 38.5t26.5 117.5v1451h1039v-228h-744z" />
<glyph unicode="&#x192;" horiz-adv-x="1139" d="M993 1247q-16 5 -48 11t-54 6q-65 0 -93.5 -33t-40.5 -94l-20 -107h212l-36 -190h-213l-251 -1265h-281l251 1265h-158l37 190h158l27 135q26 147 117 218t251 71q42 0 95 -8.5t87 -21.5z" />
<glyph unicode="&#x193;" horiz-adv-x="1593" d="M806 211q115 0 223 33.5t167 85.5v195h-344v218h614v-518q-112 -115 -291.5 -180t-376.5 -65q-344 0 -529 190.5t-185 540.5q0 348 186 533.5t535 185.5q217 0 365 -72v59q0 142 83 216t231 74q75 0 152 -17v-204q-58 12 -88 12q-59 0 -85.5 -34.5t-26.5 -106.5v-294 l-272 -82q-44 107 -138 162t-221 55q-208 0 -316 -126t-108 -361q0 -239 111.5 -369.5t313.5 -130.5z" />
<glyph unicode="&#x194;" horiz-adv-x="1304" d="M14 1409h308l334 -866l331 866h305l-488 -1139q102 -185 134.5 -274t32.5 -147q0 -133 -82.5 -203.5t-232.5 -70.5q-148 0 -231 72.5t-83 202.5q0 63 29.5 147t133.5 273zM734 -121q0 37 -14.5 81.5t-63.5 134.5q-45 -82 -55.5 -110.5t-16 -53t-5.5 -51.5 q0 -48 21.5 -70.5t55.5 -22.5t56 22t22 70z" />
<glyph unicode="&#x195;" horiz-adv-x="1906" d="M1314 -20q-240 0 -355 116.5t-115 359.5v150q0 285 -193 285q-102 0 -164.5 -87.5t-62.5 -224.5v-579h-281v1484h281v-405q0 -109 -8 -213h4q57 124 143 180t205 56q172 0 264 -106t92 -310v-238q0 -132 47.5 -194.5t142.5 -62.5q191 0 191 257v634h280v-626 q0 -476 -471 -476z" />
<glyph unicode="&#x196;" horiz-adv-x="569" d="M137 0v1409h295v-1409h-295z" />
<glyph unicode="&#x197;" horiz-adv-x="569" d="M0 827h137v582h295v-582h137v-228h-137v-599h-295v599h-137v228z" />
<glyph unicode="&#x198;" horiz-adv-x="1479" d="M1112 0l-506 647l-174 -133v-514h-295v1037q0 393 332 393q71 0 161 -20v-220q-68 13 -95 13q-51 0 -77 -26t-26 -98v-309l635 639h344l-602 -596l651 -813h-348z" />
<glyph unicode="&#x199;" horiz-adv-x="1139" d="M834 0l-289 490l-121 -84v-406h-281v1203q0 138 87.5 214t241.5 76q97 0 182 -17v-201q-18 5 -55.5 8.5t-58.5 3.5q-61 0 -88.5 -35t-27.5 -106v-512l386 448h302l-380 -422l409 -660h-307z" />
<glyph unicode="&#x19a;" horiz-adv-x="569" d="M20 826h123v658h281v-658h125v-187h-125v-639h-281v639h-123v187z" />
<glyph unicode="&#x19b;" horiz-adv-x="1139" d="M54 1159l284 121l-82 204h298l37 -96l181 78l74 -173l-187 -80l469 -1213h-294l-265 797l-256 -797h-297l408 1071l-15 35l-281 -120z" />
<glyph unicode="&#x19c;" horiz-adv-x="2031" d="M1163 1409v-933q0 -148 49 -216.5t150 -68.5q110 0 173.5 87.5t63.5 224.5v906h295v-1408h-302l-12 168h-4q-57 -101 -139 -145t-194 -44q-129 0 -211 49t-123 152h-7q-71 -110 -159.5 -155.5t-226.5 -45.5q-181 0 -280 107.5t-99 308.5v1013h295v-933q0 -149 50 -217 t150 -68q106 0 171 83t65 216v919h295z" />
<glyph unicode="&#x19d;" horiz-adv-x="1479" d="M474 1409l623 -1094q-18 151 -18 275v819h262v-1409h-346l-614 1085q18 -158 18 -254v-883q0 -199 -71.5 -286t-238.5 -87q-74 0 -165 20v230q68 -13 95 -13q65 0 91.5 38.5t26.5 117.5v1441h337z" />
<glyph unicode="&#x19e;" horiz-adv-x="1251" d="M844 -424v1031q0 285 -193 285q-102 0 -164.5 -87.5t-62.5 -224.5v-580h-281v840q0 138 -8 242h268q3 -19 8 -101.5t5 -113.5h4q57 124 143 180t205 56q172 0 264 -106t92 -310v-1111h-280z" />
<glyph unicode="&#x19f;" horiz-adv-x="1593" d="M1507 711q0 -220 -87 -387t-249 -255.5t-378 -88.5q-332 0 -520.5 195.5t-188.5 535.5q0 339 188 529t523 190q221 0 382 -86.5t245.5 -250t84.5 -382.5zM793 212q175 0 280.5 104.5t125.5 293.5h-812q21 -183 128.5 -290.5t277.5 -107.5zM795 1198q-166 0 -271 -92.5 t-132 -262.5h802q-27 166 -131 260.5t-268 94.5z" />
<glyph unicode="&#x1a0;" horiz-adv-x="1747" d="M1744 1199q0 -319 -241 -408l4 -80q0 -220 -87 -387t-249 -255.5t-378 -88.5q-332 0 -520.5 195.5t-188.5 535.5q0 339 188 529t523 190q273 0 453 -131t235 -372q123 63 123 222h-125v260h263v-210zM1206 711q0 228 -108 357.5t-303 129.5q-198 0 -306 -128.5 t-108 -358.5q0 -232 110.5 -365.5t301.5 -133.5q198 0 305.5 130t107.5 369z" />
<glyph unicode="&#x1a1;" horiz-adv-x="1456" d="M1456 872q0 -171 -70 -275.5t-220 -142.5q-23 -226 -167 -350t-378 -124q-253 0 -397 150t-144 412q0 261 144 410.5t403 149.5q255 0 393.5 -132.5t149.5 -382.5q148 56 148 235h-125v260h263v-210zM877 542q0 193 -63 280t-183 87q-256 0 -256 -367q0 -181 62.5 -275.5 t180.5 -94.5q132 0 195.5 91.5t63.5 278.5z" />
<glyph unicode="&#x1a2;" horiz-adv-x="1816" d="M1384 -425v1606h-192v-1098q-70 -44 -186.5 -73.5t-228.5 -29.5q-334 0 -513.5 192t-179.5 539t179 533t519 186q199 0 365 -83l446 78h73v-1850h-282zM795 207q62 0 115 14v967q-60 15 -122 15q-199 0 -303 -126t-104 -366q0 -244 106.5 -374t307.5 -130z" />
<glyph unicode="&#x1a3;" horiz-adv-x="1523" d="M958 67q-64 -42 -155 -64.5t-192 -22.5q-249 0 -390 148.5t-141 413.5q0 264 139.5 412t397.5 148q189 0 328 -88l357 88h77v-1527h-253v1302h-168v-810zM611 172q47 0 89 12v715q-34 10 -76 10q-129 0 -188.5 -89t-59.5 -278q0 -182 59.5 -276t175.5 -94z" />
<glyph unicode="&#x1a4;" horiz-adv-x="1601" d="M346 1195q-133 0 -133 -110q0 -51 31 -134l-214 -17q-30 105 -30 201q0 127 91.5 200.5t242.5 73.5h673q253 0 389.5 -116.5t136.5 -329.5q0 -137 -62.5 -244t-178 -165t-273.5 -58h-350v-496h-295v1195h-28zM1236 958q0 222 -262 222h-305v-457h313q122 0 188 60.5 t66 174.5z" />
<glyph unicode="&#x1a5;" horiz-adv-x="1251" d="M1167 546q0 -271 -108.5 -418.5t-306.5 -147.5q-116 0 -201.5 51t-126.5 141h-6q6 -30 6 -182v-415h-281v1628q0 137 87.5 213.5t243.5 76.5q49 0 110 -6t84 -11v-211q-18 5 -55.5 8.5t-58.5 3.5q-134 0 -134 -133v-241h4q95 199 346 199q188 0 292.5 -144.5 t104.5 -411.5zM874 546q0 364 -223 364q-112 0 -171.5 -98t-59.5 -274q0 -175 59 -270.5t170 -95.5q225 0 225 374z" />
<glyph unicode="&#x1a6;" horiz-adv-x="1366" d="M1020 -330l-330 689h-258v-359h-295v1409h295v-176h311q252 0 389 -108.5t137 -311.5q0 -148 -84 -255.5t-227 -141.5l381 -746h-319zM972 801q0 203 -260 203h-280v-416h288q124 0 188 56t64 157z" />
<glyph unicode="&#x1a7;" horiz-adv-x="1366" d="M80 406q0 82 21.5 142t59 103.5t88.5 73.5t110 51t124 36t131 30q170 36 226.5 60.5t85 60t28.5 90.5q0 168 -268 168q-126 0 -193.5 -46t-89.5 -137l-286 39q38 188 171.5 270.5t398.5 82.5q271 0 412.5 -100t141.5 -294q0 -78 -20 -135.5t-56 -100t-86.5 -73 t-114.5 -53.5t-214 -58l-143 -33q-122 -28 -181 -75t-59 -119q0 -188 309 -188q149 0 233 50t113 163l285 -47q-86 -387 -631 -387q-295 0 -445.5 109t-150.5 317z" />
<glyph unicode="&#x1a8;" horiz-adv-x="1139" d="M84 316q0 100 44.5 165.5t129.5 107.5t341 95q91 18 129 46t38 75q0 60 -50 85.5t-150 25.5q-102 0 -149 -33t-59 -98l-249 26q29 141 148.5 216.5t314.5 75.5q217 0 334.5 -85.5t117.5 -242.5q0 -96 -45 -161t-132 -105t-313 -85q-105 -21 -148.5 -51.5t-43.5 -82.5 q0 -65 54.5 -94.5t171.5 -29.5q127 0 179 31.5t73 109.5l247 -37q-38 -148 -158 -219t-345 -71q-224 0 -352 88.5t-128 247.5z" />
<glyph unicode="&#x1a9;" horiz-adv-x="1229" d="M90 0v234l448 507l-431 435v233h999v-228h-697l371 -373v-134l-394 -446h781v-228h-1077z" />
<glyph unicode="&#x1aa;" horiz-adv-x="737" d="M24 1286q0 94 63 149t170 55q167 0 250.5 -97t83.5 -287v-1174q0 -141 119 -141q19 0 57.5 3.5t56.5 8.5v-211q-68 -17 -182 -17q-329 0 -329 329v1201q-44 -22 -96 -22q-89 0 -141 56t-52 147zM144 1286q0 -40 25.5 -63.5t61.5 -23.5t61 23.5t25 63.5t-25 63.5t-61 23.5 t-61.5 -23.5t-25.5 -63.5z" />
<glyph unicode="&#x1ab;" horiz-adv-x="682" d="M292 -219q118 0 118 141v60q-119 3 -183.5 70.5t-64.5 201.5v638h-137v190h151l88 254h176v-254h205v-190h-205v-562q0 -79 30 -116.5t93 -37.5q33 0 94 14v-312q0 -143 -76 -223t-232 -80q-76 0 -167 20v201q72 -15 110 -15z" />
<glyph unicode="&#x1ac;" horiz-adv-x="1251" d="M346 1181q-133 0 -133 -96q0 -51 31 -134l-214 -17q-30 105 -30 201q0 126 83.5 200t231.5 74h914v-228h-456v-1181h-295v1181h-132z" />
<glyph unicode="&#x1ad;" horiz-adv-x="682" d="M420 -18q-124 0 -191 67.5t-67 204.5v638h-137v190h134v121q0 138 87.5 214t241.5 76q97 0 182 -17v-201q-18 5 -55.5 8.5t-58.5 3.5q-61 0 -88.5 -35t-27.5 -106v-64h205v-190h-205v-562q0 -79 30 -116.5t93 -37.5q33 0 94 14v-174q-104 -34 -237 -34z" />
<glyph unicode="&#x1ae;" horiz-adv-x="1251" d="M23 1181v228h1206v-228h-456v-1223q0 -79 27 -117.5t91 -38.5q27 0 95 13v-220q-91 -20 -165 -20q-173 0 -258 94t-85 295v1217h-455z" />
<glyph unicode="&#x1af;" horiz-adv-x="1699" d="M715 -20q-288 0 -440 140t-152 408v881h295v-858q0 -340 305 -340q157 0 239 90.5t82 259.5v848h295v-512q107 14 164.5 79.5t57.5 172.5h-125v260h263v-210q0 -188 -86 -298.5t-274 -139.5v-218q0 -269 -163 -416t-461 -147z" />
<glyph unicode="&#x1b0;" horiz-adv-x="1483" d="M408 1082v-607q0 -285 192 -285q102 0 164.5 87.5t62.5 224.5v580h281v-521q110 12 173.5 81.5t63.5 179.5h-125v260h263v-210q0 -196 -93 -305t-282 -135v-190q0 -87 2.5 -142.5t5.5 -99.5h-268q-4 25 -7.5 97t-4.5 118h-5q-107 -235 -348 -235q-172 0 -264 106t-92 309 v687h281z" />
<glyph unicode="&#x1b1;" horiz-adv-x="1642" d="M821 -22q-207 0 -363.5 74.5t-240.5 213t-84 323.5q0 203 104.5 351t325.5 251q-128 -11 -188 -11h-270v228h650v-309q-163 -80 -245 -192.5t-82 -272.5q0 -200 105 -312t289 -112t289.5 112t105.5 312q0 158 -80.5 271.5t-243.5 193.5v309h644v-228h-268q-58 0 -186 11 q217 -103 321.5 -250.5t104.5 -350.5q0 -183 -84 -322.5t-240.5 -214.5t-363.5 -75z" />
<glyph unicode="&#x1b2;" horiz-adv-x="1479" d="M1348 952q0 -480 -166.5 -726t-498.5 -246q-271 0 -415.5 140t-144.5 408v881h295v-858q0 -165 66.5 -252.5t198.5 -87.5q136 0 215.5 75t117.5 233t38 418q0 134 -43.5 199t-135.5 65q-43 0 -111 -13v220q90 20 232 20q171 0 261.5 -121.5t90.5 -354.5z" />
<glyph unicode="&#x1b3;" horiz-adv-x="1577" d="M682 813l241 426q56 100 118.5 145.5t147.5 45.5q157 0 298 -129l-109 -185q-70 62 -128 62q-37 0 -62.5 -20t-52.5 -64l-304 -516v-578h-294v578l-502 831h309z" />
<glyph unicode="&#x1b4;" horiz-adv-x="1139" d="M1181 1493q126 0 246 -74l-95 -196q-56 36 -110 36q-44 0 -69.5 -29.5t-41.5 -76.5l-411 -1210q-77 -205 -172 -286.5t-245 -81.5q-101 0 -177 13v200q53 -8 97 -8q88 0 137 41.5t86 141.5l18 48l-428 1071h297l170 -507q12 -34 51 -163.5t50 -170.5l9 37l81 293l210 657 q44 140 118.5 202.5t178.5 62.5z" />
<glyph unicode="&#x1b5;" horiz-adv-x="1251" d="M52 835h501l270 343h-686v231h1014v-205l-289 -369h295v-197h-450l-318 -407h803v-231h-1131v209l337 429h-346v197z" />
<glyph unicode="&#x1b6;" horiz-adv-x="1024" d="M64 633h348l196 246h-499v203h809v-201l-203 -248h217v-177h-352l-199 -251h586v-205h-899v199l214 257h-218v177z" />
<glyph unicode="&#x1b7;" horiz-adv-x="1251" d="M593 -434q-215 0 -353.5 91t-213.5 284l258 101q54 -131 125.5 -187.5t174.5 -56.5q147 0 226.5 97t79.5 280q0 170 -101.5 259.5t-301.5 89.5h-128v231l417 423h-690v231h1050v-205l-474 -467q244 -12 380.5 -157.5t136.5 -393.5q0 -187 -71.5 -328t-205.5 -216.5 t-309 -75.5z" />
<glyph unicode="&#x1b8;" horiz-adv-x="1251" d="M658 -434q-274 0 -430 162t-156 441q0 168 64 294t181 196.5t272 77.5l-474 467v205h1050v-231h-690l417 -423v-231h-128q-201 0 -302 -89.5t-101 -259.5q0 -183 79.5 -280t226.5 -97q103 0 175 57t125 187l258 -101q-75 -193 -213.5 -284t-353.5 -91z" />
<glyph unicode="&#x1b9;" horiz-adv-x="1078" d="M569 -241q87 0 144.5 47.5t67.5 153.5l277 -13q-24 -182 -153.5 -281.5t-337.5 -99.5q-244 0 -385.5 131t-141.5 354q0 200 111 321t313 141l-364 374v195h902v-203h-565l336 -356v-189h-102q-183 0 -264 -72.5t-81 -227.5q0 -275 243 -275z" />
<glyph unicode="&#x1ba;" horiz-adv-x="1078" d="M1039 -99q-34 -156 -176.5 -245.5t-359.5 -89.5q-128 0 -230.5 38t-160 109.5t-57.5 171.5q0 87 48 150.5t137.5 103.5t275.5 82q110 24 161.5 54.5t51.5 74.5q0 45 -25 68.5t-78 33.5t-219 10h-102v144l303 273h-538v203h902v-163l-346 -295q208 -5 298.5 -72t90.5 -206 q0 -81 -44.5 -140.5t-132.5 -101.5t-295 -92q-118 -29 -168.5 -59.5t-50.5 -71.5q0 -56 55 -89t155 -33q98 0 159 46t72 134z" />
<glyph unicode="&#x1bb;" horiz-adv-x="1139" d="M86 764h505q159 141 159 258q0 184 -185 184q-90 0 -137.5 -48.5t-61.5 -145.5l-283 16q24 196 146.5 299t333.5 103q228 0 350 -104t122 -292q0 -139 -102 -270h110v-191h-302l-104 -85q-188 -148 -234 -257h654v-231h-986v195q42 92 111 181.5t187 196.5h-283v191z" />
<glyph unicode="&#x1bc;" horiz-adv-x="1139" d="M70 1409h981v-228h-531v-238h36q257 0 389 -116t132 -341q0 -249 -132 -377.5t-390 -128.5q-208 0 -338.5 101t-155.5 283l282 13q40 -174 220 -174q120 0 173 63.5t53 195.5q0 125 -60 185.5t-200 60.5h-285v473h-174v228z" />
<glyph unicode="&#x1bd;" horiz-adv-x="1018" d="M30 1082h852v-203h-447v-184h50q460 0 460 -360q0 -169 -119.5 -262t-340.5 -93q-186 0 -308 86.5t-160 247.5l271 18q18 -83 69 -121.5t139 -38.5q89 0 134 39t45 124q0 94 -53.5 134.5t-174.5 40.5h-258v369h-159v203z" />
<glyph unicode="&#x1be;" horiz-adv-x="1186" d="M168 892h-137v190h151l88 254h176v-254h205v-190h-205v-77q0 -39 19.5 -64t60 -42.5t181.5 -49.5q174 -40 248 -81t114 -104t40 -158q0 -157 -128.5 -246.5t-355.5 -89.5q-223 0 -341.5 70.5t-157.5 219.5l247 37q21 -77 72.5 -109t179.5 -32q117 0 171.5 29.5t54.5 94.5 q0 52 -43.5 82.5t-147.5 51.5q-235 46 -319 89.5t-128.5 115.5t-44.5 179v84z" />
<glyph unicode="&#x1bf;" horiz-adv-x="1251" d="M1164 668q0 -315 -175 -522.5t-565 -364.5v-206h-281v1507h265q7 -53 12 -164h4q51 91 135.5 139t197.5 48q130 0 221 -55t138.5 -154.5t47.5 -227.5zM878 639q0 271 -218 271q-112 0 -174 -87.5t-62 -227.5v-595q234 120 344 276.5t110 362.5z" />
<glyph unicode="&#x1c0;" horiz-adv-x="573" d="M164 0v1484h245v-1484h-245z" />
<glyph unicode="&#x1c1;" horiz-adv-x="1019" d="M174 0v1484h240v-1484h-240zM605 0v1484h240v-1484h-240z" />
<glyph unicode="&#x1c2;" horiz-adv-x="1197" d="M82 1083h394v401h245v-401h394v-209h-394v-266h394v-209h-394v-399h-245v399h-394v209h394v266h-394v209z" />
<glyph unicode="&#x1c3;" horiz-adv-x="682" d="M455 426h-230l-32 983h294zM193 0v270h288v-270h-288z" />
<glyph unicode="&#x1c4;" horiz-adv-x="2730" d="M1393 715q0 -218 -85.5 -380.5t-242 -248.5t-358.5 -86h-570v1409h510q356 0 551 -179.5t195 -514.5zM1096 715q0 227 -118 346.5t-337 119.5h-209v-953h250q190 0 302 131t112 356zM2671 0h-1131v209l762 969h-686v231h1014v-205l-762 -973h803v-231zM2267 1530h-229 l-258 276v29h160l211 -152h4l203 152h159v-29z" />
<glyph unicode="&#x1c5;" horiz-adv-x="2503" d="M1393 715q0 -218 -85.5 -380.5t-242 -248.5t-358.5 -86h-570v1409h510q356 0 551 -179.5t195 -514.5zM1096 715q0 227 -118 346.5t-337 119.5h-209v-953h250q190 0 302 131t112 356zM1561 0v199l509 680h-468v203h778v-201l-506 -676h555v-205h-868zM2155 1183h-229 l-258 317v29h160l211 -193h4l203 193h159v-29z" />
<glyph unicode="&#x1c6;" horiz-adv-x="2275" d="M844 0q-4 15 -9.5 75.5t-5.5 100.5h-4q-91 -196 -346 -196q-189 0 -292 147.5t-103 412.5q0 269 108.5 415.5t307.5 146.5q115 0 198.5 -48t128.5 -143h2l-2 178v395h281v-1248q0 -100 8 -236h-272zM831 547q0 175 -58.5 269.5t-172.5 94.5q-113 0 -168 -91.5t-55 -279.5 q0 -368 221 -368q111 0 172 97.5t61 277.5zM1333 0v199l509 680h-468v203h778v-201l-506 -676h555v-205h-868zM1920 1183h-229l-258 317v29h160l211 -193h4l203 193h159v-29z" />
<glyph unicode="&#x1c7;" horiz-adv-x="2390" d="M137 0v1409h295v-1181h756v-228h-1051zM1775 -20q-219 0 -336.5 95t-156.5 307l293 43q18 -109 67 -161.5t135 -52.5q88 0 133.5 59t45.5 169v739h-281v231h575v-963q0 -220 -125 -343t-350 -123z" />
<glyph unicode="&#x1c8;" horiz-adv-x="1820" d="M137 0v1409h295v-1181h756v-228h-1051zM1395 1277v207h281v-207h-281zM1389 -425q-100 0 -170 9v198l51 -4q72 0 98.5 31.5t26.5 130.5v1142h281v-1210q0 -143 -72.5 -220t-214.5 -77z" />
<glyph unicode="&#x1c9;" horiz-adv-x="1138" d="M143 0v1484h281v-1484h-281zM713 1277v207h281v-207h-281zM707 -425q-100 0 -170 9v198l51 -4q72 0 98.5 31.5t26.5 130.5v1142h281v-1210q0 -143 -72.5 -220t-214.5 -77z" />
<glyph unicode="&#x1ca;" horiz-adv-x="2618" d="M995 0l-614 1085q18 -158 18 -254v-831h-262v1409h337l623 -1094q-18 151 -18 275v819h262v-1409h-346zM2003 -20q-219 0 -336.5 95t-156.5 307l293 43q18 -109 67 -161.5t135 -52.5q88 0 133.5 59t45.5 169v739h-281v231h575v-963q0 -220 -125 -343t-350 -123z" />
<glyph unicode="&#x1cb;" horiz-adv-x="2048" d="M995 0l-614 1085q18 -158 18 -254v-831h-262v1409h337l623 -1094q-18 151 -18 275v819h262v-1409h-346zM1623 1277v207h281v-207h-281zM1617 -425q-100 0 -170 9v198l51 -4q72 0 98.5 31.5t26.5 130.5v1142h281v-1210q0 -143 -72.5 -220t-214.5 -77z" />
<glyph unicode="&#x1cc;" horiz-adv-x="1820" d="M844 0v607q0 285 -193 285q-102 0 -164.5 -87.5t-62.5 -224.5v-580h-281v840q0 87 -2.5 142.5t-5.5 99.5h268q3 -19 8 -101.5t5 -113.5h4q57 124 143 180t205 56q172 0 264 -106t92 -310v-687h-280zM1395 1277v207h281v-207h-281zM1389 -425q-100 0 -170 9v198l51 -4 q72 0 98.5 31.5t26.5 130.5v1142h281v-1210q0 -143 -72.5 -220t-214.5 -77z" />
<glyph unicode="&#x1cd;" horiz-adv-x="1479" d="M1133 0l-125 360h-537l-125 -360h-295l514 1409h348l512 -1409h-292zM739 1192l-6 -22q-10 -36 -24 -82t-172 -506h405l-139 405l-43 136zM861 1530h-229l-258 276v29h160l211 -152h4l203 152h159v-29z" />
<glyph unicode="&#x1ce;" horiz-adv-x="1139" d="M393 -20q-157 0 -245 85.5t-88 240.5q0 168 109.5 256t317.5 90l233 4v55q0 106 -37 157.5t-121 51.5q-78 0 -114.5 -35.5t-45.5 -117.5l-293 14q27 158 144.5 239.5t320.5 81.5q205 0 316 -101t111 -287v-394q0 -91 20.5 -125.5t68.5 -34.5q32 0 62 6v-152 q-25 -6 -45 -11t-40 -8t-42.5 -5t-52.5 -2q-106 0 -156.5 52t-60.5 153h-6q-118 -213 -356 -213zM720 501l-144 -2q-98 -4 -139 -21.5t-62.5 -53.5t-21.5 -96q0 -77 35.5 -114.5t94.5 -37.5q66 0 120.5 36t85.5 99.5t31 134.5v55zM688 1183h-229l-258 317v29h160l211 -193h4 l203 193h159v-29z" />
<glyph unicode="&#x1cf;" horiz-adv-x="569" d="M137 0v1409h295v-1409h-295zM402 1530h-229l-258 276v29h160l211 -152h4l203 152h159v-29z" />
<glyph unicode="&#x1d0;" horiz-adv-x="569" d="M145 0v1082h281v-1082h-281zM405 1183h-229l-258 317v29h160l211 -193h4l203 193h159v-29z" />
<glyph unicode="&#x1d1;" horiz-adv-x="1593" d="M1507 711q0 -220 -87 -387t-249 -255.5t-378 -88.5q-332 0 -520.5 195.5t-188.5 535.5q0 339 188 529t523 190t523.5 -192t188.5 -527zM1206 711q0 228 -108 357.5t-303 129.5q-198 0 -306 -128.5t-108 -358.5q0 -232 110.5 -365.5t301.5 -133.5q198 0 305.5 130 t107.5 369zM914 1530h-229l-258 276v29h160l211 -152h4l203 152h159v-29z" />
<glyph unicode="&#x1d2;" horiz-adv-x="1251" d="M1171 542q0 -263 -146 -412.5t-404 -149.5q-253 0 -397 150t-144 412q0 261 144 410.5t403 149.5q265 0 404.5 -144.5t139.5 -415.5zM877 542q0 193 -63 280t-183 87q-256 0 -256 -367q0 -181 62.5 -275.5t180.5 -94.5q259 0 259 370zM744 1183h-229l-258 317v29h160 l211 -193h4l203 193h159v-29z" />
<glyph unicode="&#x1d3;" horiz-adv-x="1479" d="M723 -20q-291 0 -445.5 142t-154.5 406v881h295v-858q0 -167 79.5 -253.5t233.5 -86.5q158 0 243 90.5t85 259.5v848h295v-866q0 -268 -165.5 -415.5t-465.5 -147.5zM854 1530h-229l-258 276v29h160l211 -152h4l203 152h159v-29z" />
<glyph unicode="&#x1d4;" horiz-adv-x="1251" d="M408 1082v-607q0 -285 192 -285q102 0 164.5 87.5t62.5 224.5v580h281v-840q0 -138 8 -242h-268q-12 144 -12 215h-5q-56 -123 -142.5 -179t-205.5 -56q-172 0 -264 105.5t-92 309.5v687h281zM730 1183h-229l-258 317v29h160l211 -193h4l203 193h159v-29z" />
<glyph unicode="&#x1d5;" horiz-adv-x="1479" d="M723 -20q-291 0 -445.5 142t-154.5 406v881h295v-858q0 -167 79.5 -253.5t233.5 -86.5q158 0 243 90.5t85 259.5v848h295v-866q0 -268 -165.5 -415.5t-465.5 -147.5zM995 1466h-160v152h160v-152zM629 1466h-160v152h160v-152zM426 1835h612v-138h-612v138z" />
<glyph unicode="&#x1d6;" horiz-adv-x="1251" d="M408 1082v-607q0 -285 192 -285q102 0 164.5 87.5t62.5 224.5v580h281v-840q0 -138 8 -242h-268q-12 144 -12 215h-5q-56 -123 -142.5 -179t-205.5 -56q-172 0 -264 105.5t-92 309.5v687h281zM730 1199v219h217v-219h-217zM296 1199v219h214v-219h-214zM314 1679h612 v-168h-612v168z" />
<glyph unicode="&#x1d7;" horiz-adv-x="1479" d="M723 -20q-291 0 -445.5 142t-154.5 406v881h295v-858q0 -167 79.5 -253.5t233.5 -86.5q158 0 243 90.5t85 259.5v848h295v-866q0 -268 -165.5 -415.5t-465.5 -147.5zM1015 1835v-16l-231 -153h-150v14l135 155h246zM1005 1466h-160v152h160v-152zM639 1466h-160v152h160 v-152z" />
<glyph unicode="&#x1d8;" horiz-adv-x="1251" d="M408 1082v-607q0 -285 192 -285q102 0 164.5 87.5t62.5 224.5v580h281v-840q0 -138 8 -242h-268q-12 144 -12 215h-5q-56 -123 -142.5 -179t-205.5 -56q-172 0 -264 105.5t-92 309.5v687h281zM730 1199v219h217v-219h-217zM296 1199v219h214v-219h-214zM452 1501v31 l252 254h258v-43l-340 -242h-170z" />
<glyph unicode="&#x1d9;" horiz-adv-x="1479" d="M723 -20q-291 0 -445.5 142t-154.5 406v881h295v-858q0 -167 79.5 -253.5t233.5 -86.5q158 0 243 90.5t85 259.5v848h295v-866q0 -268 -165.5 -415.5t-465.5 -147.5zM1001 1466h-160v152h160v-152zM635 1466h-160v152h160v-152zM889 1835h155v-10l-208 -143h-195 l-209 141v12h155l151 -67z" />
<glyph unicode="&#x1da;" horiz-adv-x="1251" d="M408 1082v-607q0 -285 192 -285q102 0 164.5 87.5t62.5 224.5v580h281v-840q0 -138 8 -242h-268q-12 144 -12 215h-5q-56 -123 -142.5 -179t-205.5 -56q-172 0 -264 105.5t-92 309.5v687h281zM730 1199v219h217v-219h-217zM296 1199v219h214v-219h-214zM729 1501h-229 l-258 276v29h160l211 -152h4l203 152h159v-29z" />
<glyph unicode="&#x1db;" horiz-adv-x="1479" d="M723 -20q-291 0 -445.5 142t-154.5 406v881h295v-858q0 -167 79.5 -253.5t233.5 -86.5q158 0 243 90.5t85 259.5v848h295v-866q0 -268 -165.5 -415.5t-465.5 -147.5zM715 1835l135 -155v-14h-150l-231 153v16h246zM479 1618h160v-152h-160v152zM845 1618h160v-152h-160 v152z" />
<glyph unicode="&#x1dc;" horiz-adv-x="1251" d="M408 1082v-607q0 -285 192 -285q102 0 164.5 87.5t62.5 224.5v580h281v-840q0 -138 8 -242h-268q-12 144 -12 215h-5q-56 -123 -142.5 -179t-205.5 -56q-172 0 -264 105.5t-92 309.5v687h281zM730 1199v219h217v-219h-217zM296 1199v219h214v-219h-214zM618 1501 l-340 242v43h258l251 -254v-31h-169z" />
<glyph unicode="&#x1dd;" horiz-adv-x="1139" d="M563 1102q244 0 375 -144.5t131 -421.5q0 -268 -133 -412t-377 -144q-233 0 -356 154.5t-123 452.5v8h694q0 158 -58.5 238.5t-166.5 80.5q-149 0 -188 -129l-265 23q115 294 467 294zM563 157q99 0 152.5 69t56.5 193h-420q8 -131 63 -196.5t148 -65.5z" />
<glyph unicode="&#x1de;" horiz-adv-x="1479" d="M1133 0l-125 360h-537l-125 -360h-295l514 1409h348l512 -1409h-292zM739 1192l-6 -22q-10 -36 -24 -82t-172 -506h405l-139 405l-43 136zM997 1466h-160v152h160v-152zM631 1466h-160v152h160v-152zM428 1835h612v-138h-612v138z" />
<glyph unicode="&#x1df;" horiz-adv-x="1139" d="M393 -20q-157 0 -245 85.5t-88 240.5q0 168 109.5 256t317.5 90l233 4v55q0 106 -37 157.5t-121 51.5q-78 0 -114.5 -35.5t-45.5 -117.5l-293 14q27 158 144.5 239.5t320.5 81.5q205 0 316 -101t111 -287v-394q0 -91 20.5 -125.5t68.5 -34.5q32 0 62 6v-152 q-25 -6 -45 -11t-40 -8t-42.5 -5t-52.5 -2q-106 0 -156.5 52t-60.5 153h-6q-118 -213 -356 -213zM720 501l-144 -2q-98 -4 -139 -21.5t-62.5 -53.5t-21.5 -96q0 -77 35.5 -114.5t94.5 -37.5q66 0 120.5 36t85.5 99.5t31 134.5v55zM672 1199v219h217v-219h-217zM238 1199v219 h214v-219h-214zM258 1679h612v-168h-612v168z" />
<glyph unicode="&#x1e0;" horiz-adv-x="1479" d="M1133 0l-125 360h-537l-125 -360h-295l514 1409h348l512 -1409h-292zM739 1192l-6 -22q-10 -36 -24 -82t-172 -506h405l-139 405l-43 136zM819 1466h-160v152h160v-152zM434 1835h612v-138h-612v138z" />
<glyph unicode="&#x1e1;" horiz-adv-x="1139" d="M393 -20q-157 0 -245 85.5t-88 240.5q0 168 109.5 256t317.5 90l233 4v55q0 106 -37 157.5t-121 51.5q-78 0 -114.5 -35.5t-45.5 -117.5l-293 14q27 158 144.5 239.5t320.5 81.5q205 0 316 -101t111 -287v-394q0 -91 20.5 -125.5t68.5 -34.5q32 0 62 6v-152 q-25 -6 -45 -11t-40 -8t-42.5 -5t-52.5 -2q-106 0 -156.5 52t-60.5 153h-6q-118 -213 -356 -213zM720 501l-144 -2q-98 -4 -139 -21.5t-62.5 -53.5t-21.5 -96q0 -77 35.5 -114.5t94.5 -37.5q66 0 120.5 36t85.5 99.5t31 134.5v55zM422 1222v207h281v-207h-281zM258 1679h612 v-168h-612v168z" />
<glyph unicode="&#x1e2;" horiz-adv-x="2048" d="M931 0v360h-450l-172 -360h-305l700 1409h1223v-227h-701v-355h639v-221h-639v-379h742v-227h-1037zM931 1192h-61q-49 -111 -287 -610h348v610zM996 1694h612v-168h-612v168z" />
<glyph unicode="&#x1e3;" horiz-adv-x="1821" d="M1253 -20q-310 0 -434 229q-133 -229 -413 -229q-161 0 -250.5 86t-89.5 240q0 166 111 253.5t329 92.5l240 4v55q0 108 -40 158.5t-128 50.5q-85 0 -123 -37t-47 -116l-293 14q26 157 144.5 239t326.5 82q217 0 333 -107q130 107 338 107q233 0 356 -154.5t123 -452.5 v-19h-694q0 -146 59 -227t166 -81q149 0 188 129l265 -23q-115 -294 -467 -294zM496 176q69 0 127 39t90.5 104t32.5 137v45l-152 -2q-104 -4 -147 -21.5t-65.5 -53.5t-22.5 -96q0 -77 37.5 -114.5t99.5 -37.5zM1253 925q-99 0 -152.5 -69t-56.5 -193h420q-8 131 -63 196.5 t-148 65.5zM604 1371h612v-168h-612v168z" />
<glyph unicode="&#x1e4;" horiz-adv-x="1593" d="M856 479h340v128h-344v218h614v-346h116v-148h-116v-106q-112 -115 -291.5 -180t-376.5 -65q-344 0 -529 190.5t-185 540.5q0 348 186 533.5t535 185.5q496 0 631 -367l-272 -82q-44 107 -138 162t-221 55q-208 0 -316 -126t-108 -361q0 -239 111.5 -369.5t313.5 -130.5 q127 0 233.5 32.5t166.5 87.5h-350v148z" />
<glyph unicode="&#x1e5;" horiz-adv-x="1251" d="M37 0h791l1 37v57l2 107h-2q-62 -81 -142 -115t-189 -34q-202 0 -308 137.5t-106 385.5q0 256 108.5 392t309.5 136q236 0 327 -195h5q0 35 4.5 95t9.5 79h266q-6 -108 -6 -250v-832h99v-93h-111q-34 -172 -162.5 -256.5t-337.5 -84.5q-180 0 -296.5 63.5t-158.5 184.5 l283 37q48 -100 180 -100q168 0 210 156h-777v93zM831 581q0 156 -59.5 242.5t-169.5 86.5q-225 0 -225 -335q0 -328 223 -328q111 0 171 85.5t60 248.5z" />
<glyph unicode="&#x1e6;" horiz-adv-x="1593" d="M806 211q115 0 223 33.5t167 85.5v195h-344v218h614v-518q-112 -115 -291.5 -180t-376.5 -65q-344 0 -529 190.5t-185 540.5q0 348 186 533.5t535 185.5q496 0 631 -367l-272 -82q-44 107 -138 162t-221 55q-208 0 -316 -126t-108 -361q0 -239 111.5 -369.5t313.5 -130.5 zM930 1530h-229l-258 276v29h160l211 -152h4l203 152h159v-29z" />
<glyph unicode="&#x1e7;" horiz-adv-x="1251" d="M596 -434q-198 0 -318.5 75.5t-148.5 215.5l281 33q15 -65 64.5 -102t129.5 -37q117 0 171 72t54 214v57l2 107h-2q-93 -199 -348 -199q-189 0 -293 142t-104 406q0 265 107 409t311 144q236 0 327 -195h5q0 35 4.5 95t9.5 79h266q-6 -108 -6 -250v-799q0 -231 -131 -349 t-381 -118zM831 556q0 167 -59.5 260.5t-169.5 93.5q-225 0 -225 -360q0 -353 223 -353q112 0 171.5 93.5t59.5 265.5zM727 1183h-229l-258 317v29h160l211 -193h4l203 193h159v-29z" />
<glyph unicode="&#x1e8;" horiz-adv-x="1479" d="M1112 0l-506 647l-174 -133v-514h-295v1409h295v-639l635 639h344l-602 -596l651 -813h-348zM840 1530h-229l-258 276v29h160l211 -152h4l203 152h159v-29z" />
<glyph unicode="&#x1e9;" horiz-adv-x="1139" d="M834 0l-289 490l-121 -84v-406h-281v1484h281v-850l386 448h302l-380 -422l409 -660h-307zM720 1572h-229l-258 276v29h160l211 -152h4l203 152h159v-29z" />
<glyph unicode="&#x1ea;" horiz-adv-x="1593" d="M1507 711q0 -220 -87 -387t-249 -255.5t-378 -88.5q-332 0 -520.5 195.5t-188.5 535.5q0 339 188 529t523 190t523.5 -192t188.5 -527zM1206 711q0 228 -108 357.5t-303 129.5q-198 0 -306 -128.5t-108 -358.5q0 -232 110.5 -365.5t301.5 -133.5q198 0 305.5 130 t107.5 369zM968 -425q-111 0 -174 54t-63 146q0 75 43.5 142t114.5 104h153q-63 -42 -96 -99.5t-33 -110.5q0 -42 24.5 -67.5t69.5 -25.5q54 0 112 27v-137q-63 -33 -151 -33z" />
<glyph unicode="&#x1eb;" horiz-adv-x="1251" d="M1171 542q0 -263 -146 -412.5t-404 -149.5q-253 0 -397 150t-144 412q0 261 144 410.5t403 149.5q265 0 404.5 -144.5t139.5 -415.5zM877 542q0 193 -63 280t-183 87q-256 0 -256 -367q0 -181 62.5 -275.5t180.5 -94.5q259 0 259 370zM783 -425q-111 0 -174 54t-63 146 q0 75 43.5 142t114.5 104h153q-63 -42 -96 -99.5t-33 -110.5q0 -42 24.5 -67.5t69.5 -25.5q54 0 112 27v-137q-63 -33 -151 -33z" />
<glyph unicode="&#x1ec;" horiz-adv-x="1593" d="M1507 711q0 -220 -87 -387t-249 -255.5t-378 -88.5q-332 0 -520.5 195.5t-188.5 535.5q0 339 188 529t523 190t523.5 -192t188.5 -527zM1206 711q0 228 -108 357.5t-303 129.5q-198 0 -306 -128.5t-108 -358.5q0 -232 110.5 -365.5t301.5 -133.5q198 0 305.5 130 t107.5 369zM943 -425q-111 0 -174 54t-63 146q0 75 43.5 142t114.5 104h153q-63 -42 -96 -99.5t-33 -110.5q0 -42 24.5 -67.5t69.5 -25.5q54 0 112 27v-137q-63 -33 -151 -33zM489 1762h612v-168h-612v168z" />
<glyph unicode="&#x1ed;" horiz-adv-x="1251" d="M1171 542q0 -263 -146 -412.5t-404 -149.5q-253 0 -397 150t-144 412q0 261 144 410.5t403 149.5q265 0 404.5 -144.5t139.5 -415.5zM877 542q0 193 -63 280t-183 87q-256 0 -256 -367q0 -181 62.5 -275.5t180.5 -94.5q259 0 259 370zM743 -425q-111 0 -174 54t-63 146 q0 75 43.5 142t114.5 104h153q-63 -42 -96 -99.5t-33 -110.5q0 -42 24.5 -67.5t69.5 -25.5q54 0 112 27v-137q-63 -33 -151 -33zM319 1371h612v-168h-612v168z" />
<glyph unicode="&#x1ee;" horiz-adv-x="1251" d="M593 -434q-215 0 -353.5 91t-213.5 284l258 101q54 -131 125.5 -187.5t174.5 -56.5q147 0 226.5 97t79.5 280q0 170 -101.5 259.5t-301.5 89.5h-128v231l417 423h-690v231h1050v-205l-474 -467q244 -12 380.5 -157.5t136.5 -393.5q0 -187 -71.5 -328t-205.5 -216.5 t-309 -75.5zM735 1530h-229l-258 276v29h160l211 -152h4l203 152h159v-29z" />
<glyph unicode="&#x1ef;" horiz-adv-x="1078" d="M515 -232q130 0 183.5 68.5t53.5 225.5q0 145 -82 213t-263 68h-102v189l339 347h-568v203h902v-195l-363 -365q197 -19 310 -136.5t113 -307.5q0 -237 -139.5 -370t-381.5 -133q-210 0 -341.5 101t-155.5 280l277 13q11 -91 70.5 -146t147.5 -55zM657 1183h-229 l-258 317v29h160l211 -193h4l203 193h159v-29z" />
<glyph unicode="&#x1f0;" horiz-adv-x="569" d="M138 -425q-100 0 -170 9v198l51 -4q72 0 98.5 31.5t26.5 130.5v1142h281v-1210q0 -143 -72.5 -220t-214.5 -77zM398 1183h-229l-258 317v29h160l211 -193h4l203 193h159v-29z" />
<glyph unicode="&#x1f1;" horiz-adv-x="2730" d="M1393 715q0 -218 -85.5 -380.5t-242 -248.5t-358.5 -86h-570v1409h510q356 0 551 -179.5t195 -514.5zM1096 715q0 227 -118 346.5t-337 119.5h-209v-953h250q190 0 302 131t112 356zM2671 0h-1131v209l762 969h-686v231h1014v-205l-762 -973h803v-231z" />
<glyph unicode="&#x1f2;" horiz-adv-x="2503" d="M1393 715q0 -218 -85.5 -380.5t-242 -248.5t-358.5 -86h-570v1409h510q356 0 551 -179.5t195 -514.5zM1096 715q0 227 -118 346.5t-337 119.5h-209v-953h250q190 0 302 131t112 356zM1561 0v199l509 680h-468v203h778v-201l-506 -676h555v-205h-868z" />
<glyph unicode="&#x1f3;" horiz-adv-x="2275" d="M844 0q-4 15 -9.5 75.5t-5.5 100.5h-4q-91 -196 -346 -196q-189 0 -292 147.5t-103 412.5q0 269 108.5 415.5t307.5 146.5q115 0 198.5 -48t128.5 -143h2l-2 178v395h281v-1248q0 -100 8 -236h-272zM831 547q0 175 -58.5 269.5t-172.5 94.5q-113 0 -168 -91.5t-55 -279.5 q0 -368 221 -368q111 0 172 97.5t61 277.5zM1333 0v199l509 680h-468v203h778v-201l-506 -676h555v-205h-868z" />
<glyph unicode="&#x1f4;" horiz-adv-x="1593" d="M806 211q115 0 223 33.5t167 85.5v195h-344v218h614v-518q-112 -115 -291.5 -180t-376.5 -65q-344 0 -529 190.5t-185 540.5q0 348 186 533.5t535 185.5q496 0 631 -367l-272 -82q-44 107 -138 162t-221 55q-208 0 -316 -126t-108 -361q0 -239 111.5 -369.5t313.5 -130.5 zM597 1530v31l252 254h258v-43l-340 -242h-170z" />
<glyph unicode="&#x1f5;" horiz-adv-x="1251" d="M596 -434q-198 0 -318.5 75.5t-148.5 215.5l281 33q15 -65 64.5 -102t129.5 -37q117 0 171 72t54 214v57l2 107h-2q-93 -199 -348 -199q-189 0 -293 142t-104 406q0 265 107 409t311 144q236 0 327 -195h5q0 35 4.5 95t9.5 79h266q-6 -108 -6 -250v-799q0 -231 -131 -349 t-381 -118zM831 556q0 167 -59.5 260.5t-169.5 93.5q-225 0 -225 -360q0 -353 223 -353q112 0 171.5 93.5t59.5 265.5zM407 1183v31l252 288h258v-43l-340 -276h-170z" />
<glyph unicode="&#x1f6;" horiz-adv-x="2115" d="M1341 448q0 -132 47.5 -194.5t142.5 -62.5q191 0 191 257v634h280v-626q0 -476 -471 -476q-246 0 -365.5 114t-119.5 362v148h-614v-604h-295v1409h295v-561h614v561h295v-961z" />
<glyph unicode="&#x1f7;" horiz-adv-x="1362" d="M1251 895q0 -367 -198 -632t-625 -456v-231h-291v1833h272v-166q75 102 162.5 144.5t213.5 42.5q137 0 243.5 -68t164.5 -190.5t58 -276.5zM950 863q0 169 -56 252t-188 83q-128 0 -203 -79.5t-75 -206.5v-852q271 138 396.5 336t125.5 467z" />
<glyph unicode="&#x1f8;" horiz-adv-x="1479" d="M995 0l-614 1085q18 -158 18 -254v-831h-262v1409h337l623 -1094q-18 151 -18 275v819h262v-1409h-346zM743 1530l-340 242v43h258l251 -254v-31h-169z" />
<glyph unicode="&#x1f9;" horiz-adv-x="1251" d="M844 0v607q0 285 -193 285q-102 0 -164.5 -87.5t-62.5 -224.5v-580h-281v840q0 87 -2.5 142.5t-5.5 99.5h268q3 -19 8 -101.5t5 -113.5h4q57 124 143 180t205 56q172 0 264 -106t92 -310v-687h-280zM646 1183l-340 276v43h258l251 -288v-31h-169z" />
<glyph unicode="&#x1fa;" horiz-adv-x="1479" d="M1133 0l-125 360h-537l-125 -360h-295l514 1409h348l512 -1409h-292zM739 1192l-6 -22q-10 -36 -24 -82t-172 -506h405l-139 405l-43 136zM993 1537q0 -105 -73.5 -179.5t-180.5 -74.5t-180.5 74.5t-73.5 179.5t74.5 179.5t179.5 74.5t179.5 -74.5t74.5 -179.5zM866 1537 q0 51 -36.5 88t-90.5 37q-51 0 -88 -36t-37 -89q0 -56 37 -92t88 -36q53 0 90 37t37 91zM586 1831v31l252 254h258v-43l-340 -242h-170z" />
<glyph unicode="&#x1fb;" horiz-adv-x="1139" d="M393 -20q-157 0 -245 85.5t-88 240.5q0 168 109.5 256t317.5 90l233 4v55q0 106 -37 157.5t-121 51.5q-78 0 -114.5 -35.5t-45.5 -117.5l-293 14q27 158 144.5 239.5t320.5 81.5q205 0 316 -101t111 -287v-394q0 -91 20.5 -125.5t68.5 -34.5q32 0 62 6v-152 q-25 -6 -45 -11t-40 -8t-42.5 -5t-52.5 -2q-106 0 -156.5 52t-60.5 153h-6q-118 -213 -356 -213zM720 501l-144 -2q-98 -4 -139 -21.5t-62.5 -53.5t-21.5 -96q0 -77 35.5 -114.5t94.5 -37.5q66 0 120.5 36t85.5 99.5t31 134.5v55zM823 1390q0 -105 -73.5 -179.5 t-180.5 -74.5t-180.5 74.5t-73.5 179.5t74.5 179.5t179.5 74.5t179.5 -74.5t74.5 -179.5zM696 1390q0 51 -36.5 88t-90.5 37q-51 0 -88 -36t-37 -89q0 -56 37 -92t88 -36q53 0 90 37t37 91zM442 1693v31l252 288h258v-43l-340 -276h-170z" />
<glyph unicode="&#x1fc;" horiz-adv-x="2048" d="M931 0v360h-450l-172 -360h-305l700 1409h1223v-227h-701v-355h639v-221h-639v-379h742v-227h-1037zM931 1192h-61q-49 -111 -287 -610h348v610zM1083 1530v31l252 254h258v-43l-340 -242h-170z" />
<glyph unicode="&#x1fd;" horiz-adv-x="1821" d="M1253 -20q-310 0 -434 229q-133 -229 -413 -229q-161 0 -250.5 86t-89.5 240q0 166 111 253.5t329 92.5l240 4v55q0 108 -40 158.5t-128 50.5q-85 0 -123 -37t-47 -116l-293 14q26 157 144.5 239t326.5 82q217 0 333 -107q130 107 338 107q233 0 356 -154.5t123 -452.5 v-19h-694q0 -146 59 -227t166 -81q149 0 188 129l265 -23q-115 -294 -467 -294zM496 176q69 0 127 39t90.5 104t32.5 137v45l-152 -2q-104 -4 -147 -21.5t-65.5 -53.5t-22.5 -96q0 -77 37.5 -114.5t99.5 -37.5zM1253 925q-99 0 -152.5 -69t-56.5 -193h420q-8 131 -63 196.5 t-148 65.5zM774 1183v31l252 288h258v-43l-340 -276h-170z" />
<glyph unicode="&#x1fe;" horiz-adv-x="1593" d="M147 -73l154 218q-217 197 -217 566q0 339 188 529t523 190q198 0 354 -74l82 117h193l-142 -203q112 -94 169 -236.5t57 -322.5q0 -220 -87 -387t-248.5 -255.5t-379.5 -88.5q-212 0 -360 77l-91 -129zM1207 711q0 203 -86 327l-541 -772q91 -55 213 -55 q199 0 306.5 130.5t107.5 369.5zM381 711q0 -205 84 -332l539 768q-92 51 -209 51q-198 0 -306 -128.5t-108 -358.5zM625 1530v31l252 254h258v-43l-340 -242h-170z" />
<glyph unicode="&#x1ff;" horiz-adv-x="1251" d="M1171 542q0 -263 -146 -412.5t-404 -149.5q-192 0 -324 89l-113 -124h-183l197 215q-118 146 -118 382q0 261 144 410.5t403 149.5q199 0 330 -83l101 114h184l-184 -206q113 -142 113 -385zM375 542q0 -92 17 -163l407 461q-60 69 -168 69q-256 0 -256 -367zM877 542 q0 94 -16 162l-407 -460q62 -72 164 -72q259 0 259 370zM465 1183v31l252 288h258v-43l-340 -276h-170z" />
<glyph unicode="&#x200;" horiz-adv-x="1479" d="M1133 0l-125 360h-537l-125 -360h-295l514 1409h348l512 -1409h-292zM739 1192l-6 -22q-10 -36 -24 -82t-172 -506h405l-139 405l-43 136zM558 1786v43h235l225 -266v-34h-142zM152 1786v43h235l225 -266v-34h-142z" />
<glyph unicode="&#x201;" horiz-adv-x="1139" d="M393 -20q-157 0 -245 85.5t-88 240.5q0 168 109.5 256t317.5 90l233 4v55q0 106 -37 157.5t-121 51.5q-78 0 -114.5 -35.5t-45.5 -117.5l-293 14q27 158 144.5 239.5t320.5 81.5q205 0 316 -101t111 -287v-394q0 -91 20.5 -125.5t68.5 -34.5q32 0 62 6v-152 q-25 -6 -45 -11t-40 -8t-42.5 -5t-52.5 -2q-106 0 -156.5 52t-60.5 153h-6q-118 -213 -356 -213zM720 501l-144 -2q-98 -4 -139 -21.5t-62.5 -53.5t-21.5 -96q0 -77 35.5 -114.5t94.5 -37.5q66 0 120.5 36t85.5 99.5t31 134.5v55zM418 1441v43h235l225 -266v-34h-142z M12 1441v43h235l225 -266v-34h-142z" />
<glyph unicode="&#x202;" horiz-adv-x="1479" d="M1133 0l-125 360h-537l-125 -360h-295l514 1409h348l512 -1409h-292zM739 1192l-6 -22q-10 -36 -24 -82t-172 -506h405l-139 405l-43 136zM730 1686q-68 0 -118.5 -40.5t-64.5 -115.5h-157q18 144 107 223.5t233 79.5t233 -79.5t107 -223.5h-157q-14 75 -64 115.5 t-119 40.5z" />
<glyph unicode="&#x203;" horiz-adv-x="1139" d="M393 -20q-157 0 -245 85.5t-88 240.5q0 168 109.5 256t317.5 90l233 4v55q0 106 -37 157.5t-121 51.5q-78 0 -114.5 -35.5t-45.5 -117.5l-293 14q27 158 144.5 239.5t320.5 81.5q205 0 316 -101t111 -287v-394q0 -91 20.5 -125.5t68.5 -34.5q32 0 62 6v-152 q-25 -6 -45 -11t-40 -8t-42.5 -5t-52.5 -2q-106 0 -156.5 52t-60.5 153h-6q-118 -213 -356 -213zM720 501l-144 -2q-98 -4 -139 -21.5t-62.5 -53.5t-21.5 -96q0 -77 35.5 -114.5t94.5 -37.5q66 0 120.5 36t85.5 99.5t31 134.5v55zM568 1344q-68 0 -118.5 -40.5t-64.5 -115.5 h-157q18 144 107 223.5t233 79.5t233 -79.5t107 -223.5h-157q-14 75 -64 115.5t-119 40.5z" />
<glyph unicode="&#x204;" horiz-adv-x="1366" d="M137 0v1409h1108v-228h-813v-354h752v-228h-752v-371h854v-228h-1149zM568 1787v43h235l225 -266v-34h-142zM162 1787v43h235l225 -266v-34h-142z" />
<glyph unicode="&#x205;" horiz-adv-x="1139" d="M586 -20q-244 0 -375 144.5t-131 421.5q0 268 133 412t377 144q233 0 356 -154.5t123 -452.5v-8h-694q0 -158 58.5 -238.5t166.5 -80.5q149 0 188 129l265 -23q-115 -294 -467 -294zM586 925q-99 0 -152.5 -69t-56.5 -193h420q-8 131 -63 196.5t-148 65.5zM438 1441v43 h235l225 -266v-34h-142zM32 1441v43h235l225 -266v-34h-142z" />
<glyph unicode="&#x206;" horiz-adv-x="1366" d="M137 0v1409h1108v-228h-813v-354h752v-228h-752v-371h854v-228h-1149zM708 1686q-68 0 -118.5 -40.5t-64.5 -115.5h-157q18 144 107 223.5t233 79.5t233 -79.5t107 -223.5h-157q-14 75 -64 115.5t-119 40.5z" />
<glyph unicode="&#x207;" horiz-adv-x="1139" d="M586 -20q-244 0 -375 144.5t-131 421.5q0 268 133 412t377 144q233 0 356 -154.5t123 -452.5v-8h-694q0 -158 58.5 -238.5t166.5 -80.5q149 0 188 129l265 -23q-115 -294 -467 -294zM586 925q-99 0 -152.5 -69t-56.5 -193h420q-8 131 -63 196.5t-148 65.5zM571 1344 q-68 0 -118.5 -40.5t-64.5 -115.5h-157q18 144 107 223.5t233 79.5t233 -79.5t107 -223.5h-157q-14 75 -64 115.5t-119 40.5z" />
<glyph unicode="&#x208;" horiz-adv-x="569" d="M137 0v1409h295v-1409h-295zM118 1787v43h235l225 -266v-34h-142zM-288 1787v43h235l225 -266v-34h-142z" />
<glyph unicode="&#x209;" horiz-adv-x="569" d="M145 0v1082h281v-1082h-281zM128 1441v43h235l225 -266v-34h-142zM-278 1441v43h235l225 -266v-34h-142z" />
<glyph unicode="&#x20a;" horiz-adv-x="569" d="M137 0v1409h295v-1409h-295zM288 1686q-68 0 -118.5 -40.5t-64.5 -115.5h-157q18 144 107 223.5t233 79.5t233 -79.5t107 -223.5h-157q-14 75 -64 115.5t-119 40.5z" />
<glyph unicode="&#x20b;" horiz-adv-x="569" d="M145 0v1082h281v-1082h-281zM286 1344q-68 0 -118.5 -40.5t-64.5 -115.5h-157q18 144 107 223.5t233 79.5t233 -79.5t107 -223.5h-157q-14 75 -64 115.5t-119 40.5z" />
<glyph unicode="&#x20c;" horiz-adv-x="1593" d="M1507 711q0 -220 -87 -387t-249 -255.5t-378 -88.5q-332 0 -520.5 195.5t-188.5 535.5q0 339 188 529t523 190t523.5 -192t188.5 -527zM1206 711q0 228 -108 357.5t-303 129.5q-198 0 -306 -128.5t-108 -358.5q0 -232 110.5 -365.5t301.5 -133.5q198 0 305.5 130 t107.5 369zM638 1788v43h235l225 -266v-34h-142zM232 1788v43h235l225 -266v-34h-142z" />
<glyph unicode="&#x20d;" horiz-adv-x="1251" d="M1171 542q0 -263 -146 -412.5t-404 -149.5q-253 0 -397 150t-144 412q0 261 144 410.5t403 149.5q265 0 404.5 -144.5t139.5 -415.5zM877 542q0 193 -63 280t-183 87q-256 0 -256 -367q0 -181 62.5 -275.5t180.5 -94.5q259 0 259 370zM478 1441v43h235l225 -266v-34h-142 zM72 1441v43h235l225 -266v-34h-142z" />
<glyph unicode="&#x20e;" horiz-adv-x="1593" d="M1507 711q0 -220 -87 -387t-249 -255.5t-378 -88.5q-332 0 -520.5 195.5t-188.5 535.5q0 339 188 529t523 190t523.5 -192t188.5 -527zM1206 711q0 228 -108 357.5t-303 129.5q-198 0 -306 -128.5t-108 -358.5q0 -232 110.5 -365.5t301.5 -133.5q198 0 305.5 130 t107.5 369zM794 1686q-68 0 -118.5 -40.5t-64.5 -115.5h-157q18 144 107 223.5t233 79.5t233 -79.5t107 -223.5h-157q-14 75 -64 115.5t-119 40.5z" />
<glyph unicode="&#x20f;" horiz-adv-x="1251" d="M1171 542q0 -263 -146 -412.5t-404 -149.5q-253 0 -397 150t-144 412q0 261 144 410.5t403 149.5q265 0 404.5 -144.5t139.5 -415.5zM877 542q0 193 -63 280t-183 87q-256 0 -256 -367q0 -181 62.5 -275.5t180.5 -94.5q259 0 259 370zM629 1344q-68 0 -118.5 -40.5 t-64.5 -115.5h-157q18 144 107 223.5t233 79.5t233 -79.5t107 -223.5h-157q-14 75 -64 115.5t-119 40.5z" />
<glyph unicode="&#x210;" horiz-adv-x="1479" d="M1105 0l-327 535h-346v-535h-295v1409h704q252 0 389 -108.5t137 -311.5q0 -148 -84 -255.5t-227 -141.5l381 -592h-332zM1070 977q0 203 -260 203h-378v-416h386q124 0 188 56t64 157zM538 1788v43h235l225 -266v-34h-142zM132 1788v43h235l225 -266v-34h-142z" />
<glyph unicode="&#x211;" horiz-adv-x="797" d="M143 0v828q0 89 -2.5 148.5t-5.5 105.5h268q3 -18 8 -109.5t5 -121.5h4q41 114 73 160.5t76 69t110 22.5q54 0 87 -15v-235q-68 15 -120 15q-105 0 -163.5 -85t-58.5 -252v-531h-281zM318 1441v43h235l225 -266v-34h-142zM-88 1441v43h235l225 -266v-34h-142z" />
<glyph unicode="&#x212;" horiz-adv-x="1479" d="M1105 0l-327 535h-346v-535h-295v1409h704q252 0 389 -108.5t137 -311.5q0 -148 -84 -255.5t-227 -141.5l381 -592h-332zM1070 977q0 203 -260 203h-378v-416h386q124 0 188 56t64 157zM715 1686q-68 0 -118.5 -40.5t-64.5 -115.5h-157q18 144 107 223.5t233 79.5 t233 -79.5t107 -223.5h-157q-14 75 -64 115.5t-119 40.5z" />
<glyph unicode="&#x213;" horiz-adv-x="797" d="M143 0v828q0 89 -2.5 148.5t-5.5 105.5h268q3 -18 8 -109.5t5 -121.5h4q41 114 73 160.5t76 69t110 22.5q54 0 87 -15v-235q-68 15 -120 15q-105 0 -163.5 -85t-58.5 -252v-531h-281zM447 1344q-68 0 -118.5 -40.5t-64.5 -115.5h-157q18 144 107 223.5t233 79.5 t233 -79.5t107 -223.5h-157q-14 75 -64 115.5t-119 40.5z" />
<glyph unicode="&#x214;" horiz-adv-x="1479" d="M723 -20q-291 0 -445.5 142t-154.5 406v881h295v-858q0 -167 79.5 -253.5t233.5 -86.5q158 0 243 90.5t85 259.5v848h295v-866q0 -268 -165.5 -415.5t-465.5 -147.5zM598 1788v43h235l225 -266v-34h-142zM192 1788v43h235l225 -266v-34h-142z" />
<glyph unicode="&#x215;" horiz-adv-x="1251" d="M408 1082v-607q0 -285 192 -285q102 0 164.5 87.5t62.5 224.5v580h281v-840q0 -138 8 -242h-268q-12 144 -12 215h-5q-56 -123 -142.5 -179t-205.5 -56q-172 0 -264 105.5t-92 309.5v687h281zM482 1441v43h235l225 -266v-34h-142zM76 1441v43h235l225 -266v-34h-142z" />
<glyph unicode="&#x216;" horiz-adv-x="1479" d="M723 -20q-291 0 -445.5 142t-154.5 406v881h295v-858q0 -167 79.5 -253.5t233.5 -86.5q158 0 243 90.5t85 259.5v848h295v-866q0 -268 -165.5 -415.5t-465.5 -147.5zM741 1686q-68 0 -118.5 -40.5t-64.5 -115.5h-157q18 144 107 223.5t233 79.5t233 -79.5t107 -223.5 h-157q-14 75 -64 115.5t-119 40.5z" />
<glyph unicode="&#x217;" horiz-adv-x="1251" d="M408 1082v-607q0 -285 192 -285q102 0 164.5 87.5t62.5 224.5v580h281v-840q0 -138 8 -242h-268q-12 144 -12 215h-5q-56 -123 -142.5 -179t-205.5 -56q-172 0 -264 105.5t-92 309.5v687h281zM620 1344q-68 0 -118.5 -40.5t-64.5 -115.5h-157q18 144 107 223.5t233 79.5 t233 -79.5t107 -223.5h-157q-14 75 -64 115.5t-119 40.5z" />
<glyph unicode="&#x218;" horiz-adv-x="1366" d="M1286 406q0 -207 -153.5 -316.5t-450.5 -109.5q-271 0 -425 96t-198 291l285 47q29 -112 113 -162.5t233 -50.5q309 0 309 188q0 60 -35.5 99t-100 65t-247.5 63q-158 37 -220 59.5t-112 53t-85 73.5t-54.5 101t-19.5 133q0 191 143.5 292.5t417.5 101.5q262 0 393.5 -82 t169.5 -271l-286 -39q-22 91 -89.5 137t-193.5 46q-268 0 -268 -168q0 -55 28.5 -90t84.5 -59.5t227 -61.5q203 -43 290.5 -79.5t138.5 -85t78 -116t27 -155.5zM838 -223q0 -73 -21.5 -131.5t-72.5 -119.5h-137q94 100 94 170h-108v207h245v-126z" />
<glyph unicode="&#x219;" horiz-adv-x="1139" d="M1055 316q0 -157 -128.5 -246.5t-355.5 -89.5q-223 0 -341.5 70.5t-157.5 219.5l247 37q21 -77 72.5 -109t179.5 -32q118 0 172 30t54 94q0 52 -43.5 82.5t-147.5 51.5q-238 47 -321 87.5t-126.5 105t-43.5 158.5q0 155 119.5 241.5t338.5 86.5q193 0 310.5 -75 t146.5 -217l-249 -26q-12 66 -59 98.5t-149 32.5q-100 0 -150 -25.5t-50 -85.5q0 -47 38.5 -74.5t129.5 -45.5q127 -26 225.5 -53.5t158 -65.5t95 -97.5t35.5 -152.5zM720 -223q0 -73 -21.5 -131.5t-72.5 -119.5h-137q94 100 94 170h-108v207h245v-126z" />
<glyph unicode="&#x21a;" horiz-adv-x="1251" d="M773 1181v-1181h-295v1181h-455v228h1206v-228h-456zM744 -204q0 -73 -21.5 -131.5t-72.5 -119.5h-137q94 100 94 170h-108v207h245v-126z" />
<glyph unicode="&#x21b;" horiz-adv-x="682" d="M420 -18q-124 0 -191 67.5t-67 204.5v638h-137v190h151l88 254h176v-254h205v-190h-205v-562q0 -79 30 -116.5t93 -37.5q33 0 94 14v-174q-104 -34 -237 -34zM528 -223q0 -73 -21.5 -131.5t-72.5 -119.5h-137q94 100 94 170h-108v207h245v-126z" />
<glyph unicode="&#x21c;" horiz-adv-x="1182" d="M1086 308q0 -95 -28.5 -174.5t-80 -146t-126 -122.5t-172 -104.5t-220 -90t-369.5 -97.5v238q241 58 362.5 108t194 106.5t112 126t39.5 155.5q0 71 -16.5 132.5t-42.5 98.5q-66 -41 -208 -94t-441 -140v225q185 56 321 106.5t219 94.5t119 100t36 143q0 104 -69.5 164.5 t-184.5 60.5q-187 0 -311 -168l-200 140q99 131 228 195.5t302 64.5q162 0 283.5 -51.5t187 -149t65.5 -222.5q0 -100 -27.5 -164.5t-108.5 -147.5q71 -76 103.5 -171t32.5 -216z" />
<glyph unicode="&#x21d;" horiz-adv-x="1065" d="M720 740q0 81 -53 129.5t-151 48.5q-83 0 -141 -43.5t-79 -127.5l-229 54q25 142 148.5 221.5t312.5 79.5q218 0 341 -96t123 -268q0 -98 -32.5 -163t-98.5 -120q60 -40 95.5 -119.5t35.5 -180.5q0 -124 -54.5 -219t-154 -164t-263.5 -120t-446 -83v217 q200 15 347.5 64.5t218 128.5t70.5 184q0 49 -14.5 95.5t-37.5 73.5q-170 -69 -584 -140v214q112 19 195 35t137 30t146 48.5t130 85.5t38 135z" />
<glyph unicode="&#x21e;" horiz-adv-x="1479" d="M1046 0v604h-614v-604h-295v1409h295v-561h614v561h295v-1409h-295zM860 1530h-229l-258 276v29h160l211 -152h4l203 152h159v-29z" />
<glyph unicode="&#x21f;" horiz-adv-x="1251" d="M420 866q57 124 143 180t205 56q172 0 264 -106t92 -310v-686h-280v606q0 285 -193 285q-102 0 -164.5 -87.5t-62.5 -224.5v-579h-281v1484h281v-405q0 -109 -8 -213h4zM760 1560h-229l-258 276v29h160l211 -152h4l203 152h159v-29z" />
<glyph unicode="&#x220;" horiz-adv-x="1439" d="M1299 -425h-291v1252q0 144 -27.5 219.5t-87 114t-156.5 38.5q-172 0 -306 -130v-1069h-291v1409h272v-130q75 70 178 110.5t215 40.5q494 0 494 -504v-1351z" />
<glyph unicode="&#x221;" horiz-adv-x="1715" d="M1108 111q115 81 259 81q168 0 262 -83.5t94 -222.5q0 -143 -103.5 -227t-274.5 -84q-102 0 -194 32t-189 108l-112 -134l-168 151q44 64 175 200q-28 74 -28 201v43h-4q-91 -196 -346 -196q-189 0 -292 147.5t-103 412.5q0 269 108.5 415.5t307.5 146.5q115 0 198.5 -48 t128.5 -143h2l-2 178v395h281v-1373zM831 547q0 175 -58.5 269.5t-172.5 94.5q-113 0 -168 -91.5t-55 -279.5q0 -368 221 -368q111 0 172 97.5t61 277.5zM1487 -120q0 51 -37.5 79.5t-99.5 28.5q-59 0 -118.5 -25.5t-95.5 -69.5q17 -51 78.5 -86.5t134.5 -35.5 q63 0 100.5 28.5t37.5 80.5z" />
<glyph unicode="&#x222;" horiz-adv-x="1292" d="M580 1158q-83 0 -123 -35.5t-40 -110.5q0 -174 229 -174q113 0 170.5 46.5t57.5 155.5q0 103 -41.5 147t-126.5 44v198q220 0 338.5 -97t118.5 -277q0 -233 -236 -312v-4q137 -29 204 -116t67 -226q0 -199 -143 -308t-407 -109q-265 0 -408 110t-143 305q0 136 69 225 t198 117v4q-120 36 -177 112.5t-57 178.5q0 152 118.5 238.5t331.5 86.5v-199zM907 420q0 221 -266 221q-124 0 -189.5 -57t-65.5 -168q0 -123 65 -180.5t200 -57.5q132 0 194 57t62 185z" />
<glyph unicode="&#x223;" horiz-adv-x="1292" d="M641 -20q-260 0 -408.5 115t-148.5 317q0 141 69.5 235t201.5 122v4q-115 47 -175.5 132t-60.5 198q0 258 298 386l106 -152q-68 -56 -93 -106t-25 -123q0 -127 62.5 -183.5t178.5 -56.5q112 0 171.5 56.5t59.5 183.5q0 72 -25 123t-93 106l106 152q298 -128 298 -386 q0 -113 -60 -198t-176 -132v-4q132 -28 201.5 -122t69.5 -235q0 -202 -149 -317t-408 -115zM641 178q266 0 266 257q0 117 -68 176.5t-198 59.5q-129 0 -197.5 -59t-68.5 -177q0 -257 266 -257z" />
<glyph unicode="&#x224;" horiz-adv-x="1251" d="M879 231q154 0 244 -72t90 -204q0 -106 -42 -232l-227 33q31 83 31 134q0 110 -133 110h-781v209l762 969h-686v231h1014v-205l-762 -973h490z" />
<glyph unicode="&#x225;" horiz-adv-x="1024" d="M68 0v199l540 680h-499v203h809v-201l-537 -677h278q334 0 334 -249q0 -106 -35 -232l-221 33q31 83 31 134q0 110 -133 110h-567z" />
<glyph unicode="&#x226;" horiz-adv-x="1479" d="M1133 0l-125 360h-537l-125 -360h-295l514 1409h348l512 -1409h-292zM739 1192l-6 -22q-10 -36 -24 -82t-172 -506h405l-139 405l-43 136zM588 1547v207h281v-207h-281z" />
<glyph unicode="&#x227;" horiz-adv-x="1139" d="M393 -20q-157 0 -245 85.5t-88 240.5q0 168 109.5 256t317.5 90l233 4v55q0 106 -37 157.5t-121 51.5q-78 0 -114.5 -35.5t-45.5 -117.5l-293 14q27 158 144.5 239.5t320.5 81.5q205 0 316 -101t111 -287v-394q0 -91 20.5 -125.5t68.5 -34.5q32 0 62 6v-152 q-25 -6 -45 -11t-40 -8t-42.5 -5t-52.5 -2q-106 0 -156.5 52t-60.5 153h-6q-118 -213 -356 -213zM720 501l-144 -2q-98 -4 -139 -21.5t-62.5 -53.5t-21.5 -96q0 -77 35.5 -114.5t94.5 -37.5q66 0 120.5 36t85.5 99.5t31 134.5v55zM432 1277v207h281v-207h-281z" />
<glyph unicode="&#x228;" horiz-adv-x="1366" d="M137 0v1409h1108v-228h-813v-354h752v-228h-752v-371h854v-228h-1149zM936 -235q0 -94 -78 -142t-225 -48q-45 0 -101 6v118q35 -7 84 -7q137 0 137 69q0 35 -28 52t-94 17q-38 0 -52 -2l62 172h143l-33 -82q94 -5 139.5 -46t45.5 -107z" />
<glyph unicode="&#x229;" horiz-adv-x="1139" d="M586 -20q-244 0 -375 144.5t-131 421.5q0 268 133 412t377 144q233 0 356 -154.5t123 -452.5v-8h-694q0 -158 58.5 -238.5t166.5 -80.5q149 0 188 129l265 -23q-115 -294 -467 -294zM586 925q-99 0 -152.5 -69t-56.5 -193h420q-8 131 -63 196.5t-148 65.5zM830 -235 q0 -94 -78 -142t-225 -48q-45 0 -101 6v118q35 -7 84 -7q137 0 137 69q0 35 -28 52t-94 17q-38 0 -52 -2l62 172h143l-33 -82q94 -5 139.5 -46t45.5 -107z" />
<glyph unicode="&#x22a;" horiz-adv-x="1593" d="M1507 711q0 -220 -87 -387t-249 -255.5t-378 -88.5q-332 0 -520.5 195.5t-188.5 535.5q0 339 188 529t523 190t523.5 -192t188.5 -527zM1206 711q0 228 -108 357.5t-303 129.5q-198 0 -306 -128.5t-108 -358.5q0 -232 110.5 -365.5t301.5 -133.5q198 0 305.5 130 t107.5 369zM1063 1466h-160v152h160v-152zM697 1466h-160v152h160v-152zM494 1835h612v-138h-612v138z" />
<glyph unicode="&#x22b;" horiz-adv-x="1251" d="M1171 542q0 -263 -146 -412.5t-404 -149.5q-253 0 -397 150t-144 412q0 261 144 410.5t403 149.5q265 0 404.5 -144.5t139.5 -415.5zM877 542q0 193 -63 280t-183 87q-256 0 -256 -367q0 -181 62.5 -275.5t180.5 -94.5q259 0 259 370zM740 1199v219h217v-219h-217z M306 1199v219h214v-219h-214zM319 1679h612v-168h-612v168z" />
<glyph unicode="&#x22c;" horiz-adv-x="1593" d="M1507 711q0 -220 -87 -387t-249 -255.5t-378 -88.5q-332 0 -520.5 195.5t-188.5 535.5q0 339 188 529t523 190t523.5 -192t188.5 -527zM1206 711q0 228 -108 357.5t-303 129.5q-198 0 -306 -128.5t-108 -358.5q0 -232 110.5 -365.5t301.5 -133.5q198 0 305.5 130 t107.5 369zM483 1835h612v-138h-612v138zM916 1461q-51 0 -135 38q-85 37 -121 37q-45 0 -67.5 -17.5t-30.5 -57.5h-91q11 82 32.5 118t59.5 56t101 20q55 0 138 -37q83 -38 117 -38q48 0 69.5 19t27.5 56h92q-12 -81 -33 -118t-58.5 -56.5t-100.5 -19.5z" />
<glyph unicode="&#x22d;" horiz-adv-x="1251" d="M1171 542q0 -263 -146 -412.5t-404 -149.5q-253 0 -397 150t-144 412q0 261 144 410.5t403 149.5q265 0 404.5 -144.5t139.5 -415.5zM877 542q0 193 -63 280t-183 87q-256 0 -256 -367q0 -181 62.5 -275.5t180.5 -94.5q259 0 259 370zM770 1177q-40 0 -80 17.5t-78 38 t-72 38t-61 17.5q-37 0 -57.5 -23.5t-30.5 -87.5h-124q8 102 29.5 153.5t63.5 81t110 29.5q41 0 82 -17t78.5 -38t71 -38t59.5 -17q44 0 62 29t27 81h122q-5 -98 -27 -150.5t-64 -83t-111 -30.5zM319 1679h612v-168h-612v168z" />
<glyph unicode="&#x22e;" horiz-adv-x="1593" d="M1507 711q0 -220 -87 -387t-249 -255.5t-378 -88.5q-332 0 -520.5 195.5t-188.5 535.5q0 339 188 529t523 190t523.5 -192t188.5 -527zM1206 711q0 228 -108 357.5t-303 129.5q-198 0 -306 -128.5t-108 -358.5q0 -232 110.5 -365.5t301.5 -133.5q198 0 305.5 130 t107.5 369zM655 1547v207h281v-207h-281z" />
<glyph unicode="&#x22f;" horiz-adv-x="1251" d="M1171 542q0 -263 -146 -412.5t-404 -149.5q-253 0 -397 150t-144 412q0 261 144 410.5t403 149.5q265 0 404.5 -144.5t139.5 -415.5zM877 542q0 193 -63 280t-183 87q-256 0 -256 -367q0 -181 62.5 -275.5t180.5 -94.5q259 0 259 370zM481 1277v207h281v-207h-281z" />
<glyph unicode="&#x230;" horiz-adv-x="1593" d="M1507 711q0 -220 -87 -387t-249 -255.5t-378 -88.5q-332 0 -520.5 195.5t-188.5 535.5q0 339 188 529t523 190t523.5 -192t188.5 -527zM1206 711q0 228 -108 357.5t-303 129.5q-198 0 -306 -128.5t-108 -358.5q0 -232 110.5 -365.5t301.5 -133.5q198 0 305.5 130 t107.5 369zM879 1466h-160v152h160v-152zM494 1835h612v-138h-612v138z" />
<glyph unicode="&#x231;" horiz-adv-x="1251" d="M1171 542q0 -263 -146 -412.5t-404 -149.5q-253 0 -397 150t-144 412q0 261 144 410.5t403 149.5q265 0 404.5 -144.5t139.5 -415.5zM877 542q0 193 -63 280t-183 87q-256 0 -256 -367q0 -181 62.5 -275.5t180.5 -94.5q259 0 259 370zM490 1222v207h281v-207h-281z M319 1679h612v-168h-612v168z" />
<glyph unicode="&#x232;" horiz-adv-x="1366" d="M831 578v-578h-294v578l-502 831h309l338 -596l342 596h309zM377 1694h612v-168h-612v168z" />
<glyph unicode="&#x233;" horiz-adv-x="1139" d="M283 -425q-101 0 -177 13v200q53 -8 97 -8q60 0 99.5 19t71 63t70.5 149l-428 1071h297l170 -507q40 -109 101 -334l25 95l65 235l160 511h294l-428 -1139q-86 -208 -178.5 -288t-238.5 -80zM267 1371h612v-168h-612v168z" />
<glyph unicode="&#x234;" horiz-adv-x="1022" d="M424 1484v-1373q115 81 259 81q168 0 262 -83.5t94 -222.5q0 -143 -103.5 -227t-274.5 -84q-102 0 -194 32t-189 108l-112 -134l-168 151q49 71 173 200q-28 74 -28 201v1351h281zM803 -120q0 51 -37.5 79.5t-99.5 28.5q-59 0 -118.5 -25.5t-95.5 -69.5 q17 -51 78.5 -86.5t134.5 -35.5q63 0 100.5 28.5t37.5 80.5z" />
<glyph unicode="&#x235;" horiz-adv-x="1707" d="M844 607q0 285 -193 285q-102 0 -164.5 -87.5t-62.5 -224.5v-580h-281v840q0 138 -8 242h268q3 -19 8 -101.5t5 -113.5h4q57 124 143 180t205 56q172 0 264 -106t92 -310v-572q58 42 114 59.5t125 17.5q168 0 262 -83.5t94 -222.5q0 -143 -103.5 -227t-274.5 -84 q-70 0 -126.5 14t-105.5 38t-131 88l-112 -134l-168 151q49 71 173 200q-27 71 -27 201v474zM1483 -120q0 51 -37.5 79.5t-99.5 28.5q-116 0 -194 -95q18 -55 71.5 -88.5t121.5 -33.5q63 0 100.5 28.5t37.5 80.5z" />
<glyph unicode="&#x236;" horiz-adv-x="1036" d="M440 541q61 44 121 62.5t143 18.5q154 0 243 -84.5t89 -221.5q0 -141 -99 -226t-254 -85q-80 0 -142.5 14t-114 39t-131.5 87l-112 -134l-168 151q49 71 173 200q-26 69 -26 165v365h-137v190h151l88 254h176v-254h205v-190h-205v-351zM800 310q0 51 -35 79.5t-85 28.5 q-133 0 -211 -95q18 -55 73 -88.5t135 -33.5q53 0 88 29.5t35 79.5z" />
<glyph unicode="&#x237;" horiz-adv-x="569" d="M138 -425q-100 0 -170 9v198l51 -4q72 0 98.5 31.5t26.5 130.5v1142h281v-1210q0 -143 -72.5 -220t-214.5 -77z" />
<glyph unicode="&#x238;" horiz-adv-x="1953" d="M1860 545q0 -268 -107.5 -416.5t-307.5 -148.5q-118 0 -206 51.5t-130 142.5h-2v-174h-261v176h-4q-43 -94 -131.5 -145t-222.5 -51q-189 0 -292 147.5t-103 412.5q0 269 108.5 415.5t307.5 146.5q115 0 198.5 -48t128.5 -143h2l-2 178v395h281v-414l-4 -176h4 q95 208 346 208q192 0 294.5 -145.5t102.5 -411.5zM840 547q0 175 -58.5 269.5t-172.5 94.5q-113 0 -168 -91.5t-55 -279.5q0 -368 221 -368q111 0 172 97.5t61 277.5zM1567 545q0 184 -54 273t-167 89q-114 0 -173.5 -95.5t-59.5 -275.5q0 -172 58.5 -268t172.5 -96 q223 0 223 373z" />
<glyph unicode="&#x239;" horiz-adv-x="1953" d="M84 540q0 268 109.5 415.5t308.5 147.5q122 0 208 -51.5t129 -143.5l1 174h258l1 -176q45 96 135 147.5t221 51.5q188 0 292.5 -145t104.5 -414q0 -271 -108.5 -418.5t-306.5 -147.5q-116 0 -201.5 51t-126.5 141h-6q6 -30 6 -182v-415h-280v450q0 95 5 155h-2 q-93 -200 -353 -200q-189 0 -292 147.5t-103 412.5zM1559 546q0 364 -223 364q-112 0 -171.5 -98t-59.5 -274q0 -175 59 -270.5t170 -95.5q225 0 225 374zM831 546q0 173 -58 268.5t-171 95.5q-225 0 -225 -370q0 -368 223 -368q110 0 170.5 97.5t60.5 276.5z" />
<glyph unicode="&#x23a;" horiz-adv-x="1479" d="M1133 0l-125 360h-320l-223 -414h-163l29 54h-280l514 1409h348l71 -196l146 271h163l-243 -452l375 -1032h-292zM537 582h107l182 338l-23 67l-43 136l-21 69l-6 -22q-10 -36 -24 -82t-172 -506zM889 734l-82 -152h135zM373 78l151 282h-53z" />
<glyph unicode="&#x23b;" horiz-adv-x="1479" d="M795 212q127 0 220 63t151 205l257 -97q-81 -202 -242 -302.5t-386 -100.5q-188 0 -327 58l-53 -92h-163l92 161q-133 97 -196.5 253t-63.5 351q0 347 179 533t519 186q168 0 291 -45l57 99h163l-93 -163q144 -99 205 -283l-260 -71q-24 74 -76 125l-477 -836 q83 -44 203 -44zM381 711q0 -235 100 -364l469 822q-72 29 -162 29q-200 0 -303.5 -124t-103.5 -363z" />
<glyph unicode="&#x23c;" horiz-adv-x="1139" d="M594 -20q-115 0 -208 33l-214 -438h-163l249 510q-178 142 -178 450q0 268 135 417.5t383 149.5q79 0 147 -17l195 399h163l-222 -455q154 -97 190 -288l-283 -14q-5 35 -20 71l-287 -590q46 -36 115 -36q80 0 134 50.5t67 150.5l282 -13q-15 -111 -79 -198t-168 -134.5 t-238 -47.5zM375 546q0 -107 18 -183l262 537q-29 9 -63 9q-217 0 -217 -363z" />
<glyph unicode="&#x23d;" horiz-adv-x="1251" d="M137 0v653h-127v203h127v553h295v-553h366v-203h-366v-425h756v-228h-1051z" />
<glyph unicode="&#x23e;" horiz-adv-x="1251" d="M1022 1181l-249 -377v-804h-295v358l-273 -412h-163l436 658v577h-455v228h987l50 75h163l-50 -75h56v-228h-207zM773 1050l86 131h-86v-131z" />
<glyph unicode="&#x23f;" horiz-adv-x="1139" d="M79 170l163 151q55 -70 139 -112.5t190 -42.5q117 0 171.5 29.5t54.5 94.5q0 52 -43.5 82.5t-147.5 51.5q-228 45 -315 85.5t-131.5 105t-44.5 160.5q0 155 119.5 241.5t338.5 86.5q193 0 310.5 -75t146.5 -217l-249 -26q-12 66 -59 98.5t-149 32.5q-100 0 -150 -25.5 t-50 -85.5q0 -48 38.5 -75.5t128.5 -45.5q258 -54 342.5 -96t128.5 -108t44 -164q0 -157 -128.5 -246.5t-355.5 -89.5q-29 0 -39 1l56 -65q63 -74 107.5 -104.5t102.5 -30.5q19 0 57.5 3.5t56.5 8.5v-201q-87 -17 -151 -17q-82 0 -149.5 31t-130.5 90.5t-187 227.5 q-79 104 -179 205q-21 20 -36 41z" />
<glyph unicode="&#x240;" horiz-adv-x="1024" d="M68 0v199l540 680h-499v203h809v-201l-537 -676q66 -14 129 -65t143 -156q76 -100 132.5 -142.5t113.5 -42.5q40 0 98 12v-219q-87 -17 -151 -17q-61 0 -112 21.5t-96.5 59t-122.5 132.5l-63 78q-111 134 -230 134h-154z" />
<glyph unicode="&#x241;" horiz-adv-x="1321" d="M590 546q165 0 255.5 89.5t90.5 256.5q0 145 -77.5 225.5t-232.5 80.5q-125 0 -203 -54.5t-111 -176.5l-260 71q58 188 206 290t368 102q286 0 446.5 -145.5t160.5 -397.5q0 -134 -56.5 -251.5t-160.5 -197t-240 -106.5v-332h-295v559q57 -13 109 -13z" />
<glyph unicode="&#x242;" horiz-adv-x="991" d="M929 674q0 -140 -75 -237.5t-221 -142.5v-294h-281v428q159 5 220.5 65.5t61.5 187.5q0 111 -35 169.5t-119 58.5q-66 0 -108.5 -49.5t-51.5 -132.5l-277 14q26 162 147 261.5t298 99.5q210 0 325.5 -112.5t115.5 -315.5z" />
<glyph unicode="&#x243;" horiz-adv-x="1479" d="M0 520h137v889h645q259 0 391 -90t132 -264q0 -120 -66.5 -202.5t-202.5 -111.5q171 -20 260.5 -107.5t89.5 -231.5q0 -192 -144 -297t-400 -105h-705v324h-137v196zM1090 425q0 99 -72 151t-212 52h-374v-108h263v-196h-263v-110h385q273 0 273 211zM1008 1015 q0 95 -61 135t-179 40h-336v-349h338q125 0 181.5 43.5t56.5 130.5z" />
<glyph unicode="&#x244;" horiz-adv-x="1479" d="M20 878h113v531h295v-531h621v531h295v-531h115v-203h-115v-132q0 -269 -161 -416t-460 -147q-286 0 -438 139.5t-152 408.5v147h-113v203zM731 211q155 0 236.5 89.5t81.5 260.5v114h-621v-124q0 -340 303 -340z" />
<glyph unicode="&#x245;" horiz-adv-x="1366" d="M1352 1h-305l-289 885q-43 149 -72 266q-26 -100 -50.5 -186t-313.5 -965h-308l521 1409h299z" />
<glyph unicode="&#x246;" horiz-adv-x="1366" d="M478 0l-53 -110h-163l53 110h-178v1409h866l47 95h163l-47 -95h79v-228h-190l-173 -354h302v-228h-413l-181 -371h696v-228h-808zM432 827h287l173 354h-460v-354zM432 238l176 361h-176v-361z" />
<glyph unicode="&#x247;" horiz-adv-x="1139" d="M586 -20q-114 0 -201 31l-213 -436h-163l247 507q-176 143 -176 464q0 268 133 412t377 144q83 0 154 -20l196 402h163l-228 -467q194 -148 194 -522v-8h-452l-139 -284q49 -35 122 -35q149 0 188 129l265 -23q-57 -148 -177 -221t-290 -73zM586 925q-99 0 -152.5 -69 t-56.5 -193h163l121 249q-37 13 -75 13zM797 663q-6 81 -28 135l-66 -135h94zM375 487q0 -80 14 -134l65 134h-79z" />
<glyph unicode="&#x248;" horiz-adv-x="1139" d="M524 -20q-219 0 -336.5 95t-156.5 307l293 43q18 -109 67 -161.5t135 -52.5q88 0 133.5 59t45.5 169v236h-241v203h241v300h-281v231h575v-531h130v-203h-130v-229q0 -220 -125 -343t-350 -123z" />
<glyph unicode="&#x249;" horiz-adv-x="569" d="M138 -425q-100 0 -170 9v198l51 -4q72 0 98.5 31.5t26.5 130.5v515h-122v203h122v424h281v-424h122v-203h-122v-583q0 -143 -72.5 -220t-214.5 -77zM144 1277v207h281v-207h-281z" />
<glyph unicode="&#x24a;" horiz-adv-x="1587" d="M1406 -32q0 -79 26.5 -117.5t87.5 -38.5q30 0 98 13v-230q-38 -9 -95.5 -14.5t-90.5 -5.5q-168 0 -237.5 87.5t-69.5 285.5v129q-158 -97 -369 -97q-206 0 -358 88t-233 251t-81 382q0 341 189 535t522 194q219 0 383 -99l164 78h64v-1441zM759 200q109 0 200.5 25.5 t151.5 72.5v811q-61 46 -145 67.5t-171 21.5q-196 0 -305 -131t-109 -366q0 -226 103 -363.5t275 -137.5z" />
<glyph unicode="&#x24b;" horiz-adv-x="1251" d="M831 911q0 32 5.5 92t11.5 79h266q-6 -105 -6 -250v-864q0 -79 26.5 -117.5t87.5 -38.5q30 0 98 13v-230q-38 -9 -95.5 -14.5t-90.5 -5.5q-166 0 -235.5 86t-69.5 287v228h-4q-91 -196 -346 -196q-189 0 -292 147.5t-103 412.5q0 269 108.5 415.5t307.5 146.5 q115 0 198.5 -48t128.5 -143h4zM831 547q0 175 -58.5 269.5t-172.5 94.5q-113 0 -168 -91.5t-55 -279.5q0 -368 221 -368q111 0 172 97.5t61 277.5z" />
<glyph unicode="&#x24c;" horiz-adv-x="1479" d="M1105 0l-327 535h-256v-535h-295v535h-227v229h227v645h614q252 0 389 -108.5t137 -311.5q0 -148 -84 -255.5t-227 -141.5l381 -592h-332zM1070 977q0 203 -260 203h-288v-416h296q124 0 188 56t64 157z" />
<glyph unicode="&#x24d;" horiz-adv-x="797" d="M27 568h116v260q0 150 -8 254h268q3 -18 8 -109.5t5 -121.5h4q41 114 73 160.5t76 69t110 22.5q54 0 87 -15v-235q-68 15 -120 15q-99 0 -156.5 -75.5t-64.5 -224.5h153v-203h-154v-365h-281v365h-116v203z" />
<glyph unicode="&#x24e;" horiz-adv-x="1366" d="M1247 1268h119v-203h-241l-294 -487v-578h-294v578l-295 487h-242v203h120l-85 141h309l80 -141h519l81 141h309zM682 813l144 252h-287z" />
<glyph unicode="&#x24f;" horiz-adv-x="1139" d="M1014 778h108v-203h-185l-237 -632q-77 -205 -172 -286.5t-245 -81.5q-101 0 -177 13v200q53 -8 97 -8q88 0 137 41.5t86 141.5l18 48l-226 564h-201v203h120l-121 304h297l102 -304h323l96 304h294zM584 241l91 334h-192z" />
<glyph unicode="&#x250;" horiz-adv-x="1139" d="M742 1102q157 0 245 -85.5t88 -240.5q0 -168 -109.5 -256t-317.5 -90l-233 -4v-55q0 -106 37 -157.5t121 -51.5q78 0 114.5 35.5t45.5 117.5l293 -14q-27 -158 -144.5 -239.5t-320.5 -81.5q-205 0 -316 101t-111 287v394q0 91 -20.5 125.5t-68.5 34.5q-32 0 -62 -6v152 q25 6 45 11t40 8t42.5 5t52.5 2q106 0 156.5 -52t60.5 -153h6q118 213 356 213zM415 581l144 2q98 4 139 21.5t62.5 53.5t21.5 96q0 77 -35.5 114.5t-94.5 37.5q-66 0 -120.5 -36t-85.5 -99.5t-31 -134.5v-55z" />
<glyph unicode="&#x251;" horiz-adv-x="1251" d="M831 911q0 32 5.5 92t11.5 79h266q-6 -105 -6 -250v-596q0 -100 8 -236h-272q-6 21 -10.5 84t-4.5 92h-4q-91 -196 -346 -196q-189 0 -292 147.5t-103 412.5q0 269 108.5 415.5t307.5 146.5q115 0 198.5 -48t128.5 -143h4zM831 547q0 175 -58.5 269.5t-172.5 94.5 q-113 0 -168 -91.5t-55 -279.5q0 -368 221 -368q111 0 172 97.5t61 277.5z" />
<glyph unicode="&#x252;" horiz-adv-x="1251" d="M418 171q0 -32 -5.5 -92t-11.5 -79h-266q6 105 6 250v596q0 100 -8 236h272q4 -15 9.5 -75.5t5.5 -100.5h4q91 196 346 196q189 0 292 -147.5t103 -412.5q0 -269 -108.5 -415.5t-307.5 -146.5q-115 0 -198.5 48t-128.5 143h-4zM418 535q0 -175 58.5 -269.5t172.5 -94.5 q113 0 168 91.5t55 279.5q0 368 -221 368q-111 0 -172 -97.5t-61 -277.5z" />
<glyph unicode="&#x253;" horiz-adv-x="1251" d="M1167 545q0 -268 -107.5 -416.5t-307.5 -148.5q-116 0 -200.5 50.5t-127.5 143.5h-2q0 -35 -4.5 -96t-9.5 -78h-273q8 93 8 247v956q0 137 88 213.5t244 76.5q26 0 92 -5t101 -12v-211q-18 5 -58.5 8.5t-56.5 3.5q-129 0 -129 -125v-82l-4 -176h4q95 208 346 208 q192 0 294.5 -145.5t102.5 -411.5zM874 545q0 184 -54 273t-167 89q-114 0 -173.5 -95.5t-59.5 -275.5q0 -172 58.5 -268t172.5 -96q223 0 223 373z" />
<glyph unicode="&#x254;" horiz-adv-x="1139" d="M545 -20q-133 0 -237.5 47.5t-168.5 134.5t-79 198l282 13q13 -100 67 -150.5t134 -50.5q221 0 221 374q0 363 -217 363q-88 0 -136 -49.5t-60 -132.5l-283 14q31 169 157 265t316 96q248 0 383 -149.5t135 -417.5q0 -262 -134 -408.5t-380 -146.5z" />
<glyph unicode="&#x255;" horiz-adv-x="1139" d="M176 -62l-168 151q58 89 132 172q-60 118 -60 274q0 268 135 417.5t383 149.5q191 0 316 -96t157 -265l-283 -14q-12 83 -60 132.5t-136 49.5q-217 0 -217 -363l2 -70q169 115 335 115q179 0 273 -71.5t94 -203.5q0 -157 -123.5 -246.5t-338.5 -89.5q-190 0 -333 107 q-47 -61 -108 -149zM833 286q0 99 -163 99q-108 0 -230 -118q65 -95 206 -95q187 0 187 114z" />
<glyph unicode="&#x256;" horiz-adv-x="1251" d="M1150 -425q-166 0 -243.5 86.5t-77.5 261.5v253h-4q-91 -196 -346 -196q-189 0 -292 147.5t-103 412.5q0 269 108.5 415.5t307.5 146.5q115 0 198.5 -48t128.5 -143h2l-2 178v395h281v-1568q0 -125 129 -125q47 0 105 12v-211q-27 -5 -83 -11t-109 -6zM831 547 q0 175 -58.5 269.5t-172.5 94.5q-113 0 -168 -91.5t-55 -279.5q0 -368 221 -368q111 0 172 97.5t61 277.5z" />
<glyph unicode="&#x257;" horiz-adv-x="1251" d="M1108 236q0 -100 8 -236h-272q-6 21 -10.5 84t-4.5 92h-4q-91 -196 -346 -196q-189 0 -292 147.5t-103 412.5q0 269 108.5 415.5t307.5 146.5q115 0 198.5 -48t128.5 -143h2l-2 178v114q0 137 88 213.5t244 76.5q26 0 92 -5t101 -12v-211q-18 5 -58.5 8.5t-56.5 3.5 q-129 0 -129 -125v-916zM831 547q0 175 -58.5 269.5t-172.5 94.5q-113 0 -168 -91.5t-55 -279.5q0 -368 221 -368q111 0 172 97.5t61 277.5z" />
<glyph unicode="&#x258;" horiz-adv-x="1139" d="M553 -20q-172 0 -291 73t-176 221l265 23q39 -129 188 -129q108 0 166.5 80.5t58.5 238.5h-694v8q0 298 123 452.5t356 154.5q244 0 377 -144.5t133 -411.5q0 -275 -130.5 -420.5t-375.5 -145.5zM553 925q-93 0 -148 -65.5t-63 -196.5h420q-4 125 -57 193.5t-152 68.5z " />
<glyph unicode="&#x259;" horiz-adv-x="1139" d="M563 1102q244 0 375 -144.5t131 -421.5q0 -268 -133 -412t-377 -144q-233 0 -356 154.5t-123 452.5v8h694q0 158 -58.5 238.5t-166.5 80.5q-149 0 -188 -129l-265 23q115 294 467 294zM563 157q99 0 152.5 69t56.5 193h-420q8 -131 63 -196.5t148 -65.5z" />
<glyph unicode="&#x25a;" horiz-adv-x="1601" d="M563 1102q183 0 307 -85.5t172 -259.5l190 38l28 -137q16 -77 43.5 -106t90.5 -29q42 0 75.5 11.5t71.5 31.5l69 -180q-124 -56 -254 -56q-115 0 -183 53.5t-105 176.5v-24q0 -267 -132.5 -411.5t-376.5 -144.5q-233 0 -356 154.5t-123 452.5v8l686 101q-34 218 -217 218 q-149 0 -188 -129l-265 23q115 294 467 294zM563 157q220 0 220 343l-432 -65q21 -278 212 -278z" />
<glyph unicode="&#x25b;" horiz-adv-x="1018" d="M525 -20q-218 0 -337 83t-119 231q0 108 74 181t192 89v4q-111 19 -172 82.5t-61 160.5q0 128 111.5 209.5t289.5 81.5q182 0 297 -77t141 -224l-237 -22q-8 68 -57 106t-127 38q-72 0 -111 -33.5t-39 -93.5q0 -77 67 -112.5t216 -35.5v-177q-161 0 -228 -38t-67 -122 q0 -64 44.5 -103.5t124.5 -39.5q72 0 126 44.5t71 119.5l241 -44q-41 -148 -151 -228t-289 -80z" />
<glyph unicode="&#x25c;" horiz-adv-x="1018" d="M493 -20q-179 0 -289 80t-151 228l241 44q17 -74 70.5 -119t126.5 -45q80 0 124.5 39.5t44.5 103.5q0 84 -67 122t-228 38v177q150 0 216.5 35.5t66.5 112.5q0 60 -39 93.5t-111 33.5q-79 0 -127.5 -38.5t-56.5 -105.5l-237 22q25 147 140.5 224t297.5 77 q180 0 290.5 -77.5t110.5 -203.5q0 -98 -62.5 -163t-185.5 -91v-2q128 -14 204.5 -85.5t76.5 -175.5q0 -151 -120.5 -237.5t-335.5 -86.5z" />
<glyph unicode="&#x25d;" horiz-adv-x="1415" d="M483 -20q-179 0 -289 80t-151 228l241 44q17 -74 70.5 -119t126.5 -45q80 0 124.5 39.5t44.5 103.5q0 84 -67 122t-228 38v177q150 0 216.5 35.5t66.5 112.5q0 60 -39 93.5t-111 33.5q-79 0 -127.5 -38.5t-56.5 -105.5l-237 22q25 147 140.5 224t297.5 77 q133 0 227.5 -42.5t139.5 -115.5l154 29l22 -120q28 -150 137 -150q42 0 75.5 11.5t71.5 31.5l69 -180q-124 -56 -254 -56q-102 0 -172.5 48t-102.5 136q-58 -93 -214 -127v-2q128 -14 204.5 -85.5t76.5 -175.5q0 -151 -120.5 -237.5t-335.5 -86.5z" />
<glyph unicode="&#x25e;" horiz-adv-x="1162" d="M628 923q-125 0 -193 -94.5t-68 -286.5q0 -179 66.5 -276.5t187.5 -97.5q80 0 124.5 39.5t44.5 103.5q0 84 -46.5 119.5t-178.5 35.5v182q118 0 165.5 34.5t47.5 113.5q0 60 -39 93.5t-111 33.5zM624 1102q184 0 303 -79t119 -202q0 -203 -228 -256q125 -13 193 -79 t68 -172q0 -153 -124 -243.5t-337 -90.5q-252 0 -394 150t-142 412q0 261 142 410.5t400 149.5z" />
<glyph unicode="&#x25f;" horiz-adv-x="682" d="M228 190v892h280v-892h158v-190h-158v-136q0 -147 -78 -218t-237 -71q-79 0 -178 16v181q41 -9 82 -9q72 0 101.5 28.5t29.5 100.5v108h-213v190h213z" />
<glyph unicode="&#x260;" horiz-adv-x="1251" d="M1108 33q0 -231 -131 -349t-381 -118q-198 0 -318.5 75.5t-148.5 215.5l281 33q15 -65 64.5 -102t129.5 -37q117 0 171 72t54 214v57l2 107h-2q-93 -199 -348 -199q-192 0 -294.5 143t-102.5 405q0 265 107 409t311 144q236 0 327 -195h5v295q0 138 86 214t239 76 q26 0 92 -5t101 -12v-211q-18 5 -58.5 8.5t-56.5 3.5q-129 0 -129 -125v-1119zM831 556q0 167 -59.5 260.5t-169.5 93.5q-225 0 -225 -360q0 -353 223 -353q112 0 171.5 93.5t59.5 265.5z" />
<glyph unicode="&#x261;" horiz-adv-x="1251" d="M596 -434q-198 0 -318.5 75.5t-148.5 215.5l281 33q15 -65 64.5 -102t129.5 -37q117 0 171 72t54 214v57l2 107h-2q-93 -199 -348 -199q-189 0 -293 142t-104 406q0 265 107 409t311 144q236 0 327 -195h5q0 35 4.5 95t9.5 79h266q-6 -108 -6 -250v-799q0 -231 -131 -349 t-381 -118zM831 556q0 167 -59.5 260.5t-169.5 93.5q-225 0 -225 -360q0 -353 223 -353q112 0 171.5 93.5t59.5 265.5z" />
<glyph unicode="&#x262;" horiz-adv-x="1200" d="M858 357h-202v209h471v-454q-122 -72 -237.5 -102t-245.5 -30q-264 0 -414 146.5t-150 408.5q0 264 148 415.5t400 151.5q192 0 319 -87t169 -249l-278 -39q-24 164 -206 164q-125 0 -191 -88.5t-66 -256.5q0 -176 71.5 -269t209.5 -93q67 0 112.5 10.5t89.5 33.5v129z " />
<glyph unicode="&#x263;" horiz-adv-x="1139" d="M745 271l67 -121q98 -177 98 -278q0 -146 -86.5 -225t-245.5 -79q-158 0 -247 81.5t-89 222.5q0 58 32.5 146.5t114.5 236.5l-381 827h297l260 -615l271 615h294zM658 -129q0 49 -23.5 116.5t-63.5 137.5q-86 -161 -86 -254q0 -52 22 -81.5t64 -29.5t64.5 29t22.5 82z " />
<glyph unicode="&#x264;" horiz-adv-x="1230" d="M621 172q37 0 60 24t23 65q0 35 -17.5 81.5t-65.5 122.5q-49 -80 -66 -125.5t-17 -78.5q0 -41 22.5 -65t60.5 -24zM621 -20q-310 0 -310 248q0 60 25 130.5t125 247.5l-84 171q-41 88 -130 88q-80 0 -166 -71l-71 198q125 110 271 110q185 0 268 -160l73 -136l71 136 q43 83 108.5 121.5t159.5 38.5q146 0 271 -110l-71 -198q-86 71 -166 71q-89 0 -130 -88l-84 -171q74 -130 99 -184t38 -101.5t13 -92.5q0 -248 -310 -248z" />
<glyph unicode="&#x265;" horiz-adv-x="1251" d="M408 1082v-607q0 -285 192 -285q102 0 164.5 87.5t62.5 224.5v580h281v-1507h-277v610q-46 -106 -137.5 -155.5t-210.5 -49.5q-172 0 -264 106t-92 309v687h281z" />
<glyph unicode="&#x266;" horiz-adv-x="1251" d="M420 866q57 124 143 180t205 56q172 0 264 -106t92 -310v-686h-280v606q0 285 -193 285q-102 0 -164.5 -87.5t-62.5 -224.5v-579h-281v1203q0 137 88 213.5t244 76.5q26 0 92 -5t101 -12v-211q-18 5 -58.5 8.5t-56.5 3.5q-129 0 -129 -125v-73q0 -109 -8 -213h4z" />
<glyph unicode="&#x267;" horiz-adv-x="1251" d="M420 866q57 124 143 180t205 56q172 0 264 -106t92 -310v-763q0 -177 -78.5 -262.5t-242.5 -85.5q-48 0 -106 5.5t-86 11.5v211q58 -12 105 -12q128 0 128 125v690q0 285 -193 285q-102 0 -164.5 -87.5t-62.5 -224.5v-579h-281v1203q0 137 88 213.5t244 76.5q26 0 92 -5 t101 -12v-211q-18 5 -58.5 8.5t-56.5 3.5q-129 0 -129 -125v-73q0 -109 -8 -213h4z" />
<glyph unicode="&#x268;" horiz-adv-x="569" d="M22 658h121v424h281v-424h123v-203h-123v-455h-281v455h-121v203zM143 1277v207h281v-207h-281z" />
<glyph unicode="&#x269;" horiz-adv-x="569" d="M108 1082h281v-746q0 -63 27 -93.5t89 -30.5q29 0 64 6v-225q-91 -13 -151 -13q-163 0 -236.5 88t-73.5 275v739z" />
<glyph unicode="&#x26a;" horiz-adv-x="830" d="M274 874h-206v208h694v-208h-207v-666h207v-208h-694v208h206v666z" />
<glyph unicode="&#x26b;" horiz-adv-x="680" d="M199 0v731q-42 -2 -56 -24.5t-14 -77.5h-129q0 144 49 205t150 67v583h281v-705q39 2 56 24t17 79h127q0 -150 -47.5 -209t-152.5 -64v-609h-281z" />
<glyph unicode="&#x26c;" horiz-adv-x="729" d="M707 487h-119v-487h-281v488h-18q-120 0 -194.5 73t-74.5 185q0 114 73.5 187t190.5 73h23v478h281v-820h119v-177zM307 664v164h-18q-96 0 -96 -80q0 -84 96 -84h18z" />
<glyph unicode="&#x26d;" horiz-adv-x="569" d="M466 -425q-165 0 -244 85.5t-79 262.5v1561h281v-1568q0 -125 129 -125q47 0 105 12v-211q-27 -5 -83 -11t-109 -6z" />
<glyph unicode="&#x26e;" horiz-adv-x="1236" d="M143 0v1484h281v-402h712v-195l-297 -366q169 -29 263 -145.5t94 -298.5q0 -233 -147.5 -368t-393.5 -135q-177 0 -302 68t-179 197l257 60q77 -139 231 -139q130 0 189 73t59 228q0 147 -77.5 214t-254.5 67h-25v189l279 348h-408v-879h-281z" />
<glyph unicode="&#x26f;" horiz-adv-x="1821" d="M1041 1082v-607q0 -285 164 -285q86 0 139 87t53 225v580h281v-840q0 -87 2.5 -142.5t5.5 -99.5h-268q-3 20 -8 102t-5 113h-4q-52 -124 -129.5 -180t-185.5 -56q-248 0 -301 236h-6q-55 -126 -132 -181t-196 -55q-158 0 -241 107.5t-83 308.5v687h279v-607 q0 -285 164 -285q82 0 134.5 79.5t57.5 219.5v593h279z" />
<glyph unicode="&#x270;" horiz-adv-x="1821" d="M1041 1082v-607q0 -285 164 -285q86 0 139 87t53 225v580h281v-1507h-273v627q-50 -115 -127.5 -169t-191.5 -54q-248 0 -301 236h-6q-55 -126 -132 -181t-196 -55q-158 0 -241 107.5t-83 308.5v687h279v-607q0 -285 164 -285q86 0 139 85t53 214v593h279z" />
<glyph unicode="&#x271;" horiz-adv-x="1821" d="M780 0v607q0 285 -164 285q-85 0 -138.5 -87t-53.5 -225v-580h-281v840q0 138 -8 242h268q3 -19 8 -101.5t5 -113.5h4q52 124 129.5 180t185.5 56q248 0 301 -236h6q51 123 129 179.5t199 56.5q158 0 241 -107.5t83 -308.5v-764q0 -177 -78.5 -262.5t-242.5 -85.5 q-48 0 -106 5.5t-86 11.5v211q58 -12 105 -12q129 0 129 125v691q0 285 -164 285q-85 0 -138.5 -83t-53.5 -216v-593h-279z" />
<glyph unicode="&#x272;" horiz-adv-x="1251" d="M143 840q0 138 -8 242h268q3 -19 8 -101.5t5 -113.5h4q57 124 143 180t205 56q172 0 264 -106t92 -310v-687h-280v607q0 285 -193 285q-102 0 -164.5 -87.5t-62.5 -224.5v-657q0 -177 -79 -262.5t-244 -85.5q-48 0 -106 5.5t-86 11.5v211q58 -12 105 -12q129 0 129 125 v924z" />
<glyph unicode="&#x273;" horiz-adv-x="1251" d="M844 607q0 285 -193 285q-102 0 -164.5 -87.5t-62.5 -224.5v-580h-281v840q0 138 -8 242h268q3 -19 8 -101.5t5 -113.5h4q57 124 143 180t205 56q172 0 264 -106t92 -310v-771q0 -125 129 -125q47 0 105 12v-211q-27 -5 -83 -11t-109 -6q-166 0 -244 86t-78 262v684z" />
<glyph unicode="&#x274;" horiz-adv-x="1259" d="M1118 0h-260l-478 759q10 -104 10 -206v-553h-250v1082h286l452 -747q-10 135 -10 217v530h250v-1082z" />
<glyph unicode="&#x275;" horiz-adv-x="1251" d="M1171 542q0 -263 -146 -412.5t-404 -149.5q-253 0 -397 150t-144 412q0 261 144 410.5t403 149.5q265 0 404.5 -144.5t139.5 -415.5zM631 909q-226 0 -257 -277h504q-29 277 -247 277zM618 172q223 0 257 262h-499q19 -130 81.5 -196t160.5 -66z" />
<glyph unicode="&#x276;" horiz-adv-x="1707" d="M901 53q-119 -73 -280 -73q-253 0 -397 150t-144 412q0 261 144 410.5t403 149.5q157 0 274 -67v47h713v-203h-445v-223h405v-203h-405v-248h445v-205h-713v53zM887 542q0 367 -256 367t-256 -367q0 -181 62.5 -275.5t180.5 -94.5q269 0 269 370z" />
<glyph unicode="&#x277;" horiz-adv-x="1730" d="M865 906q-253 0 -377.5 -98t-124.5 -304q0 -176 47 -254t144 -78q86 0 134.5 78.5t48.5 219.5v187h258v-187q0 -142 47 -220t132 -78q193 0 193 332q0 212 -120 307t-382 95zM865 1102q387 0 585.5 -151t198.5 -447q0 -254 -112.5 -389t-322.5 -135q-276 0 -347 238h-4 q-71 -238 -347 -238q-207 0 -321 138t-114 386q0 598 784 598z" />
<glyph unicode="&#x278;" horiz-adv-x="1535" d="M632 -425v405q-254 8 -403 157t-149 405q0 259 145 405.5t407 154.5v382h273v-382q262 -8 407 -154.5t145 -405.5q0 -256 -149 -405.5t-403 -156.5v-405h-273zM1168 542q0 174 -63 264.5t-200 102.5v-737q127 9 195 104t68 266zM369 542q0 -173 68.5 -267t194.5 -103v737 q-136 -11 -199.5 -101.5t-63.5 -265.5z" />
<glyph unicode="&#x279;" horiz-adv-x="797" d="M654 1082v-828q0 -89 2.5 -148.5t5.5 -105.5h-268q-3 18 -8 109.5t-5 121.5h-4q-41 -114 -73 -160.5t-76 -69t-110 -22.5q-54 0 -87 15v235q67 -15 120 -15q105 0 163.5 85t58.5 252v531h281z" />
<glyph unicode="&#x27a;" horiz-adv-x="797" d="M654 1484v-1230q0 -89 2.5 -148.5t5.5 -105.5h-268q-3 18 -8 109.5t-5 121.5h-4q-41 -114 -73 -160.5t-76 -69t-110 -22.5q-54 0 -87 15v235q67 -15 120 -15q105 0 163.5 85t58.5 252v933h281z" />
<glyph unicode="&#x27b;" horiz-adv-x="797" d="M654 1082v-1166q0 -125 129 -125q47 0 105 12v-211q-27 -5 -83 -11t-109 -6q-161 0 -234 83t-73 265v302h-4q-51 -144 -110 -195t-157 -51q-54 0 -87 15v235q67 -15 120 -15q105 0 163.5 85t58.5 252v531h281z" />
<glyph unicode="&#x27c;" horiz-adv-x="797" d="M143 -425v1253q0 150 -8 254h268q3 -18 8 -109.5t5 -121.5h4q41 114 73 160.5t76 69t110 22.5q54 0 87 -15v-235q-68 15 -120 15q-105 0 -163.5 -85t-58.5 -252v-956h-281z" />
<glyph unicode="&#x27d;" horiz-adv-x="797" d="M143 828q0 150 -8 254h268q3 -18 8 -109.5t5 -121.5h4q41 114 73 160.5t76 69t110 22.5q54 0 87 -15v-235q-68 15 -120 15q-105 0 -163.5 -85t-58.5 -252v-615q0 -125 129 -125q47 0 105 12v-211q-27 -5 -83 -11t-109 -6q-165 0 -244 85.5t-79 262.5v905z" />
<glyph unicode="&#x27e;" horiz-adv-x="797" d="M786 845q-57 23 -148 23q-214 0 -214 -313v-555h-281v554q0 274 109.5 411t341.5 137q119 0 192 -25v-232z" />
<glyph unicode="&#x27f;" horiz-adv-x="797" d="M10 1077q73 25 192 25q232 0 341.5 -137t109.5 -411v-979h-281v980q0 313 -214 313q-91 0 -148 -23v232z" />
<glyph unicode="&#x280;" horiz-adv-x="1195" d="M420 435v-435h-282v1082h487q239 0 356.5 -78t117.5 -236q0 -119 -58.5 -194t-171.5 -103l322 -471h-310l-272 435h-189zM418 607h208q189 0 189 149q0 151 -205 151h-192v-300z" />
<glyph unicode="&#x281;" horiz-adv-x="1195" d="M609 647l272 435h310l-322 -471q113 -27 171.5 -103t58.5 -194q0 -158 -117.5 -236t-356.5 -78h-487v1082h282v-435h189zM418 175h192q205 0 205 151q0 149 -189 149h-208v-300z" />
<glyph unicode="&#x282;" horiz-adv-x="1139" d="M319 307q21 -77 72.5 -109t179.5 -32q117 0 171.5 29.5t54.5 94.5q0 52 -43.5 82.5t-147.5 51.5q-228 45 -315 85.5t-131.5 105t-44.5 160.5q0 155 119.5 241.5t338.5 86.5q193 0 310.5 -75t146.5 -217l-249 -26q-12 66 -59 98.5t-149 32.5q-100 0 -150 -25.5t-50 -85.5 q0 -48 38.5 -75.5t128.5 -45.5q258 -54 342.5 -96t128.5 -108t44 -164q0 -157 -128.5 -246.5t-355.5 -89.5q-149 0 -246 46v-116q0 -125 129 -125q47 0 105 12v-205q-87 -17 -166 -17q-166 0 -243.5 86.5t-77.5 261.5v347z" />
<glyph unicode="&#x283;" horiz-adv-x="682" d="M123 -425q-43 0 -89 7t-66 14v213q55 -21 127 -21q66 0 96.5 40t30.5 157v1126q0 200 94 290.5t288 90.5q89 0 155 -19v-215q-42 21 -119 21q-71 0 -104 -44t-33 -151v-1128q0 -199 -93 -290t-287 -91z" />
<glyph unicode="&#x284;" horiz-adv-x="682" d="M11 190h211v921q0 200 94 290.5t288 90.5q89 0 155 -19v-215q-42 21 -119 21q-71 0 -104 -44t-33 -151v-894h155v-190h-155v-44q0 -199 -93 -290t-287 -91q-43 0 -89 7t-66 14v213q55 -21 127 -21q66 0 96.5 40t30.5 157v15h-211v190z" />
<glyph unicode="&#x285;" horiz-adv-x="682" d="M560 -425q-193 0 -286.5 90.5t-93.5 290.5v737q0 107 -33.5 151t-103.5 44q-72 0 -114 -21v215q67 19 150 19q193 0 287.5 -90t94.5 -291v-735q0 -87 12.5 -123t40 -55t74.5 -19q67 0 122 21v-213q-65 -21 -150 -21z" />
<glyph unicode="&#x286;" horiz-adv-x="1105" d="M643 1111q0 200 94 290.5t288 90.5q89 0 155 -19v-215q-42 21 -119 21q-71 0 -104 -44t-33 -151v-951q0 -120 -28 -201q124 -129 173 -200l-168 -151l-112 134q-98 -77 -190.5 -108.5t-192.5 -31.5q-172 0 -275 84t-103 227q0 140 94 223t262 83q144 0 259 -81v1000z M264 -120q0 -53 38 -81t100 -28q72 0 134 35t79 87q-36 45 -95.5 70t-118.5 25q-63 0 -100 -28.5t-37 -79.5z" />
<glyph unicode="&#x287;" horiz-adv-x="682" d="M262 1355q124 0 191 -67.5t67 -204.5v-638h137v-190h-151l-88 -254h-176v254h-205v190h205v562q0 79 -30 116.5t-93 37.5q-33 0 -94 -14v174q104 34 237 34z" />
<glyph unicode="&#x288;" horiz-adv-x="682" d="M429 -425q-124 0 -195.5 75t-71.5 211v1031h-137v190h151l88 254h176v-254h205v-190h-205v-949q0 -79 25 -115.5t88 -36.5q53 0 104 12v-211q-94 -17 -228 -17z" />
<glyph unicode="&#x289;" horiz-adv-x="1251" d="M408 1082v-409h419v409h281v-409h120v-177h-120v-254q0 -87 2.5 -142.5t5.5 -99.5h-268q-4 25 -7.5 97t-4.5 118h-5q-107 -235 -348 -235q-172 0 -264 106t-92 309v101h-107v177h107v409h281zM600 190q98 0 162.5 77.5t64.5 199.5v29h-419v-21q0 -285 192 -285z" />
<glyph unicode="&#x28a;" horiz-adv-x="1272" d="M1197 879h-97q-66 0 -66 -47q0 -21 23 -59.5t51 -90t51 -114.5t23 -132q0 -139 -69.5 -243t-194.5 -158.5t-285 -54.5q-161 0 -284 53.5t-191 156t-68 246.5q0 52 11.5 98t29.5 87t70 125q38 61 38 86q0 47 -66 47h-98v203h202q92 0 149.5 -53t57.5 -146q0 -47 -17.5 -95 t-38.5 -99.5t-38.5 -109.5t-17.5 -124q0 -127 72.5 -205t192.5 -78q121 0 192 78t71 205q0 64 -17.5 121.5t-38 110t-38 101.5t-17.5 95q0 89 57 144t150 55h201v-203z" />
<glyph unicode="&#x28b;" horiz-adv-x="1192" d="M767 1102q163 0 247 -104t84 -335q0 -331 -132.5 -507t-381.5 -176q-237 0 -347 109t-110 344v649h281v-622q0 -146 47 -209.5t146 -63.5q225 0 225 455q0 134 -34 190.5t-103 56.5q-19 0 -58 -4t-57 -8v208q37 7 100 12t93 5z" />
<glyph unicode="&#x28c;" horiz-adv-x="1139" d="M407 1082h336l387 -1082h-297l-189 605q-15 50 -71 250q-10 -41 -41 -144t-230 -711h-294z" />
<glyph unicode="&#x28d;" horiz-adv-x="1593" d="M278 1082h297l172 -660q16 -68 47 -221l52 223l174 658h297l280 -1082h-264l-178 827l-14 -74l-25 -117l-170 -636h-301l-166 636l-36 165l-5 25l-15 -72l-169 -754h-260z" />
<glyph unicode="&#x28e;" horiz-adv-x="1139" d="M861 1507q101 0 177 -13v-200q-53 8 -97 8q-88 0 -137 -41.5t-86 -141.5l-18 -48l428 -1071h-297l-170 507q-12 34 -51 163.5t-50 170.5l-24 -94l-66 -236l-160 -511h-294l428 1139q77 205 172 286.5t245 81.5z" />
<glyph unicode="&#x28f;" horiz-adv-x="1169" d="M445 0v440l-422 642h297l265 -428l266 428h294l-419 -642v-440h-281z" />
<glyph unicode="&#x290;" horiz-adv-x="1024" d="M967 -90q0 -125 129 -125q47 0 105 12v-205q-87 -17 -166 -17q-166 0 -243.5 86.5t-77.5 261.5v77h-646v199l540 680h-499v203h809v-201l-537 -676h586v-295z" />
<glyph unicode="&#x291;" horiz-adv-x="1392" d="M445 -96q8 19 53 96h-430v199l540 680h-499v203h809v-201l-537 -676h245q123 191 227 272.5t228 81.5q130 0 205.5 -72t75.5 -195q0 -139 -90.5 -215.5t-264.5 -76.5h-271q-49 -86 -104 -203zM1148 288q0 72 -80 72q-49 0 -92 -39t-100 -116h162q51 0 80.5 21.5 t29.5 61.5z" />
<glyph unicode="&#x292;" horiz-adv-x="1078" d="M515 -232q130 0 183.5 68.5t53.5 225.5q0 145 -82 213t-263 68h-102v189l339 347h-568v203h902v-195l-363 -365q197 -19 310 -136.5t113 -307.5q0 -237 -139.5 -370t-381.5 -133q-210 0 -341.5 101t-155.5 280l277 13q11 -91 70.5 -146t147.5 -55z" />
<glyph unicode="&#x293;" horiz-adv-x="1078" d="M877 -413q-25 47 -62 104q-150 -116 -346 -116q-138 0 -237.5 40.5t-152.5 113t-53 163.5q0 144 99.5 220.5t290.5 76.5q163 0 343 -128q0 140 -87 211t-269 71h-112v189l339 347h-568v203h902v-195l-363 -365q197 -19 310 -136.5t113 -307.5q0 -105 -56 -211 q56 -70 105 -144zM267 -113q0 -56 55.5 -89t137.5 -33q150 0 227 84q-138 133 -271 133q-81 0 -115 -27.5t-34 -67.5z" />
<glyph unicode="&#x294;" horiz-adv-x="1139" d="M401 0v623q46 -12 76 -15t63 -3q228 0 228 322q0 141 -53 206t-171 65q-82 0 -138 -53t-69 -143l-271 67q31 167 159 264t320 97q245 0 378.5 -138t133.5 -391q0 -203 -99.5 -340t-273.5 -167v-394h-283z" />
<glyph unicode="&#x295;" horiz-adv-x="1139" d="M455 0v394q-173 29 -273 166.5t-100 340.5q0 253 133.5 391t378.5 138q193 0 320.5 -97t158.5 -264l-271 -67q-13 90 -68.5 143t-138.5 53q-118 0 -171 -65t-53 -206q0 -322 228 -322q34 0 64.5 3t74.5 15v-623h-283z" />
<glyph unicode="&#x296;" horiz-adv-x="1139" d="M684 1409v-394q174 -30 273.5 -167.5t99.5 -339.5q0 -253 -133.5 -391t-378.5 -138q-193 0 -320.5 97t-158.5 264l271 67q13 -90 68.5 -143t138.5 -53q118 0 171 65t53 206q0 322 -228 322q-34 0 -64.5 -3t-74.5 -15v623h283z" />
<glyph unicode="&#x297;" horiz-adv-x="1139" d="M84 535q0 272 135 419.5t379 147.5q191 0 316 -96t157 -265l-283 -14q-12 83 -60 132.5t-136 49.5q-113 0 -169.5 -78.5t-56.5 -254.5v-465q0 -173 55.5 -258.5t174.5 -85.5q80 0 134 50.5t67 150.5l282 -13q-15 -111 -79 -198t-168 -134.5t-238 -47.5q-246 0 -378 146.5 t-132 408.5v405z" />
<glyph unicode="&#x298;" horiz-adv-x="1593" d="M1507 711q0 -220 -87 -387t-249 -255.5t-378 -88.5q-332 0 -520.5 195.5t-188.5 535.5q0 339 188 529t523 190t523.5 -192t188.5 -527zM1206 711q0 228 -108 357.5t-303 129.5q-198 0 -306 -128.5t-108 -358.5q0 -232 110.5 -365.5t301.5 -133.5q198 0 305.5 130 t107.5 369zM651 568v305h289v-305h-289z" />
<glyph unicode="&#x299;" horiz-adv-x="1259" d="M143 1082h602q189 0 293 -69t104 -208q0 -95 -49 -156t-132 -87q107 -28 162.5 -95.5t55.5 -167.5q0 -138 -106.5 -218.5t-280.5 -80.5h-649v1082zM418 641h240q88 0 126.5 12.5t60 39.5t21.5 75q0 47 -21 73.5t-57 38.5t-130 12h-240v-251zM418 180h251 q117 0 168.5 35.5t51.5 108.5q0 70 -47.5 103t-172.5 33h-251v-280z" />
<glyph unicode="&#x29a;" horiz-adv-x="1162" d="M533 923q-72 0 -111 -33.5t-39 -93.5q0 -79 47 -113.5t166 -34.5v-182q-133 0 -179 -36t-46 -119q0 -64 44.5 -103.5t124.5 -39.5q121 0 187.5 98t66.5 276q0 192 -68 286.5t-193 94.5zM537 1102q258 0 400 -149.5t142 -410.5q0 -262 -142.5 -412t-393.5 -150 q-213 0 -337 91t-124 243q0 106 68.5 172t192.5 79q-228 53 -228 256q0 123 119.5 202t302.5 79z" />
<glyph unicode="&#x29b;" horiz-adv-x="1200" d="M838 727q-24 164 -206 164q-125 0 -191 -88.5t-66 -256.5q0 -176 71.5 -269t209.5 -93q67 0 112.5 10.5t89.5 33.5v129h-202v209h471v-454q-122 -72 -237.5 -102t-245.5 -30q-264 0 -414 146.5t-150 408.5q0 264 148 415.5t400 151.5q125 0 229 -55q15 281 307 281 q75 0 152 -17v-201q-58 12 -88 12q-59 0 -85.5 -34.5t-26.5 -106.5v-215z" />
<glyph unicode="&#x29c;" horiz-adv-x="1237" d="M425 1082v-428h387v428h282v-1082h-282v463h-387v-463h-282v1082h282z" />
<glyph unicode="&#x29d;" horiz-adv-x="939" d="M390 -425q-165 0 -262 87.5t-97 235.5q0 145 96 226t281 81h103v877h281v-877h156v-205h-156v-18q0 -198 -103 -302.5t-299 -104.5zM511 1277v207h281v-207h-281zM375 -227q78 0 107 42.5t29 126.5v58h-114q-143 0 -143 -116q0 -48 30 -79.5t91 -31.5z" />
<glyph unicode="&#x29e;" horiz-adv-x="1139" d="M310 1082l289 -490l121 84v406h281v-1484h-281v850l-386 -448h-302l380 422l-409 660h307z" />
<glyph unicode="&#x29f;" horiz-adv-x="926" d="M853 0h-717v1082h281v-877h436v-205z" />
<glyph unicode="&#x2a0;" horiz-adv-x="1251" d="M829 -425v450q0 95 5 155h-2q-93 -200 -353 -200q-189 0 -292 147.5t-103 412.5q0 268 109.5 415.5t308.5 147.5q244 0 340 -197v297q0 142 83 216t231 74q75 0 152 -17v-201q-58 12 -88 12q-59 0 -85.5 -34.5t-26.5 -106.5v-1571h-279zM831 546q0 173 -58 268.5 t-171 95.5q-225 0 -225 -370q0 -368 223 -368q110 0 170.5 97.5t60.5 276.5z" />
<glyph unicode="&#x2a1;" horiz-adv-x="1139" d="M66 320h335v303q46 -12 76 -15t63 -3q228 0 228 322q0 141 -53 206t-171 65q-82 0 -138 -53t-69 -143l-271 67q31 167 159 264t320 97q245 0 378.5 -138t133.5 -391q0 -203 -99.5 -340t-273.5 -167v-74h334v-186h-334v-134h-283v134h-335v186z" />
<glyph unicode="&#x2a2;" horiz-adv-x="1139" d="M460 0v134h-334v186h334v74q-173 29 -273 166.5t-100 340.5q0 253 133.5 391t378.5 138q193 0 320.5 -97t158.5 -264l-271 -67q-13 90 -68.5 143t-138.5 53q-118 0 -171 -65t-53 -206q0 -322 228 -322q34 0 64.5 3t74.5 15v-303h335v-186h-335v-134h-283z" />
<glyph unicode="&#x2a3;" horiz-adv-x="2111" d="M844 0q-6 21 -10.5 84t-4.5 92h-4q-91 -196 -346 -196q-189 0 -292 147.5t-103 412.5q0 269 108.5 415.5t307.5 146.5q115 0 198.5 -48t128.5 -143h2l-2 178v395h281v-402h914v-201l-607 -676h656v-205h-1227zM831 547q0 175 -58.5 269.5t-172.5 94.5q-113 0 -168 -91.5 t-55 -279.5q0 -368 221 -368q111 0 172 97.5t61 277.5zM1108 879v-680l604 680h-604z" />
<glyph unicode="&#x2a4;" horiz-adv-x="1929" d="M844 0q-6 21 -10.5 84t-4.5 92h-4q-91 -196 -346 -196q-189 0 -292 147.5t-103 412.5q0 269 108.5 415.5t307.5 146.5q115 0 198.5 -48t128.5 -143h2l-2 178v395h281v-402h721v-195l-297 -366q169 -29 263 -145.5t94 -298.5q0 -233 -147.5 -368t-393.5 -135 q-175 0 -300.5 68t-181.5 199l258 58q42 -76 98 -107.5t133 -31.5q130 0 189 73t59 228q0 147 -77.5 214t-254.5 67h-25v189l279 348h-417v-643q0 -100 8 -236h-272zM831 547q0 175 -58.5 269.5t-172.5 94.5q-113 0 -168 -91.5t-55 -279.5q0 -368 221 -368q111 0 172 97.5 t61 277.5z" />
<glyph unicode="&#x2a5;" horiz-adv-x="2479" d="M1531 -96q8 19 53 96h-740q-6 21 -10.5 84t-4.5 92h-4q-91 -196 -346 -196q-189 0 -292 147.5t-103 412.5q0 269 108.5 415.5t307.5 146.5q115 0 198.5 -48t128.5 -143h2l-2 178v395h281v-402h896v-201l-587 -676h295q123 191 227 272.5t228 81.5q130 0 205.5 -72 t75.5 -195q0 -139 -90.5 -215.5t-264.5 -76.5h-271q-49 -86 -104 -203zM831 547q0 175 -58.5 269.5t-172.5 94.5q-113 0 -168 -91.5t-55 -279.5q0 -368 221 -368q111 0 172 97.5t61 277.5zM1108 879v-684l586 684h-586zM2234 288q0 72 -80 72q-49 0 -92 -39t-100 -116h162 q51 0 80.5 21.5t29.5 61.5z" />
<glyph unicode="&#x2a6;" horiz-adv-x="1666" d="M440 1082h454q84 21 191 21q193 0 310.5 -75t146.5 -217l-249 -26q-12 66 -59 98.5t-149 32.5q-100 0 -150 -25.5t-50 -85.5q0 -46 37 -71.5t130 -42.5q225 -42 321.5 -85t145 -113.5t48.5 -176.5q0 -316 -461 -316h-686q-124 0 -191 67.5t-67 204.5v620h-137v190h151 l88 254h176v-254zM1115 205q111 0 152.5 22.5t41.5 77.5q0 48 -43.5 77t-147.5 50q-237 47 -320.5 85t-127 101t-43.5 157q0 63 21 117h-208v-544q0 -79 30 -111t93 -32h552z" />
<glyph unicode="&#x2a7;" horiz-adv-x="1094" d="M420 -18q-124 0 -191 67.5t-67 204.5v638h-137v190h151l88 254h176v-254h193v29q0 200 94 290.5t288 90.5q88 0 155 -19v-215q-42 21 -119 21q-71 0 -104 -44t-33 -151v-1128q0 -199 -93 -290t-287 -91q-43 0 -89 7t-66 14v213q55 -21 127 -21q66 0 96.5 40t30.5 157v23 q-96 -26 -213 -26zM563 196q36 0 70 8v688h-193v-542q0 -79 30 -116.5t93 -37.5z" />
<glyph unicode="&#x2a8;" horiz-adv-x="1688" d="M1389 286q0 99 -163 99q-108 0 -230 -118q65 -95 206 -95q187 0 187 114zM461 -20q-135 0 -217 74t-82 200v638h-137v190h151l88 254h176v-254h205v-190h-205v-552q0 -69 26.5 -100t64.5 -31q35 0 74.5 23.5t73.5 67.5q-43 94 -43 235q0 268 135 417.5t383 149.5 q191 0 316 -96t157 -265l-283 -14q-12 83 -60 132.5t-136 49.5q-217 0 -217 -363l2 -76q179 121 335 121q179 0 273 -71.5t94 -203.5q0 -157 -123.5 -246.5t-338.5 -89.5q-206 0 -368 133q-84 -75 -161 -104t-183 -29z" />
<glyph unicode="&#x2a9;" horiz-adv-x="1780" d="M931 1082q3 -19 8 -101.5t5 -113.5h4q57 124 143 180t205 56q172 0 264 -106t92 -310v-764q0 -177 -78.5 -262.5t-242.5 -85.5q-48 0 -106 5.5t-86 11.5v211q58 -12 105 -12q128 0 128 125v691q0 285 -193 285q-102 0 -164.5 -87.5t-62.5 -224.5v-580h-281v892h-198v-892 h-280v892h-158v190h158v113q0 147 78 218t237 71q79 0 178 -16v-181q-41 9 -82 9q-72 0 -101.5 -28.5t-29.5 -100.5v-85h458z" />
<glyph unicode="&#x2aa;" horiz-adv-x="1589" d="M143 0v1484h281v-1189q96 -60 232 -94.5t279 -34.5q168 0 232.5 26.5t64.5 97.5q0 52 -43.5 82.5t-147.5 51.5q-228 45 -315 85.5t-131.5 105t-44.5 160.5q0 155 119.5 241.5t338.5 86.5q193 0 310.5 -75t146.5 -217l-249 -26q-12 66 -59 98.5t-149 32.5 q-100 0 -150 -25.5t-50 -85.5q0 -48 38.5 -75.5t128.5 -45.5q258 -54 342.5 -96t128.5 -108t44 -164q0 -165 -137 -250.5t-399 -85.5q-306 0 -530 99v-79h-281z" />
<glyph unicode="&#x2ab;" horiz-adv-x="1418" d="M143 0v1484h281v-402h903v-201l-597 -676h646v-205h-1233zM424 879v-682l593 682h-593z" />
<glyph unicode="&#x2ac;" horiz-adv-x="1093" d="M894 0h-199l-115 387q-6 19 -11 43.5t-9.5 46.5t-7.5 38t-3 19l-12 -55l-23 -94l-116 -385h-199l-177 694h177l109 -503l17 91l9 36l113 376h202l111 -376l18 -80l9 -47l113 503h174zM894 790h-199l-115 387q-8 25 -19.5 82t-11.5 65l-12 -55l-23 -94l-116 -385h-199 l-177 694h177l109 -503l9 49q5 27 8.5 43t121.5 411h202l111 -376l18 -80l9 -47l113 503h174z" />
<glyph unicode="&#x2ad;" horiz-adv-x="1154" d="M1018 997h-238v265h-406v-265h-238v487h882v-487zM1018 0h-238v265h-406v-265h-238v487h882v-487z" />
<glyph unicode="&#x2ae;" horiz-adv-x="1494" d="M1071 193q-52 -111 -133.5 -161.5t-214.5 -50.5q-172 0 -264 106t-92 310v325q0 154 -175 154q-56 0 -158 -21v211q123 27 223 27q193 0 291.5 -109t98.5 -321v-186q0 -285 193 -285q102 0 164.5 87.5t62.5 224.5v578h281v-1507h-281v405q0 109 8 213h-4z" />
<glyph unicode="&#x2af;" horiz-adv-x="1494" d="M1072 193q-52 -111 -133.5 -161.5t-215.5 -50.5q-172 0 -264 106t-92 310v325q0 154 -175 154q-56 0 -158 -21v211q123 27 223 27q192 0 291 -109.5t99 -320.5v-186q0 -285 193 -285q102 0 164.5 87.5t62.5 224.5v578h281v-1056q0 -234 192 -234q67 0 148 21v-211 q-108 -27 -207 -27q-195 0 -300 110t-105 317v191h-4z" />
<glyph unicode="&#x2b0;" horiz-adv-x="753" d="M231 1100q39 88 97.5 127.5t139.5 39.5q119 0 180.5 -75.5t61.5 -217.5v-484h-190v427q0 201 -132 201q-70 0 -112 -62.5t-42 -157.5v-408h-191v1046h191v-285l-5 -151h2z" />
<glyph unicode="&#x2b1;" horiz-adv-x="753" d="M232 1101q39 87 97.5 126.5t139.5 39.5q119 0 180.5 -75.5t61.5 -217.5v-484h-190v427q0 201 -132 201q-70 0 -112 -62.5t-42 -157.5v-408h-191v848q0 96 60.5 150.5t165.5 54.5q23 0 67 -4t64 -8v-149q-38 9 -78 9q-88 0 -88 -89v-51l-2 -89l-3 -61h2z" />
<glyph unicode="&#x2b2;" horiz-adv-x="398" d="M124 1389v146h191v-146h-191zM120 190q-74 0 -116 6v140l35 -3q50 0 67.5 23.5t17.5 90.5v805h191v-853q0 -100 -49.5 -154.5t-145.5 -54.5z" />
<glyph unicode="&#x2b3;" horiz-adv-x="516" d="M59 490v583q0 135 -5 180h182q9 -72 9 -163h3q37 108 74.5 142.5t101.5 34.5q36 0 59 -10v-166q-40 11 -82 11q-71 0 -111 -60t-40 -178v-374h-191z" />
<glyph unicode="&#x2b4;" horiz-adv-x="516" d="M458 1252v-583q0 -135 5 -180h-182q-4 14 -6 74.5t-3 88.5h-3q-37 -108 -74.5 -142.5t-101.5 -34.5q-37 0 -59 10v166q40 -11 82 -11q71 0 111 60t40 178v374h191z" />
<glyph unicode="&#x2b5;" horiz-adv-x="516" d="M439 1252v-822q0 -88 87 -88q38 0 72 8v-149q-21 -4 -62.5 -8t-68.5 -4q-107 0 -157.5 57.5t-50.5 188.5v213h-3q-33 -98 -73 -136t-109 -38q-39 0 -59 11v165q47 -10 82 -10q71 0 111 60t40 177v375h191z" />
<glyph unicode="&#x2b6;" horiz-adv-x="768" d="M372 946l185 306h211l-219 -332q74 -17 115 -70.5t41 -138.5q0 -117 -84 -169t-238 -52h-332v762h192v-306h129zM242 613h130q140 0 140 106q0 105 -129 105h-141v-211z" />
<glyph unicode="&#x2b7;" horiz-adv-x="1071" d="M887 490h-202l-117 465q-11 47 -21 98.5t-10 57.5l-25 -110l-129 -511h-202l-191 762h180l121 -583l27 135l115 448h205l113 -448l28 -134l10 51l115 531h177z" />
<glyph unicode="&#x2b8;" horiz-adv-x="738" d="M172 189q-70 0 -120 9v141l66 -5q62 0 96 33t68 130l-291 755h202l115 -358q41 -123 69 -235l7 26l54 206l109 361h200l-291 -803q-56 -144 -119 -202t-165 -58z" />
<glyph unicode="&#x2b9;" horiz-adv-x="487" d="M354 898h-219l-26 511h272z" />
<glyph unicode="&#x2ba;" horiz-adv-x="971" d="M807 898h-219l-27 511h275zM381 898h-219l-27 511h273z" />
<glyph unicode="&#x2bb;" horiz-adv-x="569" d="M139 831v195q0 121 26 213.5t82 169.5h183q-62 -78 -96.5 -161.5t-34.5 -155.5h127v-261h-287z" />
<glyph unicode="&#x2bc;" horiz-adv-x="569" d="M430 1409v-195q0 -121 -26 -213.5t-82 -169.5h-183q62 78 96.5 161.5t34.5 155.5h-127v261h287z" />
<glyph unicode="&#x2bd;" horiz-adv-x="569" d="M426 1409v-261h-127q0 -72 34.5 -156t96.5 -161h-183q-56 78 -82 169t-26 214v195h287z" />
<glyph unicode="&#x2be;" horiz-adv-x="682" d="M226 1259q53 0 77.5 22.5t24.5 58.5q0 79 -102 79v118q105 0 167 -52t62 -145q0 -94 -61.5 -145.5t-167.5 -51.5v116z" />
<glyph unicode="&#x2bf;" horiz-adv-x="682" d="M455 1143q-106 0 -167.5 51.5t-61.5 145.5t62.5 145.5t166.5 51.5v-118q-102 0 -102 -79q0 -36 24.5 -58.5t77.5 -22.5v-116z" />
<glyph unicode="&#x2c0;" horiz-adv-x="768" d="M278 490v409q41 -13 91 -13q151 0 151 219q0 101 -36.5 143t-111.5 42q-53 0 -90.5 -36.5t-46.5 -97.5l-178 46q20 114 105 179.5t211 65.5q163 0 250.5 -93t87.5 -266q0 -139 -66 -232t-181 -113v-253h-186z" />
<glyph unicode="&#x2c1;" horiz-adv-x="768" d="M304 490v253q-114 19 -180.5 112.5t-66.5 232.5q0 173 87.5 266t250.5 93q126 0 211 -65.5t105 -179.5l-178 -46q-9 62 -46.5 98t-90.5 36q-75 0 -111.5 -42t-36.5 -143q0 -219 151 -219q50 0 91 13v-409h-186z" />
<glyph unicode="&#x2c2;" horiz-adv-x="1196" d="M86 516v322l1027 391v-228l-833 -325l833 -324v-227z" />
<glyph unicode="&#x2c3;" horiz-adv-x="1196" d="M86 125v227l832 324l-832 325v228l1027 -391v-322z" />
<glyph unicode="&#x2c4;" horiz-adv-x="1196" d="M1150 206h-227l-324 832l-325 -832h-228l391 1027h322z" />
<glyph unicode="&#x2c5;" horiz-adv-x="1196" d="M759 206h-322l-391 1027h228l325 -832l324 832h227z" />
<glyph unicode="&#x2c6;" horiz-adv-x="682" d="M737 1211v-28h-159l-203 192h-4l-211 -192h-160v28l258 318h229z" />
<glyph unicode="&#x2c7;" horiz-adv-x="682" d="M487 1183h-229l-258 317v29h160l211 -193h4l203 193h159v-29z" />
<glyph unicode="&#x2c8;" horiz-adv-x="682" d="M415 1125h-148v359h148v-359z" />
<glyph unicode="&#x2c9;" horiz-adv-x="682" d="M36 1371h612v-168h-612v168z" />
<glyph unicode="&#x2ca;" horiz-adv-x="682" d="M126 1202v27l172 255h258v-38l-281 -244h-149z" />
<glyph unicode="&#x2cb;" horiz-adv-x="682" d="M407 1202l-281 244v38h258l172 -255v-27h-149z" />
<glyph unicode="&#x2cc;" horiz-adv-x="682" d="M415 -425h-148v359h148v-359z" />
<glyph unicode="&#x2cd;" horiz-adv-x="682" d="M34 -159h612v-168h-612v168z" />
<glyph unicode="&#x2ce;" horiz-adv-x="682" d="M346 -404l-281 244v38h258l172 -255v-27h-149z" />
<glyph unicode="&#x2cf;" horiz-adv-x="682" d="M187 -404v27l172 255h258v-38l-281 -244h-149z" />
<glyph unicode="&#x2d0;" horiz-adv-x="682" d="M496 1082l-96 -300h-118l-96 300h310zM496 0h-310l96 300h118z" />
<glyph unicode="&#x2d1;" horiz-adv-x="682" d="M496 1082l-96 -300h-118l-96 300h310z" />
<glyph unicode="&#x2d2;" horiz-adv-x="682" d="M226 215q53 0 77.5 22.5t24.5 58.5q0 79 -102 79v118q105 0 167 -52t62 -145q0 -94 -61.5 -145.5t-167.5 -51.5v116z" />
<glyph unicode="&#x2d3;" horiz-adv-x="682" d="M454 99q-106 0 -167.5 51.5t-61.5 145.5t62.5 145.5t166.5 51.5v-118q-102 0 -102 -79q0 -36 24.5 -58.5t77.5 -22.5v-116z" />
<glyph unicode="&#x2d4;" horiz-adv-x="682" d="M519 174h-365v124h121v224h124v-224h120v-124z" />
<glyph unicode="&#x2d5;" horiz-adv-x="682" d="M519 398h-120v-224h-124v224h-121v124h365v-124z" />
<glyph unicode="&#x2d6;" horiz-adv-x="682" d="M519 278h-120v-104h-124v104h-121v124h121v120h124v-120h120v-124z" />
<glyph unicode="&#x2d7;" horiz-adv-x="682" d="M19 250v224h644v-224h-644z" />
<glyph unicode="&#x2d8;" horiz-adv-x="682" d="M295 1183q-151 0 -246 91t-106 232h163q16 -77 68 -121.5t123 -44.5t123.5 43.5t66.5 122.5h164q-18 -148 -110.5 -235.5t-245.5 -87.5z" />
<glyph unicode="&#x2d9;" horiz-adv-x="682" d="M200 1277v207h281v-207h-281z" />
<glyph unicode="&#x2da;" horiz-adv-x="682" d="M547 1390q0 -105 -73.5 -179.5t-180.5 -74.5t-180.5 74.5t-73.5 179.5t74.5 179.5t179.5 74.5t179.5 -74.5t74.5 -179.5zM420 1390q0 51 -36.5 88t-90.5 37q-51 0 -88 -36t-37 -89q0 -56 37 -92t88 -36q53 0 90 37t37 91z" />
<glyph unicode="&#x2db;" horiz-adv-x="682" d="M313 -425q-111 0 -174 54t-63 146q0 75 43.5 142t114.5 104h153q-63 -42 -96 -99.5t-33 -110.5q0 -42 24.5 -67.5t69.5 -25.5q54 0 112 27v-137q-63 -33 -151 -33z" />
<glyph unicode="&#x2dc;" horiz-adv-x="682" d="M543 1183q-44 0 -88.5 19t-86.5 42.5t-79.5 42.5t-67.5 19q-41 0 -62.5 -23t-35.5 -100h-137q8 113 32.5 169.5t70.5 90t122 33.5q45 0 90 -19t87 -42.5t78.5 -42.5t65.5 -19q40 0 62.5 24.5t36.5 98.5h135q-7 -157 -63.5 -225t-159.5 -68z" />
<glyph unicode="&#x2dd;" horiz-adv-x="682" d="M50 1184h-142v34l225 266h235v-43zM456 1184h-142v34l225 266h235v-43z" />
<glyph unicode="&#x2de;" horiz-adv-x="682" d="M-43 770l279 55l28 -137q16 -77 43.5 -106t90.5 -29q42 0 75.5 11.5t71.5 31.5l69 -180q-124 -56 -254 -56q-122 0 -187.5 49t-90.5 146l-9 35l-75 -16z" />
<glyph unicode="&#x2df;" horiz-adv-x="682" d="M3 927l235 243l-233 239l105 107l232 -238l232 239l105 -108l-233 -240l233 -238l-105 -109l-232 241l-235 -244z" />
<glyph unicode="&#x2e0;" horiz-adv-x="749" d="M495 680q70 -130 91 -187.5t21 -93.5q0 -102 -58.5 -158.5t-167.5 -56.5q-106 0 -167 57t-61 158q0 40 19 96.5t81 173.5l-259 583h201l177 -434l185 434h199zM436 398q0 70 -60 179q-58 -116 -58 -179q0 -78 58 -78q29 0 44.5 20.5t15.5 57.5z" />
<glyph unicode="&#x2e1;" horiz-adv-x="289" d="M49 491v1046h191v-1046h-191z" />
<glyph unicode="&#x2e2;" horiz-adv-x="770" d="M718 712q0 -113 -89 -175t-240 -62q-152 0 -233 49t-107 155l168 26q14 -54 50 -76.5t122 -22.5q84 0 118.5 22t34.5 65q0 37 -30.5 58.5t-99.5 35.5q-155 32 -213.5 60t-89 74t-30.5 114q0 109 79.5 170t231.5 61q133 0 212 -53.5t99 -152.5l-170 -18q-9 48 -41 70.5 t-100 22.5t-102 -18t-34 -61q0 -26 14 -41.5t39.5 -25.5t60 -18t76.5 -18q110 -24 163.5 -53t82 -74.5t28.5 -113.5z" />
<glyph unicode="&#x2e3;" horiz-adv-x="750" d="M545 490l-171 276l-173 -276h-203l269 394l-256 368h206l157 -249l156 249h207l-256 -366l271 -396h-207z" />
<glyph unicode="&#x2e4;" horiz-adv-x="768" d="M304 490v253q-114 19 -180.5 112.5t-66.5 232.5q0 173 87.5 266t250.5 93q126 0 211 -65.5t105 -179.5l-178 -46q-9 62 -46.5 98t-90.5 36q-75 0 -111.5 -42t-36.5 -143q0 -219 151 -219q50 0 91 13v-409h-186z" />
<glyph unicode="&#x2e5;" horiz-adv-x="784" d="M634 0h-179v1313h-305v171h484v-1484z" />
<glyph unicode="&#x2e6;" horiz-adv-x="784" d="M634 0h-179v976h-305v171h305v337h179v-1484z" />
<glyph unicode="&#x2e7;" horiz-adv-x="784" d="M634 0h-179v646h-305v171h305v667h179v-1484z" />
<glyph unicode="&#x2e8;" horiz-adv-x="784" d="M634 0h-179v321h-305v171h305v992h179v-1484z" />
<glyph unicode="&#x2e9;" horiz-adv-x="784" d="M634 0h-484v171h305v1313h179v-1484z" />
<glyph unicode="&#x2ea;" horiz-adv-x="682" d="M585 0h-487v880h117v-766h370v-114z" />
<glyph unicode="&#x2eb;" horiz-adv-x="682" d="M585 383h-370v-383h-117v880h117v-383h370v-114z" />
<glyph unicode="&#x2ec;" horiz-adv-x="682" d="M460 -424h-229l-258 276v29h160l211 -152h4l203 152h159v-29z" />
<glyph unicode="&#x2ed;" horiz-adv-x="682" d="M647 1426h-612v138h612v-138zM647 1194h-612v138h612v-138z" />
<glyph unicode="&#x2ee;" horiz-adv-x="1024" d="M893 1217q0 -118 -24.5 -209t-84.5 -177h-184q133 168 133 318h-127v260h287v-192zM422 1217q0 -125 -25 -214.5t-84 -171.5h-182q131 168 131 318h-127v260h287v-192z" />
<glyph unicode="&#x2ef;" horiz-adv-x="682" d="M312 -357l-177 289h127l79 -158l79 158h127l-177 -289h-58z" />
<glyph unicode="&#x2f0;" horiz-adv-x="682" d="M370 -68l177 -289h-127l-79 158l-79 -158h-127l177 289h58z" />
<glyph unicode="&#x2f1;" horiz-adv-x="682" d="M197 -190l289 177v-127l-158 -79l158 -79v-127l-289 177v58z" />
<glyph unicode="&#x2f2;" horiz-adv-x="682" d="M486 -248l-289 -177v127l158 79l-158 79v127l289 -177v-58z" />
<glyph unicode="&#x2f3;" horiz-adv-x="682" d="M532 -233q0 -82 -54.5 -137t-136.5 -55q-80 0 -136 54t-56 138q0 83 56 137t136 54q81 0 136 -54.5t55 -136.5zM434 -233q0 42 -25.5 68t-67.5 26t-66.5 -26t-24.5 -68q0 -43 24.5 -70t66.5 -27t67.5 27t25.5 70z" />
<glyph unicode="&#x2f4;" horiz-adv-x="682" d="M346 195l-281 244v38h258l172 -255v-27h-149z" />
<glyph unicode="&#x2f5;" horiz-adv-x="682" d="M216 195l-281 244v38h258l172 -255v-27h-149zM586 195l-281 244v38h258l172 -255v-27h-149z" />
<glyph unicode="&#x2f6;" horiz-adv-x="682" d="M305 195v27l172 255h258v-38l-281 -244h-149zM-65 195v27l172 255h258v-38l-281 -244h-149z" />
<glyph unicode="&#x2f7;" horiz-adv-x="682" d="M491 -371q-40 0 -80 17.5t-78 38t-72 38t-61 17.5q-37 0 -57.5 -23.5t-30.5 -87.5h-124q8 102 29.5 153.5t63.5 81t110 29.5q41 0 82 -17t78.5 -38t71 -38t59.5 -17q44 0 62 29t27 81h122q-5 -98 -27 -150.5t-64 -83t-111 -30.5z" />
<glyph unicode="&#x2f8;" horiz-adv-x="682" d="M197 1202v282h288v-282h-288zM197 450v281h288v-281h-288z" />
<glyph unicode="&#x2f9;" horiz-adv-x="682" d="M169 1484h349v-113h-233v-219h-116v332z" />
<glyph unicode="&#x2fa;" horiz-adv-x="682" d="M518 1152h-116v219h-233v113h349v-332z" />
<glyph unicode="&#x2fb;" horiz-adv-x="682" d="M169 -75h116v-219h233v-113h-349v332z" />
<glyph unicode="&#x2fc;" horiz-adv-x="682" d="M518 -407h-349v113h233v219h116v-332z" />
<glyph unicode="&#x2fd;" horiz-adv-x="814" d="M784 -425h-754v381h162v-222h429v222h163v-381z" />
<glyph unicode="&#x2fe;" horiz-adv-x="814" d="M784 -425h-754v381h162v-222h592v-159z" />
<glyph unicode="&#x2ff;" horiz-adv-x="682" d="M625 -186h-419l166 -239h-117l-197 283v14l197 283h117l-166 -239h419v-102z" />
<glyph unicode="&#x300;" d="M-274 1572l-281 244v38h258l172 -255v-27h-149z" />
<glyph unicode="&#x301;" d="M-415 1572v27l172 255h258v-38l-281 -244h-149z" />
<glyph unicode="&#x302;" d="M370 1211v-28h-159l-203 192h-4l-211 -192h-160v28l258 318h229z" />
<glyph unicode="&#x303;" d="M-427 1571q-40 0 -80 17.5t-78 38t-72 38t-61 17.5q-37 0 -57.5 -23.5t-30.5 -87.5h-124q8 102 29.5 153.5t63.5 81t110 29.5q41 0 82 -17t78.5 -38t71 -38t59.5 -17q44 0 62 29t27 81h122q-5 -98 -27 -150.5t-64 -83t-111 -30.5z" />
<glyph unicode="&#x304;" d="M-307 1484h612v-168h-612v168z" />
<glyph unicode="&#x305;" d="M-600 1600v78h1177v-78h-1177z" />
<glyph unicode="&#x306;" d="M-2 1193q-151 0 -246 91t-106 232h163q16 -77 68 -121.5t123 -44.5t123.5 43.5t66.5 122.5h164q-18 -148 -110.5 -235.5t-245.5 -87.5z" />
<glyph unicode="&#x307;" d="M-141 1267v207h281v-207h-281z" />
<glyph unicode="&#x308;" d="M109 1265v219h217v-219h-217zM-325 1265v219h214v-219h-214z" />
<glyph unicode="&#x309;" d="M-231 1668q0 62 -147 62q-52 0 -108 -8l-11 102q55 11 167 11q141 0 215 -39.5t74 -112.5q0 -53 -44 -89t-138 -43v-60h-150v120q142 0 142 57z" />
<glyph unicode="&#x30a;" d="M191 1343q0 -82 -54.5 -137t-136.5 -55q-80 0 -136 54t-56 138q0 83 56 137t136 54q81 0 136 -54.5t55 -136.5zM93 1343q0 42 -25.5 68t-67.5 26t-66.5 -26t-24.5 -68q0 -43 24.5 -70t66.5 -27t67.5 27t25.5 70z" />
<glyph unicode="&#x30b;" d="M-326 1184h-142v34l225 266h235v-43zM80 1184h-142v34l225 266h235v-43z" />
<glyph unicode="&#x30c;" d="M120 1183h-229l-258 317v29h160l211 -193h4l203 193h159v-29z" />
<glyph unicode="&#x30d;" d="M74 1125h-148v359h148v-359z" />
<glyph unicode="&#x30e;" d="M-56 1125h-144v359h144v-359zM200 1125h-144v359h144v-359z" />
<glyph unicode="&#x30f;" d="M-62 1441v43h235l225 -266v-34h-142zM-468 1441v43h235l225 -266v-34h-142z" />
<glyph unicode="&#x310;" d="M-136 1504v207h276v-207h-276zM0 1180q-148 0 -240.5 86.5t-103.5 229.5h163q16 -78 64 -117t117 -39q72 0 119 39t61 117h164q-18 -152 -106.5 -234t-237.5 -82z" />
<glyph unicode="&#x311;" d="M0 1344q-68 0 -118.5 -40.5t-64.5 -115.5h-157q18 144 107 223.5t233 79.5t233 -79.5t107 -223.5h-157q-14 75 -64 115.5t-119 40.5z" />
<glyph unicode="&#x312;" d="M-146 831v195q0 121 26 213.5t82 169.5h183q-62 -78 -96.5 -161.5t-34.5 -155.5h127v-261h-287z" />
<glyph unicode="&#x313;" d="M145 1409v-195q0 -121 -26 -213.5t-82 -169.5h-183q62 78 96.5 161.5t34.5 155.5h-127v261h287z" />
<glyph unicode="&#x314;" d="M141 1409v-261h-127q0 -72 34.5 -156t96.5 -161h-183q-56 78 -82 169t-26 214v195h287z" />
<glyph unicode="&#x315;" d="M311 1409v-195q0 -121 -26 -213.5t-82 -169.5h-183q62 78 96.5 161.5t34.5 155.5h-127v261h287z" />
<glyph unicode="&#x316;" d="M66 -404l-281 244v38h258l172 -255v-27h-149z" />
<glyph unicode="&#x317;" d="M-215 -404v27l172 255h258v-38l-281 -244h-149z" />
<glyph unicode="&#x318;" d="M160 -60v-365h-124v121h-224v124h224v120h124z" />
<glyph unicode="&#x319;" d="M-36 -60v-120h224v-124h-224v-121h-124v365h124z" />
<glyph unicode="&#x31a;" d="M377 1210h-163v313h-591v159h754v-472z" />
<glyph unicode="&#x31b;" d="M-20 897q107 14 164.5 79.5t57.5 172.5h-125v260h263v-210q0 -188 -86 -298.5t-274 -139.5v136z" />
<glyph unicode="&#x31c;" d="M114 -434q-106 0 -167.5 51.5t-61.5 145.5t62.5 145.5t166.5 51.5v-118q-102 0 -102 -79q0 -36 24.5 -58.5t77.5 -22.5v-116z" />
<glyph unicode="&#x31d;" d="M182 -425h-365v124h122v224h124v-224h119v-124z" />
<glyph unicode="&#x31e;" d="M182 -201h-119v-224h-124v224h-122v124h365v-124z" />
<glyph unicode="&#x31f;" d="M184 -311h-123v-114h-123v114h-123v113h123v121h123v-121h123v-113z" />
<glyph unicode="&#x320;" d="M-429 -298v185h858v-185h-858z" />
<glyph unicode="&#x321;" d="M280 100v-177q0 -177 -78.5 -262.5t-243.5 -85.5q-48 0 -106 5.5t-86 11.5v211q58 -12 105 -12q129 0 129 125v184h280z" />
<glyph unicode="&#x322;" d="M280 100v-184q0 -125 129 -125q47 0 105 12v-211q-27 -5 -83 -11t-109 -6q-166 0 -244 86t-78 262v177h280z" />
<glyph unicode="&#x323;" d="M-141 -366v207h281v-207h-281z" />
<glyph unicode="&#x324;" d="M108 -398v219h217v-219h-217zM-326 -398v219h214v-219h-214z" />
<glyph unicode="&#x325;" d="M191 -233q0 -82 -54.5 -137t-136.5 -55q-80 0 -136 54t-56 138q0 83 56 137t136 54q81 0 136 -54.5t55 -136.5zM93 -233q0 42 -25.5 68t-67.5 26t-66.5 -26t-24.5 -68q0 -43 24.5 -70t66.5 -27t67.5 27t25.5 70z" />
<glyph unicode="&#x326;" d="M122 -204q0 -73 -21.5 -131.5t-72.5 -119.5h-137q94 100 94 170h-108v207h245v-126z" />
<glyph unicode="&#x327;" d="M274 -204q0 -101 -95 -158t-267 -57q-92 0 -173 13v123q77 -11 154 -11q86 0 134.5 23t48.5 66q0 84 -123 84q-63 0 -131 -20l30 107q20 4 38 8t37 6.5t40 4t46 1.5q121 0 191 -51t70 -139z" />
<glyph unicode="&#x328;" d="M53 -425q-111 0 -174 54t-63 146q0 66 34.5 126.5t90.5 98.5h158q-50 -41 -75.5 -91.5t-25.5 -97.5q0 -42 24.5 -67.5t69.5 -25.5q54 0 112 27v-137q-63 -33 -151 -33z" />
<glyph unicode="&#x329;" d="M74 -425h-148v359h148v-359z" />
<glyph unicode="&#x32a;" d="M377 -425h-163v222h-429v-222h-162v381h754v-381z" />
<glyph unicode="&#x32b;" d="M335 -129q-2 -105 -51.5 -164.5t-137.5 -59.5q-90 0 -145 61q-55 -61 -146 -61q-90 0 -140 62t-50 162h104q0 -113 92 -113q90 0 90 113h99q0 -113 92 -113q90 0 90 113h103z" />
<glyph unicode="&#x32c;" d="M120 -403h-229l-258 276v29h160l211 -152h4l203 152h159v-29z" />
<glyph unicode="&#x32d;" d="M370 -395v-29h-159l-203 151h-4l-211 -151h-160v29l258 276h229z" />
<glyph unicode="&#x32e;" d="M-1 -404q-145 0 -243 81t-109 207h163q15 -62 68 -99t123 -37q72 0 124 36.5t66 99.5h164q-19 -133 -114.5 -210.5t-241.5 -77.5z" />
<glyph unicode="&#x32f;" d="M-2 -119q143 0 235 -76t111 -212h-164q-14 64 -61 100t-119 36q-69 0 -117 -36t-64 -100h-163q11 127 104 207.5t238 80.5z" />
<glyph unicode="&#x330;" d="M168 -391q-44 0 -88.5 19t-86.5 42.5t-79.5 42.5t-67.5 19q-41 0 -62.5 -23t-35.5 -100h-137q8 113 32.5 169.5t70.5 90t122 33.5q45 0 90 -19t87 -42.5t78.5 -42.5t65.5 -19q40 0 62.5 24.5t36.5 98.5h135q-7 -157 -63.5 -225t-159.5 -68z" />
<glyph unicode="&#x331;" d="M-305 -169h612v-168h-612v168z" />
<glyph unicode="&#x332;" d="M-587 -250v78h1177v-78h-1177z" />
<glyph unicode="&#x333;" d="M-315 -398v203h627v-203h-627zM-315 -771v201h627v-201h-627z" />
<glyph unicode="&#x334;" d="M168 205q-44 0 -88.5 19t-86.5 42.5t-79.5 42.5t-67.5 19q-41 0 -62.5 -23t-35.5 -100h-137q8 113 32.5 169.5t70.5 90t122 33.5q45 0 90 -19t87 -42.5t78.5 -42.5t65.5 -19q40 0 62.5 24.5t36.5 98.5h135q-7 -157 -63.5 -225t-159.5 -68z" />
<glyph unicode="&#x335;" d="M325 255h-650v211h650v-211z" />
</font>
</defs>
</svg>
